<svg width="29" height="32" viewBox="0 0 29 32" fill="none" xmlns="http://www.w3.org/2000/svg">
<path d="M25.5706 10.3517L9.45417 0.89482C9.37502 0.847161 9.29417 0.802905 9.21417 0.757799C7.29589 -0.269423 5.13677 -0.23368 3.35126 0.751841C2.69765 1.11013 2.09765 1.59609 1.57511 2.20119C-0.412955 4.50925 -0.527849 7.68368 1.28405 10.0981L5.67634 15.9985L7.5027 18.4512L9.67969 21.3763C9.81076 21.5788 11.0141 23.5218 10.5673 25.486C10.3112 26.6069 9.53417 27.5864 8.25758 28.4034C8.25163 28.4068 8.24567 28.4103 8.23801 28.4154C8.1529 28.469 8.06524 28.5234 7.97418 28.5762C7.96993 28.5788 7.96567 28.5822 7.96057 28.5847C7.91716 28.6102 7.87376 28.6349 7.8295 28.6579C6.12995 29.5677 4.63294 28.8545 3.79806 27.8843C2.97254 26.9252 2.43467 25.2384 3.63806 23.6367L6.96398 19.1746L5.13762 16.7219L1.28915 21.8878C-0.529551 24.3073 -0.414657 27.4843 1.57511 29.7949C2.8168 31.2383 4.51124 32 6.25675 32C6.741 32 7.22611 31.9421 7.70865 31.8221C8.01588 31.7481 8.31971 31.6485 8.62013 31.5226C8.82098 31.44 9.02098 31.3455 9.21842 31.24C9.30013 31.1958 9.38012 31.1498 9.46012 31.103L9.93076 30.8272C9.87033 30.8621 9.81076 30.8962 9.74948 30.9294H9.74012C11.7588 29.6707 13.0031 28.0486 13.4362 26.1022C13.4967 25.8316 13.5367 25.5635 13.5631 25.2997V25.2971C13.8584 22.3184 12.169 19.8197 12.0907 19.7065L3.63381 8.34835C2.43637 6.75262 2.97339 5.06669 3.79806 4.1101C4.04912 3.81904 4.35975 3.54926 4.7189 3.3416C5.55123 2.8599 6.63888 2.70246 7.8261 3.33905C7.87546 3.36458 7.92312 3.39181 7.96993 3.4182L24.0855 12.8751C25.1978 13.5287 25.8642 14.6827 25.8753 15.9678C25.8753 15.9798 25.8736 15.9908 25.8736 16.0027C25.8736 17.3014 25.2038 18.4691 24.0821 19.1261L18.94 22.1439C18.94 22.1439 18.94 22.1431 18.9392 22.1422L18.9255 22.1499L14.4822 24.7575V24.7601C14.4745 25.2026 14.4235 25.6596 14.3213 26.1235C14.0703 27.2477 13.5503 28.2639 12.7682 29.1643L20.026 24.9048L25.5689 21.652L25.7323 21.555L25.7391 21.5465C27.6548 20.3465 28.7952 18.3031 28.8063 16.0368C28.8063 16.0249 28.808 16.0129 28.808 16.001C28.808 13.6538 27.5969 11.5424 25.5697 10.3526L25.5706 10.3517Z" fill="#007AFF"/>
</svg>
