<svg width="80" height="80" viewBox="0 0 80 80" fill="none" xmlns="http://www.w3.org/2000/svg">
<g clip-path="url(#clip0_0_15554)">
<g opacity="0.05">
<path d="M47.7654 78.5004C26.3539 82.9619 5.30324 69.173 0.839931 47.7614C-3.62156 26.3499 10.1692 5.30109 31.5807 0.837784C52.9922 -3.62371 74.041 10.1652 78.5025 31.5767C82.964 52.9883 69.1769 74.0371 47.7654 78.5004Z" fill="#FF0879"/>
</g>
<g opacity="0.1">
<path d="M45.736 68.7522C29.7001 72.0947 13.9325 61.7662 10.5918 45.7302C7.24932 29.6942 17.5797 13.9303 33.6157 10.5878C49.6516 7.24528 65.4156 17.5738 68.7581 33.6098C72.1006 49.6458 61.7738 65.4115 45.736 68.7522Z" fill="#FF0879"/>
</g>
<g opacity="0.15">
<path d="M44.0426 60.6437C32.4772 63.0539 21.1058 55.6054 18.6955 44.04C16.2853 32.4746 23.7356 21.105 35.301 18.6947C46.8664 16.2845 58.236 23.733 60.6463 35.2984C63.0566 46.8638 55.608 58.2352 44.0426 60.6455V60.6437Z" fill="#FF0879"/>
</g>
<g opacity="0.2">
<path d="M42.5976 53.6865C34.868 55.297 27.2689 50.3205 25.6584 42.5908C24.0479 34.863 29.0263 27.264 36.7559 25.6535C44.4856 24.043 52.0828 29.0214 53.6933 36.7492C55.3038 44.4788 50.3272 52.076 42.5976 53.6865Z" fill="#FF0879"/>
</g>
<path d="M31.4794 41.3758C30.5363 36.8526 33.4399 32.4201 37.9631 31.4771C42.4881 30.534 46.9187 33.4376 47.8618 37.9607C48.8049 42.4839 45.9013 46.9164 41.3781 47.8594C36.855 48.8025 32.4225 45.8989 31.4794 41.3758Z" fill="#FF0879"/>
<path d="M42.8064 38.6789H43.0821C43.2345 38.6789 43.3578 38.5556 43.3578 38.4032C43.3578 38.2509 43.2345 38.1276 43.0821 38.1276H42.4093L41.9015 37.2824C41.702 36.9487 41.341 36.7456 40.9529 36.7456H38.0239C37.6358 36.7456 37.2767 36.9487 37.0754 37.2824L36.5676 38.1276H35.8948C35.7424 38.1276 35.6191 38.2509 35.6191 38.4032C35.6191 38.5556 35.7424 38.6789 35.8948 38.6789H36.1704L35.8385 39.1214C35.6953 39.3119 35.6173 39.5458 35.6173 39.7852V40.8897C35.6173 41.1944 35.8639 41.4429 36.1704 41.4429V41.7185C36.1704 42.0232 36.4171 42.2717 36.7236 42.2717H37.2767C37.5814 42.2717 37.8299 42.025 37.8299 41.7185V41.4429H41.1452V41.7185C41.1452 42.0232 41.3918 42.2717 41.6983 42.2717H42.2515C42.5562 42.2717 42.8046 42.025 42.8046 41.7185V41.4429C43.1093 41.4429 43.3578 41.1962 43.3578 40.8897V39.7852C43.3578 39.5458 43.2798 39.3137 43.1365 39.1214L42.8046 38.6789H42.8064ZM36.865 40.6122C36.6365 40.6122 36.4497 40.4272 36.4497 40.1969C36.4497 39.9666 36.6347 39.7816 36.865 39.7816C37.0954 39.7816 37.2804 39.9666 37.2804 40.1969C37.2804 40.4272 37.0954 40.6122 36.865 40.6122ZM41.6893 38.4468C41.4626 38.5973 41.196 38.6789 40.9221 38.6789H38.0584C37.7864 38.6789 37.5198 38.5991 37.2931 38.4468L37.1008 38.318L37.5524 37.5654C37.6522 37.3985 37.8317 37.2969 38.0258 37.2969H40.9547C41.1488 37.2969 41.3284 37.3985 41.4281 37.5654L41.8797 38.318L41.6874 38.4468H41.6893ZM42.1155 40.6122C41.8869 40.6122 41.7001 40.4272 41.7001 40.1969C41.7001 39.9666 41.8851 39.7816 42.1155 39.7816C42.3458 39.7816 42.5308 39.9666 42.5308 40.1969C42.5308 40.4272 42.3458 40.6122 42.1155 40.6122Z" fill="white"/>
</g>
<defs>
<clipPath id="clip0_0_15554">
<rect width="79.3402" height="79.3384" fill="white"/>
</clipPath>
</defs>
</svg>
