<svg width="50" height="50" viewBox="0 0 50 50" fill="none" xmlns="http://www.w3.org/2000/svg">
<path d="M24.6848 0C11.0531 0 0 11.0505 0 24.6848C0 38.3165 11.0505 49.3697 24.6848 49.3697C38.3165 49.3697 49.3697 38.3192 49.3697 24.6848C49.3697 11.0505 38.3165 0 24.6848 0Z" fill="white"/>
<path d="M24.6865 3.53687C13.0079 3.53687 3.53827 13.0065 3.53827 24.6851C3.53827 36.3638 13.0079 45.8334 24.6865 45.8334C36.3652 45.8334 45.8348 36.3638 45.8348 24.6851C45.8348 13.0065 36.3652 3.53687 24.6865 3.53687Z" fill="#505D68"/>
<mask id="mask0_0_15547" style="mask-type:alpha" maskUnits="userSpaceOnUse" x="3" y="3" width="43" height="43">
<path d="M24.6818 3.53662C13.0032 3.53662 3.53357 13.0062 3.53357 24.6849C3.53357 36.3635 13.0032 45.8331 24.6818 45.8331C36.3605 45.8331 45.8301 36.3635 45.8301 24.6849C45.8301 13.0062 36.3605 3.53662 24.6818 3.53662Z" fill="#007AFF"/>
</mask>
<g mask="url(#mask0_0_15547)">
<rect x="-52.8213" y="-8.53271" width="183.422" height="102.797"/>
</g>
</svg>
