<svg width="152" height="230" viewBox="0 0 152 230" fill="none" xmlns="http://www.w3.org/2000/svg">
<g filter="url(#filter0_ddddd_0_15600)">
<rect x="46" y="9" width="60" height="60" rx="15" fill="#5B67EF"/>
<path fill-rule="evenodd" clip-rule="evenodd" d="M76.5603 32.0834C77.3038 32.0834 77.9065 32.6861 77.9065 33.4296L77.9065 46.6947C77.9065 47.4382 77.3038 48.0409 76.5603 48.0409C75.8169 48.0409 75.2142 47.4382 75.2142 46.6947L75.2142 33.4296C75.2142 32.6861 75.8169 32.0834 76.5603 32.0834ZM69.0224 34.2664C69.7658 34.2664 70.3685 34.8691 70.3685 35.6125V46.6949C70.3685 47.4384 69.7658 48.0411 69.0224 48.0411C68.2789 48.0411 67.6762 47.4384 67.6762 46.6949V35.6125C67.6762 34.8691 68.2789 34.2664 69.0224 34.2664ZM83.9756 28.2917C84.7191 28.2917 85.3218 28.8944 85.3218 29.6379V46.6942C85.3218 47.4377 84.7191 48.0404 83.9756 48.0404C83.2322 48.0404 82.6295 47.4377 82.6295 46.6942V29.6379C82.6295 28.8944 83.2322 28.2917 83.9756 28.2917Z" fill="white"/>
<path fill-rule="evenodd" clip-rule="evenodd" d="M61.6756 23.9569C63.4431 22.0611 65.9599 21 68.9312 21H76.8909C77.6343 21 78.237 21.6027 78.237 22.3462C78.237 23.0896 77.6343 23.6923 76.8909 23.6923H68.9312C66.6268 23.6923 64.8511 24.499 63.6449 25.7928C62.429 27.0971 61.6923 29.0052 61.6923 31.3696V45.6321C61.6923 47.9981 62.4261 49.9055 63.6395 51.2085C64.8429 52.5007 66.6179 53.3077 68.9312 53.3077H84.0687C86.383 53.3077 88.1579 52.5007 89.361 51.2086C90.5742 49.9056 91.3076 47.9983 91.3076 45.6321V38.549C91.3076 37.8056 91.9103 37.2029 92.6538 37.2029C93.3972 37.2029 93.9999 37.8056 93.9999 38.549V45.6321C93.9999 48.5538 93.0874 51.1573 91.3314 53.0433C89.5652 54.9401 87.0476 56 84.0687 56H68.9312C65.9531 56 63.4356 54.94 61.6693 53.0433C59.913 51.1575 59 48.554 59 45.6321V31.3696C59 28.446 59.918 25.8424 61.6756 23.9569Z" fill="white"/>
<path fill-rule="evenodd" clip-rule="evenodd" d="M92.9335 21.5503L91.8369 19.2203C91.799 19.143 91.7396 19.0816 91.665 19.0429C91.5753 18.9949 91.4717 18.9869 91.377 19.0203C91.2822 19.0536 91.2039 19.1256 91.1597 19.2203L90.063 21.5477C90.0074 21.665 89.9025 21.7464 89.7788 21.7664L87.3226 22.1438C87.2429 22.1585 87.1684 22.1972 87.109 22.2545C86.9637 22.4079 86.9637 22.6573 87.109 22.8107L88.898 24.6272C88.9866 24.7179 89.0269 24.8486 89.0055 24.9766L88.5797 27.54C88.5658 27.6267 88.5797 27.7134 88.6175 27.7908C88.7174 27.9815 88.9435 28.0548 89.128 27.9562L91.3315 26.7385C91.3347 26.7366 91.338 26.7348 91.3413 26.733C91.4404 26.6799 91.5578 26.6777 91.6594 26.7263C91.6673 26.73 91.6751 26.7341 91.6828 26.7385L93.8698 27.9482C93.9455 27.9882 94.0302 28.0015 94.1136 27.9882C94.3159 27.9535 94.4523 27.7561 94.4231 27.5427L93.9961 24.9793C93.9734 24.8499 94.0139 24.7179 94.1036 24.6285L95.8838 22.812C96.0215 22.676 96.0392 22.4532 95.9241 22.2959C95.8636 22.2118 95.7727 22.1571 95.674 22.1425L93.2179 21.7677C93.0954 21.749 92.9892 21.6677 92.9335 21.5503ZM91.4054 23.8368C91.4364 23.8154 91.4669 23.7933 91.4969 23.7708C91.5287 23.7948 91.5611 23.8181 91.594 23.8409C91.5617 23.926 91.5333 24.0123 91.509 24.0995C91.5033 24.0994 91.4977 24.0995 91.492 24.0995C91.4673 24.0108 91.4384 23.9231 91.4054 23.8368ZM90.4561 21.3357C90.4527 21.3339 90.4492 21.3321 90.4458 21.3303L90.4674 21.3417C90.4637 21.3397 90.4599 21.3377 90.4561 21.3357Z" fill="white"/>
<circle cx="91.5" cy="24.1429" r="0.642857" fill="white"/>
</g>
<defs>
<filter id="filter0_ddddd_0_15600" x="0" y="0" width="152" height="230" filterUnits="userSpaceOnUse" color-interpolation-filters="sRGB">
<feFlood flood-opacity="0" result="BackgroundImageFix"/>
<feColorMatrix in="SourceAlpha" type="matrix" values="0 0 0 0 0 0 0 0 0 0 0 0 0 0 0 0 0 0 127 0" result="hardAlpha"/>
<feOffset/>
<feColorMatrix type="matrix" values="0 0 0 0 0.533333 0 0 0 0 0.603922 0 0 0 0 0.803922 0 0 0 0.1 0"/>
<feBlend mode="normal" in2="BackgroundImageFix" result="effect1_dropShadow_0_15600"/>
<feColorMatrix in="SourceAlpha" type="matrix" values="0 0 0 0 0 0 0 0 0 0 0 0 0 0 0 0 0 0 127 0" result="hardAlpha"/>
<feOffset dy="7"/>
<feGaussianBlur stdDeviation="8"/>
<feColorMatrix type="matrix" values="0 0 0 0 0.533333 0 0 0 0 0.603922 0 0 0 0 0.803922 0 0 0 0.1 0"/>
<feBlend mode="normal" in2="effect1_dropShadow_0_15600" result="effect2_dropShadow_0_15600"/>
<feColorMatrix in="SourceAlpha" type="matrix" values="0 0 0 0 0 0 0 0 0 0 0 0 0 0 0 0 0 0 127 0" result="hardAlpha"/>
<feOffset dy="29"/>
<feGaussianBlur stdDeviation="14.5"/>
<feColorMatrix type="matrix" values="0 0 0 0 0.533333 0 0 0 0 0.603922 0 0 0 0 0.803922 0 0 0 0.09 0"/>
<feBlend mode="normal" in2="effect2_dropShadow_0_15600" result="effect3_dropShadow_0_15600"/>
<feColorMatrix in="SourceAlpha" type="matrix" values="0 0 0 0 0 0 0 0 0 0 0 0 0 0 0 0 0 0 127 0" result="hardAlpha"/>
<feOffset dy="65"/>
<feGaussianBlur stdDeviation="19.5"/>
<feColorMatrix type="matrix" values="0 0 0 0 0.533333 0 0 0 0 0.603922 0 0 0 0 0.803922 0 0 0 0.05 0"/>
<feBlend mode="normal" in2="effect3_dropShadow_0_15600" result="effect4_dropShadow_0_15600"/>
<feColorMatrix in="SourceAlpha" type="matrix" values="0 0 0 0 0 0 0 0 0 0 0 0 0 0 0 0 0 0 127 0" result="hardAlpha"/>
<feOffset dy="115"/>
<feGaussianBlur stdDeviation="23"/>
<feColorMatrix type="matrix" values="0 0 0 0 0.533333 0 0 0 0 0.603922 0 0 0 0 0.803922 0 0 0 0.01 0"/>
<feBlend mode="normal" in2="effect4_dropShadow_0_15600" result="effect5_dropShadow_0_15600"/>
<feBlend mode="normal" in="SourceGraphic" in2="effect5_dropShadow_0_15600" result="shape"/>
</filter>
</defs>
</svg>
