<svg width="195" height="151" viewBox="0 0 195 151" fill="none" xmlns="http://www.w3.org/2000/svg">
<g filter="url(#filter0_d_12_23751)">
<path d="M167.695 10H27.3047C19.4044 10 13 14.7595 13 20.6306V124.369C13 130.241 19.4044 135 27.3047 135H167.695C175.596 135 182 130.241 182 124.369V20.6306C182 14.7595 175.596 10 167.695 10Z" fill="white"/>
</g>
<path d="M146.759 57.5061H170.123C171.013 57.5061 171.736 58.2275 171.736 59.1162V65.728C171.736 66.6167 171.013 67.3381 170.123 67.3381H146.759C145.869 67.3381 145.146 66.6167 145.146 65.728V59.1162C145.146 58.2275 145.869 57.5061 146.759 57.5061Z" fill="#007AFF"/>
<path d="M113.743 26.2679H81.5182C80.7108 26.2679 80.0535 25.6139 80.0535 24.8056C80.0535 23.9973 80.7086 23.3433 81.5182 23.3433H113.743C114.55 23.3433 115.207 23.9973 115.207 24.8056C115.207 25.6139 114.552 26.2679 113.743 26.2679Z" fill="#007AFF"/>
<path d="M44.7026 48.0524C45.0356 48.2002 45.2903 48.4131 45.4687 48.689C45.6472 48.965 45.7364 49.2931 45.7364 49.6712C45.7364 50.0492 45.6472 50.373 45.4687 50.6511C45.2903 50.9292 45.0356 51.1422 44.7026 51.2899C44.3696 51.4377 43.9779 51.5115 43.5295 51.5115H42.3586V53.0043H41.3966V47.8286H43.5295C43.9779 47.8286 44.3696 47.9025 44.7026 48.0502V48.0524ZM44.4393 50.4338C44.6569 50.2557 44.7657 50.0036 44.7657 49.6733C44.7657 49.3431 44.6569 49.0888 44.4393 48.9129C44.2216 48.7369 43.9039 48.6456 43.4838 48.6456H42.3586V50.7011H43.4838C43.9039 50.7011 44.2216 50.612 44.4393 50.4338Z" fill="black"/>
<path d="M46.6161 48.2481C46.5029 48.1416 46.4464 48.0113 46.4464 47.8527C46.4464 47.694 46.5029 47.5637 46.6161 47.4572C46.7293 47.3507 46.8708 47.2986 47.0383 47.2986C47.2059 47.2986 47.3474 47.3486 47.4606 47.4507C47.5737 47.5528 47.6303 47.6788 47.6303 47.8309C47.6303 47.9939 47.5759 48.1308 47.4627 48.2416C47.3496 48.3524 47.2103 48.4089 47.0362 48.4089C46.862 48.4089 46.7271 48.3567 46.6139 48.2503L46.6161 48.2481ZM46.5726 49.0586H47.4976V53.0066H46.5726V49.0586Z" fill="black"/>
<path d="M49.4238 52.7999C49.0973 52.6283 48.8427 52.3871 48.662 52.0785C48.4792 51.77 48.3878 51.4224 48.3878 51.0312C48.3878 50.6401 48.4792 50.2947 48.662 49.9883C48.8449 49.6819 49.0973 49.4429 49.4216 49.2713C49.7459 49.0996 50.1137 49.0127 50.5294 49.0127C50.919 49.0127 51.2607 49.0909 51.5545 49.2495C51.8483 49.4081 52.0682 49.6341 52.2183 49.9296L51.5066 50.3446C51.3935 50.1621 51.252 50.0252 51.0801 49.934C50.9081 49.8427 50.7231 49.7971 50.5207 49.7971C50.1747 49.7971 49.8896 49.9101 49.661 50.1339C49.4347 50.3577 49.3193 50.6575 49.3193 51.0334C49.3193 51.4093 49.4325 51.707 49.6567 51.9308C49.8808 52.1546 50.1681 52.2676 50.5185 52.2676C50.721 52.2676 50.9081 52.2219 51.0779 52.1307C51.2477 52.0394 51.3891 51.9025 51.5045 51.72L52.2162 52.135C52.0638 52.4305 51.8396 52.6587 51.5458 52.8195C51.252 52.9803 50.9125 53.0607 50.5273 53.0607C50.1181 53.0607 49.7503 52.9737 49.4238 52.8021V52.7999Z" fill="black"/>
<path d="M54.5917 51.3138L53.904 51.9634V53.0064H52.979V47.52H53.904V50.8314L55.8214 49.0562H56.9314L55.2795 50.7119L57.0859 53.0042H55.9607L54.5896 51.3116L54.5917 51.3138Z" fill="black"/>
<path d="M63.1772 49.4496C63.4775 49.7408 63.6298 50.171 63.6298 50.7425V53.0044H62.7049V50.8598C62.7049 50.5143 62.6243 50.2558 62.4611 50.0798C62.2979 49.9059 62.065 49.8169 61.7646 49.8169C61.4229 49.8169 61.1552 49.919 60.9572 50.1232C60.7591 50.3275 60.6612 50.623 60.6612 51.0076V53.0044H59.7362V49.0564H60.6177V49.567C60.77 49.3845 60.9637 49.2476 61.1944 49.152C61.4273 49.0585 61.6885 49.0107 61.9801 49.0107C62.4785 49.0107 62.879 49.1563 63.1793 49.4475L63.1772 49.4496Z" fill="black"/>
<path d="M70.2453 48.0524C70.5783 48.2002 70.8329 48.4131 71.0114 48.689C71.1898 48.965 71.2791 49.2931 71.2791 49.6712C71.2791 50.0492 71.1898 50.373 71.0114 50.6511C70.8329 50.9292 70.5783 51.1422 70.2453 51.2899C69.9123 51.4377 69.5205 51.5115 69.0722 51.5115H67.9013V53.0043H66.9393V47.8286H69.0722C69.5205 47.8286 69.9123 47.9025 70.2453 48.0502V48.0524ZM69.9819 50.4338C70.1996 50.2557 70.3084 50.0036 70.3084 49.6733C70.3084 49.3431 70.1996 49.0888 69.9819 48.9129C69.7643 48.7369 69.4465 48.6456 69.0265 48.6456H67.9013V50.7011H69.0265C69.4465 50.7011 69.7643 50.612 69.9819 50.4338Z" fill="black"/>
<path d="M74.9648 49.4321C75.2738 49.7102 75.4283 50.1317 75.4283 50.6923V53.0063H74.5534V52.5261C74.4402 52.6978 74.2792 52.8303 74.0681 52.9216C73.8591 53.0129 73.6045 53.0585 73.3085 53.0585C73.0125 53.0585 72.7535 53.0085 72.5315 52.9064C72.3095 52.8064 72.1376 52.6652 72.0179 52.4849C71.896 52.3045 71.8372 52.1024 71.8372 51.8743C71.8372 51.5201 71.97 51.2355 72.2333 51.0204C72.4967 50.8053 72.9124 50.6988 73.4804 50.6988H74.5034V50.6401C74.5034 50.3642 74.4206 50.1513 74.2552 50.0035C74.0898 49.8557 73.8439 49.7819 73.5174 49.7819C73.2954 49.7819 73.0778 49.8166 72.8623 49.8862C72.6469 49.9557 72.4662 50.0513 72.3182 50.1752L71.9547 49.5016C72.1615 49.343 72.4118 49.2235 72.7034 49.1387C72.9951 49.054 73.3041 49.0127 73.6284 49.0127C74.2117 49.0127 74.6557 49.1518 74.9648 49.4299V49.4321ZM74.1203 52.2263C74.3009 52.1198 74.4272 51.9677 74.5012 51.7722V51.3137H73.5457C73.0125 51.3137 72.7448 51.4897 72.7448 51.8395C72.7448 52.0068 72.8123 52.1394 72.945 52.2393C73.0778 52.3371 73.2628 52.3871 73.5 52.3871C73.7372 52.3871 73.9375 52.3349 74.1181 52.2285L74.1203 52.2263Z" fill="black"/>
<path d="M80.2369 49.0586L78.3848 53.3238C78.2129 53.7519 78.0017 54.0539 77.7558 54.2299C77.5077 54.4059 77.2095 54.4928 76.8591 54.4928C76.6611 54.4928 76.4674 54.4602 76.2737 54.3972C76.08 54.3342 75.9233 54.2451 75.7992 54.1299L76.1692 53.4498C76.2584 53.5346 76.3629 53.5998 76.4848 53.6497C76.6067 53.6997 76.7285 53.7236 76.8504 53.7236C77.0136 53.7236 77.1486 53.6823 77.2531 53.5976C77.3597 53.5128 77.4576 53.3738 77.5447 53.1761L77.6122 53.0196L75.8863 49.0564H76.8482L78.0932 51.9767L79.3446 49.0564H80.2326L80.2369 49.0586Z" fill="black"/>
<path d="M82.6607 50.5664H84.6978V51.3356H82.6607V50.5664Z" fill="black"/>
<path d="M91.212 51.809H88.6199L88.1084 53.0062H87.116L89.4491 47.8306H90.398L92.7377 53.0062H91.73L91.212 51.809ZM90.8943 51.055L89.917 48.7931L88.9463 51.055H90.8943Z" fill="black"/>
<path d="M95.6424 52.7914C95.5336 52.8805 95.4008 52.9457 95.2463 52.9913C95.0896 53.0348 94.9264 53.0587 94.7544 53.0587C94.3191 53.0587 93.984 52.9457 93.7467 52.7176C93.5095 52.4894 93.392 52.1613 93.392 51.7268V49.8255H92.7412V49.0868H93.392V48.1851H94.3169V49.0868H95.3769V49.8255H94.3169V51.7028C94.3169 51.8962 94.3648 52.0418 94.4584 52.1418C94.552 52.2439 94.6869 52.2939 94.8654 52.2939C95.0722 52.2939 95.2463 52.2395 95.3834 52.1309L95.6424 52.7893V52.7914Z" fill="black"/>
<path d="M99.8501 49.4497C100.15 49.7409 100.303 50.1711 100.303 50.7425V53.0044H99.3778V50.8599C99.3778 50.5144 99.2973 50.2558 99.134 50.0798C98.9708 49.906 98.7379 49.8169 98.4376 49.8169C98.0959 49.8169 97.8282 49.919 97.6301 50.1233C97.432 50.3275 97.3341 50.623 97.3341 51.0076V53.0044H96.4091V47.5181H97.3341V49.5149C97.4865 49.3519 97.6758 49.2281 97.9 49.1412C98.1242 49.0542 98.3744 49.0108 98.6509 49.0108C99.1493 49.0108 99.5497 49.1564 99.8501 49.4475V49.4497Z" fill="black"/>
<path d="M101.478 47.52H102.403V53.0064H101.478V47.52Z" fill="black"/>
<path d="M104.317 52.7999C103.995 52.6283 103.744 52.3871 103.566 52.0785C103.385 51.77 103.296 51.4224 103.296 51.0312C103.296 50.6401 103.385 50.2947 103.566 49.9883C103.746 49.6819 103.997 49.4429 104.317 49.2713C104.637 49.0996 104.998 49.0127 105.398 49.0127C105.799 49.0127 106.167 49.0996 106.487 49.2713C106.807 49.4451 107.059 49.6841 107.237 49.9883C107.418 50.2947 107.507 50.6423 107.507 51.0312C107.507 51.4202 107.418 51.77 107.237 52.0785C107.057 52.3871 106.807 52.6261 106.487 52.7999C106.165 52.9716 105.803 53.0585 105.398 53.0585C104.994 53.0585 104.639 52.9716 104.317 52.7999ZM106.243 51.9264C106.465 51.7005 106.576 51.4006 106.576 51.0312C106.576 50.6619 106.465 50.3642 106.243 50.136C106.021 49.9101 105.74 49.7949 105.398 49.7949C105.057 49.7949 104.778 49.9079 104.558 50.136C104.338 50.3642 104.23 50.6619 104.23 51.0312C104.23 51.4006 104.341 51.6983 104.558 51.9264C104.776 52.1546 105.059 52.2676 105.398 52.2676C105.738 52.2676 106.021 52.1546 106.243 51.9264Z" fill="black"/>
<path d="M111.84 49.4496C112.141 49.7408 112.293 50.171 112.293 50.7425V53.0044H111.368V50.8598C111.368 50.5143 111.288 50.2558 111.124 50.0798C110.961 49.9059 110.728 49.8169 110.428 49.8169C110.086 49.8169 109.818 49.919 109.62 50.1232C109.422 50.3275 109.324 50.623 109.324 51.0076V53.0044H108.399V49.0564H109.281V49.567C109.433 49.3845 109.627 49.2476 109.858 49.152C110.091 49.0585 110.352 49.0107 110.643 49.0107C111.142 49.0107 111.542 49.1563 111.843 49.4475L111.84 49.4496Z" fill="black"/>
<path d="M117.209 51.3289H114.105C114.16 51.6201 114.301 51.8504 114.532 52.0199C114.76 52.1894 115.046 52.2741 115.387 52.2741C115.823 52.2741 116.179 52.1307 116.46 51.8461L116.956 52.4153C116.778 52.6283 116.554 52.7869 116.282 52.8955C116.01 53.0042 115.705 53.0585 115.363 53.0585C114.928 53.0585 114.545 52.9716 114.216 52.7999C113.888 52.6283 113.631 52.3871 113.45 52.0785C113.27 51.77 113.18 51.4224 113.18 51.0312C113.18 50.6401 113.267 50.3012 113.444 49.9926C113.62 49.6841 113.862 49.4451 114.173 49.2713C114.484 49.0996 114.834 49.0127 115.224 49.0127C115.614 49.0127 115.953 49.0974 116.258 49.2669C116.563 49.4364 116.798 49.6754 116.97 49.9839C117.139 50.2925 117.224 50.6488 117.224 51.053C117.224 51.116 117.22 51.2072 117.209 51.3267V51.3289ZM114.473 50.0165C114.269 50.1925 114.145 50.425 114.099 50.7162H116.343C116.304 50.4294 116.182 50.1991 115.979 50.0209C115.777 49.8427 115.524 49.7536 115.224 49.7536C114.924 49.7536 114.678 49.8405 114.473 50.0165Z" fill="black"/>
<path d="M43.9068 63.7178H41.874L41.4735 64.6587H40.6943L42.5247 60.5977H43.2691L45.106 64.6587H44.3159L43.9089 63.7178H43.9068ZM43.6565 63.1268L42.8904 61.3516L42.1286 63.1268H43.6565Z" fill="#007AFF"/>
<path d="M46.3297 64.4485C45.9989 64.2681 45.7399 64.0204 45.5505 63.7032C45.3634 63.386 45.2698 63.0275 45.2698 62.6298C45.2698 62.2322 45.3634 61.8737 45.5549 61.5565C45.7442 61.2392 46.0054 60.9915 46.3362 60.8112C46.667 60.6308 47.0392 60.5417 47.4484 60.5417C47.7814 60.5417 48.0861 60.6004 48.3603 60.7156C48.6345 60.8307 48.8674 61.0002 49.0568 61.2197L48.5693 61.6781C48.2754 61.3609 47.912 61.2023 47.4832 61.2023C47.2046 61.2023 46.9543 61.2631 46.7345 61.3848C46.5147 61.5065 46.3406 61.676 46.2187 61.8932C46.0968 62.1105 46.0315 62.3561 46.0315 62.6298C46.0315 62.9036 46.0946 63.1491 46.2187 63.3664C46.3428 63.5837 46.5147 63.7532 46.7345 63.8748C46.9543 63.9965 47.2046 64.0574 47.4832 64.0574C47.9141 64.0574 48.2754 63.8966 48.5693 63.575L49.0568 64.04C48.8674 64.2594 48.6324 64.4289 48.356 64.5441C48.0796 64.6592 47.7749 64.7179 47.4419 64.7179C47.0305 64.7179 46.6605 64.6288 46.3297 64.4485Z" fill="#007AFF"/>
<path d="M50.5632 61.2365H49.2159V60.5977H52.6678V61.2365H51.3206V64.6587H50.5653V61.2365H50.5632Z" fill="#007AFF"/>
<path d="M53.238 60.5977H53.9932V64.6587H53.238V60.5977Z" fill="#007AFF"/>
<path d="M58.7843 60.5977L57.0127 64.6587H56.2683L54.4902 60.5977H55.3107L56.6644 63.7309L58.0291 60.5977H58.7843Z" fill="#007AFF"/>
<path d="M62.2592 64.0264V64.6587H59.2079V60.5977H62.1765V61.2299H59.9631V62.2859H61.9263V62.9074H59.9631V64.0264H62.2592Z" fill="#007AFF"/>
<path d="M65.8251 60.5977V64.6587H65.0698V61.2299H64.2101V60.5977H65.8251Z" fill="#007AFF"/>
<path d="M69.5762 64.0204V64.6592H66.5771V64.1551L68.192 62.6233C68.3748 62.4495 68.4967 62.2974 68.562 62.167C68.6251 62.0366 68.6578 61.9085 68.6578 61.7803C68.6578 61.5912 68.5947 61.4456 68.4663 61.3457C68.3378 61.2457 68.1507 61.1958 67.9026 61.1958C67.4869 61.1958 67.1691 61.337 66.9493 61.6195L66.4204 61.2131C66.5793 61.0002 66.7926 60.8351 67.0625 60.7177C67.3323 60.6004 67.6327 60.5417 67.9657 60.5417C68.4075 60.5417 68.7601 60.646 69.0234 60.8546C69.2868 61.0632 69.4174 61.3479 69.4174 61.7064C69.4174 61.9258 69.3717 62.1344 69.2781 62.3278C69.1845 62.5212 69.006 62.7406 68.7427 62.9883L67.6566 64.0204H69.5741H69.5762Z" fill="#007AFF"/>
<path d="M70.1328 62.3535C70.0392 62.2622 69.9935 62.1471 69.9935 62.008C69.9935 61.869 70.0392 61.7495 70.1306 61.6604C70.222 61.5713 70.3352 61.5278 70.4701 61.5278C70.605 61.5278 70.7182 61.5713 70.8096 61.6604C70.901 61.7495 70.9467 61.8646 70.9467 62.008C70.9467 62.1514 70.901 62.2622 70.8075 62.3535C70.7139 62.4448 70.6029 62.4904 70.4701 62.4904C70.3373 62.4904 70.2264 62.4448 70.1328 62.3535ZM70.1328 64.5633C70.0392 64.472 69.9935 64.3568 69.9935 64.2178C69.9935 64.0787 70.0392 63.9592 70.1306 63.8701C70.222 63.781 70.3352 63.7376 70.4701 63.7376C70.605 63.7376 70.7182 63.781 70.8096 63.8701C70.901 63.9592 70.9467 64.0744 70.9467 64.2178C70.9467 64.3612 70.901 64.472 70.8075 64.5633C70.7139 64.6545 70.6029 64.7001 70.4701 64.7001C70.3373 64.7001 70.2264 64.6545 70.1328 64.5633Z" fill="#007AFF"/>
<path d="M72.2539 64.4699C71.9992 64.3048 71.7968 64.0658 71.6488 63.7507C71.5008 63.4357 71.429 63.0619 71.429 62.6274C71.429 62.1928 71.503 61.8191 71.6488 61.504C71.7968 61.189 71.9971 60.95 72.2539 60.7848C72.5085 60.6197 72.8002 60.5393 73.1245 60.5393C73.4487 60.5393 73.7426 60.6219 73.9994 60.7848C74.2562 60.95 74.4586 61.189 74.6066 61.504C74.7546 61.8191 74.8264 62.1928 74.8264 62.6274C74.8264 63.0619 74.7524 63.4357 74.6066 63.7507C74.4586 64.0658 74.2562 64.3048 73.9994 64.4699C73.7426 64.6351 73.4509 64.7155 73.1245 64.7155C72.798 64.7155 72.5085 64.6329 72.2539 64.4699ZM73.8144 63.7008C73.982 63.4617 74.0669 63.1032 74.0669 62.6274C74.0669 62.1515 73.982 61.793 73.8144 61.554C73.6446 61.315 73.4161 61.1955 73.1245 61.1955C72.8328 61.1955 72.6108 61.315 72.4411 61.554C72.2735 61.793 72.1886 62.1515 72.1886 62.6274C72.1886 63.1032 72.2735 63.4617 72.4411 63.7008C72.6108 63.9398 72.8372 64.0593 73.1245 64.0593C73.4118 64.0593 73.6446 63.9398 73.8144 63.7008Z" fill="#007AFF"/>
<path d="M76.1684 64.4699C75.9138 64.3048 75.7114 64.0658 75.5634 63.7507C75.4154 63.4357 75.3436 63.0619 75.3436 62.6274C75.3436 62.1928 75.4176 61.8191 75.5634 61.504C75.7114 61.189 75.9116 60.95 76.1684 60.7848C76.4253 60.6197 76.7147 60.5393 77.0412 60.5393C77.3677 60.5393 77.6571 60.6219 77.9161 60.7848C78.1729 60.95 78.3753 61.189 78.5233 61.504C78.6713 61.8191 78.7432 62.1928 78.7432 62.6274C78.7432 63.0619 78.6692 63.4357 78.5233 63.7507C78.3775 64.0658 78.1729 64.3048 77.9161 64.4699C77.6571 64.6351 77.3677 64.7155 77.0412 64.7155C76.7147 64.7155 76.4253 64.6329 76.1684 64.4699ZM77.7289 63.7008C77.8987 63.4617 77.9814 63.1032 77.9814 62.6274C77.9814 62.1515 77.8965 61.793 77.7289 61.554C77.5614 61.315 77.3307 61.1955 77.0412 61.1955C76.7517 61.1955 76.5275 61.315 76.3578 61.554C76.188 61.793 76.1053 62.1515 76.1053 62.6274C76.1053 63.1032 76.1902 63.4617 76.3578 63.7008C76.5254 63.9398 76.7539 64.0593 77.0412 64.0593C77.3285 64.0593 77.5614 63.9398 77.7289 63.7008Z" fill="#007AFF"/>
<path d="M82.0075 61.7234C82.2447 61.8538 82.4319 62.0406 82.569 62.2796C82.704 62.5186 82.7714 62.7968 82.7714 63.1096C82.7714 63.4225 82.704 63.7006 82.569 63.9418C82.4341 64.183 82.2469 64.3699 82.0075 64.5024C81.7703 64.635 81.4982 64.7001 81.1979 64.7001C80.78 64.7001 80.4492 64.5611 80.2032 64.283V65.7866H79.4763V61.5626H80.1684V61.9689C80.2881 61.8212 80.4361 61.7125 80.6124 61.6386C80.7887 61.5648 80.9846 61.5278 81.1979 61.5278C81.5004 61.5278 81.7703 61.593 82.0075 61.7256V61.7234ZM81.7746 63.8115C81.9466 63.6333 82.0336 63.3986 82.0336 63.1096C82.0336 62.8207 81.9466 62.586 81.7746 62.4078C81.6027 62.2296 81.3829 62.1406 81.1152 62.1406C80.9411 62.1406 80.7844 62.1797 80.6451 62.2601C80.5058 62.3405 80.3948 62.4535 80.3142 62.599C80.2337 62.7468 80.1924 62.9163 80.1924 63.1096C80.1924 63.303 80.2337 63.4725 80.3142 63.6203C80.3948 63.768 80.5058 63.881 80.6451 63.9592C80.7844 64.0374 80.9411 64.0787 81.1152 64.0787C81.3829 64.0787 81.6027 63.9896 81.7746 63.8115Z" fill="#007AFF"/>
<path d="M88.3073 61.8648C88.5358 62.0908 88.6512 62.4298 88.6512 62.8839V64.6591H87.9243V62.9773C87.9243 62.7057 87.8633 62.5036 87.7436 62.3646C87.6239 62.2277 87.452 62.1582 87.2278 62.1582C86.984 62.1582 86.7882 62.2386 86.6402 62.3994C86.4922 62.5601 86.4203 62.7883 86.4203 63.086V64.6591H85.6934V62.9773C85.6934 62.7057 85.6346 62.5036 85.5128 62.3646C85.3931 62.2277 85.2211 62.1582 84.9948 62.1582C84.7467 62.1582 84.5508 62.2364 84.405 62.395C84.2591 62.5536 84.1873 62.7839 84.1873 63.086V64.6591H83.4604V61.5606H84.1525V61.9561C84.2678 61.817 84.4137 61.7106 84.5878 61.6367C84.7619 61.5628 84.9556 61.5259 85.1689 61.5259C85.4018 61.5259 85.6064 61.5693 85.787 61.6562C85.9676 61.7432 86.1091 61.8714 86.2136 62.043C86.342 61.88 86.5052 61.754 86.7076 61.6628C86.91 61.5715 87.132 61.5259 87.3758 61.5259C87.7676 61.5259 88.0766 61.6389 88.3051 61.8648H88.3073Z" fill="#007AFF"/>
<path d="M153.625 64.0204V64.6592H150.626V64.1551L152.24 62.6233C152.423 62.4495 152.545 62.2974 152.61 62.167C152.676 62.0366 152.706 61.9085 152.706 61.7803C152.706 61.5912 152.643 61.4456 152.515 61.3457C152.386 61.2457 152.199 61.1958 151.951 61.1958C151.535 61.1958 151.22 61.337 150.998 61.6195L150.469 61.2131C150.628 61.0002 150.841 60.8351 151.111 60.7177C151.381 60.6004 151.681 60.5417 152.014 60.5417C152.456 60.5417 152.809 60.646 153.072 60.8546C153.335 61.0632 153.468 61.3479 153.468 61.7064C153.468 61.9258 153.422 62.1344 153.329 62.3278C153.235 62.5212 153.057 62.7406 152.793 62.9883L151.707 64.0204H153.625Z" fill="white"/>
<path d="M157.005 64.0204V64.6592H154.006V64.1551L155.621 62.6233C155.803 62.4495 155.925 62.2974 155.991 62.167C156.056 62.0366 156.086 61.9085 156.086 61.7803C156.086 61.5912 156.023 61.4456 155.895 61.3457C155.766 61.2457 155.579 61.1958 155.331 61.1958C154.916 61.1958 154.6 61.337 154.378 61.6195L153.849 61.2131C154.008 61.0002 154.221 60.8351 154.491 60.7177C154.761 60.6004 155.061 60.5417 155.394 60.5417C155.836 60.5417 156.189 60.646 156.452 60.8546C156.715 61.0632 156.848 61.3479 156.848 61.7064C156.848 61.9258 156.802 62.1344 156.709 62.3278C156.615 62.5212 156.437 62.7406 156.173 62.9883L155.087 64.0204H157.005Z" fill="white"/>
<path d="M159.131 62.96L158.487 63.6205V64.6591H157.732V60.5981H158.487V62.6797L160.498 60.5981H161.347L159.639 62.4146L161.452 64.6591H160.568L159.131 62.96Z" fill="white"/>
<path d="M165.706 64.6591L165.699 61.967L164.363 64.1942H164.026L162.689 62.0018V64.6591H161.969V60.5981H162.592L164.206 63.2903L165.793 60.5981H166.416L166.422 64.6591H165.708H165.706Z" fill="white"/>
<path d="M41.1253 74.111C40.9381 74.0458 40.7945 73.961 40.6943 73.8546L40.8075 73.6329C40.9055 73.7307 41.0382 73.8111 41.2014 73.872C41.3647 73.9328 41.5344 73.9632 41.7086 73.9632C41.9523 73.9632 42.1373 73.9176 42.2592 73.8285C42.3811 73.7394 42.442 73.6221 42.442 73.4787C42.442 73.37 42.4094 73.2831 42.3419 73.2179C42.2744 73.1528 42.1939 73.1028 42.0981 73.068C42.0024 73.0333 41.8674 72.9941 41.6955 72.9529C41.4909 72.9007 41.3255 72.8507 41.2036 72.8029C41.0817 72.7551 40.9773 72.6813 40.8902 72.5835C40.8032 72.4835 40.7596 72.351 40.7596 72.1815C40.7596 72.0446 40.7966 71.9186 40.8685 71.8056C40.9403 71.6926 41.0534 71.6014 41.2036 71.534C41.3538 71.4667 41.5431 71.4319 41.7651 71.4319C41.9218 71.4319 42.0742 71.4536 42.2244 71.4971C42.3745 71.5405 42.503 71.5992 42.614 71.6752L42.516 71.9056C42.4007 71.8295 42.2788 71.773 42.1482 71.7361C42.0176 71.6991 41.8914 71.6796 41.7651 71.6796C41.5257 71.6796 41.3451 71.7252 41.2232 71.8186C41.1013 71.9121 41.0426 72.0294 41.0426 72.175C41.0426 72.2836 41.0752 72.3727 41.1427 72.4379C41.208 72.5053 41.2929 72.5552 41.393 72.59C41.4931 72.6248 41.628 72.6639 41.7978 72.7052C41.998 72.7551 42.1613 72.8029 42.2831 72.8507C42.4072 72.8985 42.5117 72.9724 42.5965 73.068C42.6814 73.1658 42.725 73.2983 42.725 73.4635C42.725 73.6004 42.688 73.7264 42.614 73.8394C42.54 73.9524 42.4246 74.0414 42.2723 74.1088C42.1177 74.1762 41.9305 74.2087 41.7064 74.2087C41.504 74.2087 41.3081 74.1762 41.1231 74.111H41.1253Z" fill="black"/>
<path d="M45.1463 72.1335V74.1847H44.8807V73.811C44.8067 73.9348 44.7066 74.0326 44.5804 74.1021C44.452 74.1716 44.3062 74.2064 44.1429 74.2064C43.8752 74.2064 43.6641 74.1325 43.5074 73.9826C43.3529 73.8327 43.2745 73.6132 43.2745 73.3264V72.1379H43.5509V73.3003C43.5509 73.5155 43.6032 73.6806 43.712 73.7914C43.8186 73.9022 43.971 73.9587 44.1691 73.9587C44.3845 73.9587 44.5565 73.8935 44.6805 73.761C44.8046 73.6306 44.8677 73.4481 44.8677 73.2134V72.1379H45.1441L45.1463 72.1335Z" fill="black"/>
<path d="M46.4834 72.2229C46.6118 72.1534 46.7707 72.1187 46.9622 72.1187V72.3881L46.8969 72.3837C46.6815 72.3837 46.5117 72.4489 46.3898 72.5815C46.268 72.714 46.207 72.9009 46.207 73.1399V74.185H45.9306V72.1339H46.1961V72.5358C46.2614 72.3989 46.3572 72.2947 46.4878 72.2229H46.4834Z" fill="black"/>
<path d="M49.2728 72.1335L48.3587 74.1847H48.0736L47.1638 72.1335H47.4533L48.2216 73.8805L48.9986 72.1335H49.2728Z" fill="black"/>
<path d="M51.3983 73.2442H49.681C49.6963 73.4571 49.779 73.6288 49.927 73.7613C50.075 73.8917 50.2622 73.9591 50.4885 73.9591C50.6169 73.9591 50.7323 73.9352 50.8411 73.8917C50.9477 73.8461 51.0391 73.7787 51.1175 73.6918L51.2742 73.8721C51.1828 73.9808 51.0696 74.0655 50.9325 74.122C50.7954 74.1785 50.6452 74.2068 50.482 74.2068C50.2709 74.2068 50.0837 74.1611 49.9205 74.072C49.7572 73.9829 49.631 73.8591 49.5396 73.7005C49.4482 73.5419 49.4025 73.3637 49.4025 73.1616C49.4025 72.9596 49.446 72.7814 49.5331 72.6228C49.6201 72.4642 49.7398 72.3403 49.8922 72.2534C50.0445 72.1665 50.2165 72.1208 50.4058 72.1208C50.5952 72.1208 50.7671 72.1643 50.9173 72.2534C51.0674 72.3425 51.1871 72.4642 51.272 72.6228C51.3569 72.7792 51.4004 72.9596 51.4004 73.1616L51.3961 73.2464L51.3983 73.2442ZM49.9096 72.5445C49.7746 72.6706 49.6985 72.8357 49.681 73.0378H51.1371C51.1197 72.8357 51.0435 72.6706 50.9086 72.5445C50.7736 72.4185 50.6082 72.3555 50.4058 72.3555C50.2034 72.3555 50.0423 72.4185 49.9074 72.5445H49.9096Z" fill="black"/>
<path d="M53.6574 72.1335L52.6301 74.4302C52.5474 74.6236 52.4495 74.7583 52.3406 74.8387C52.2318 74.9191 52.0991 74.9604 51.9467 74.9604C51.8488 74.9604 51.7552 74.9452 51.6703 74.9147C51.5854 74.8843 51.5092 74.8365 51.4483 74.7735L51.5767 74.5671C51.6812 74.6714 51.8052 74.7235 51.9511 74.7235C52.0446 74.7235 52.1252 74.6975 52.1905 74.6453C52.2558 74.5932 52.3189 74.5041 52.3755 74.3802L52.4647 74.1825L51.5462 72.1357H51.8357L52.6083 73.8783L53.381 72.1357H53.6552L53.6574 72.1335Z" fill="black"/>
<path d="M54.0914 74.1329C53.939 74.0851 53.8193 74.0242 53.7344 73.9525L53.8585 73.7353C53.9456 73.8026 54.0522 73.8569 54.1828 73.9004C54.3134 73.9438 54.4483 73.9656 54.5898 73.9656C54.777 73.9656 54.9162 73.9352 55.0055 73.8787C55.0947 73.82 55.1404 73.7374 55.1404 73.631C55.1404 73.5549 55.1165 73.4962 55.0664 73.4528C55.0164 73.4093 54.9532 73.3767 54.8792 73.355C54.8052 73.3333 54.703 73.3116 54.5789 73.2898C54.4113 73.2594 54.2785 73.2268 54.1763 73.1942C54.074 73.1616 53.9891 73.1073 53.9173 73.0291C53.8454 72.9509 53.8106 72.8422 53.8106 72.7053C53.8106 72.5337 53.8824 72.3925 54.0261 72.2838C54.1697 72.1752 54.3678 72.1208 54.6224 72.1208C54.7552 72.1208 54.8879 72.1382 55.0207 72.173C55.1535 72.2078 55.2623 72.2534 55.3494 72.3121L55.2275 72.5337C55.0577 72.4164 54.8575 72.3577 54.6224 72.3577C54.4461 72.3577 54.3112 72.3881 54.222 72.4511C54.1327 72.5141 54.087 72.5945 54.087 72.6966C54.087 72.7749 54.1131 72.8379 54.1632 72.8835C54.2133 72.9291 54.2764 72.9639 54.3525 72.9878C54.4287 73.0095 54.5332 73.0334 54.666 73.0552C54.8292 73.0856 54.9619 73.1182 55.0599 73.1486C55.1578 73.179 55.2427 73.2333 55.3145 73.3094C55.3842 73.3854 55.419 73.4897 55.419 73.6223C55.419 73.8026 55.345 73.9438 55.1948 74.0503C55.0447 74.1568 54.8379 74.2089 54.5724 74.2089C54.4048 74.2089 54.2459 74.185 54.0935 74.1372L54.0914 74.1329Z" fill="black"/>
<path d="M61.7886 74.0589C61.6166 73.9481 61.4817 73.7873 61.3816 73.5744C61.2815 73.3614 61.2336 73.1116 61.2336 72.8204C61.2336 72.5293 61.2836 72.2772 61.3816 72.0664C61.4795 71.8557 61.6166 71.6927 61.7886 71.5841C61.9605 71.4733 62.1564 71.4189 62.374 71.4189C62.5917 71.4189 62.7897 71.4733 62.9617 71.5841C63.1336 71.6949 63.2707 71.8557 63.3708 72.0664C63.4688 72.2794 63.5188 72.5293 63.5188 72.8204C63.5188 73.1116 63.4688 73.3636 63.3708 73.5744C63.2707 73.7851 63.1358 73.9481 62.9617 74.0589C62.7876 74.1697 62.5917 74.2241 62.374 74.2241C62.1564 74.2241 61.9605 74.1697 61.7886 74.0589ZM62.8376 73.5418C62.9508 73.381 63.0074 73.1398 63.0074 72.8204C63.0074 72.501 62.9508 72.2598 62.8376 72.099C62.7244 71.9382 62.5699 71.8579 62.374 71.8579C62.1782 71.8579 62.028 71.9382 61.9148 72.099C61.8016 72.2598 61.745 72.501 61.745 72.8204C61.745 73.1398 61.8016 73.381 61.9148 73.5418C62.028 73.7026 62.1803 73.783 62.374 73.783C62.5677 73.783 62.7244 73.7026 62.8376 73.5418Z" fill="#007AFF"/>
<path d="M64.7828 70.9016H65.2203L63.9319 74.5737H63.4944L64.7828 70.9016Z" fill="#007AFF"/>
<path d="M67.2374 73.0133C67.3135 73.1241 67.3527 73.2523 67.3527 73.4C67.3527 73.5673 67.307 73.7129 67.2134 73.8368C67.122 73.9606 66.9892 74.0562 66.8217 74.1236C66.6541 74.1909 66.456 74.2235 66.2319 74.2235C66.0077 74.2235 65.8118 74.1909 65.6442 74.1236C65.4766 74.0584 65.346 73.9628 65.2568 73.8368C65.1654 73.7129 65.1197 73.5673 65.1197 73.4C65.1197 73.2523 65.1567 73.1219 65.2329 73.0133C65.309 72.9025 65.4157 72.8156 65.5572 72.7504C65.4483 72.6917 65.3635 72.6113 65.3047 72.5135C65.2459 72.4158 65.2176 72.3028 65.2176 72.1767C65.2176 72.0225 65.259 71.8899 65.3439 71.7748C65.4287 71.6596 65.5485 71.5727 65.7008 71.5097C65.8532 71.4467 66.0316 71.4163 66.2319 71.4163C66.4321 71.4163 66.6127 71.4467 66.7673 71.5097C66.9218 71.5727 67.0415 71.6596 67.1264 71.7748C67.2112 71.8899 67.2548 72.0225 67.2548 72.1767C67.2548 72.3049 67.2243 72.4158 67.1655 72.5114C67.1068 72.607 67.0197 72.6874 66.9087 72.7482C67.0524 72.8134 67.1612 72.9003 67.2395 73.0111L67.2374 73.0133ZM66.678 73.7086C66.7868 73.6304 66.8413 73.5217 66.8413 73.3848C66.8413 73.2479 66.7868 73.1436 66.678 73.0654C66.5692 72.9872 66.4212 72.9481 66.2319 72.9481C66.0425 72.9481 65.8967 72.9872 65.79 73.0654C65.6834 73.1436 65.629 73.2501 65.629 73.3848C65.629 73.5195 65.6812 73.6304 65.79 73.7086C65.8989 73.7868 66.0447 73.8259 66.2319 73.8259C66.419 73.8259 66.567 73.7868 66.678 73.7086ZM65.8553 71.916C65.7639 71.9834 65.716 72.079 65.716 72.2006C65.716 72.3223 65.7617 72.4114 65.8553 72.4788C65.9467 72.5483 66.073 72.5831 66.2319 72.5831C66.3907 72.5831 66.5213 72.5483 66.6149 72.4788C66.7085 72.4092 66.7564 72.318 66.7564 72.2006C66.7564 72.0833 66.7085 71.9834 66.6149 71.916C66.5191 71.8486 66.3929 71.8139 66.234 71.8139C66.0751 71.8139 65.9489 71.8486 65.8575 71.916H65.8553Z" fill="#007AFF"/>
<path d="M81.8239 71.7059H80.8641V71.4561H83.0753V71.7059H82.1155V74.1851H81.8261V71.7059H81.8239Z" fill="black"/>
<path d="M84.6984 72.3183C84.842 72.453 84.9138 72.6508 84.9138 72.9137V74.1848H84.6483V73.8654C84.5852 73.9718 84.4938 74.0544 84.3741 74.1153C84.2522 74.1761 84.1086 74.2043 83.9432 74.2043C83.7146 74.2043 83.5318 74.15 83.3969 74.0414C83.2619 73.9327 83.1945 73.7872 83.1945 73.609C83.1945 73.4308 83.2576 73.2939 83.3838 73.1875C83.51 73.081 83.7103 73.0267 83.9867 73.0267H84.6396V72.9028C84.6396 72.7268 84.5896 72.5921 84.4916 72.4987C84.3937 72.4074 84.2479 72.3596 84.0585 72.3596C83.9279 72.3596 83.8039 72.3813 83.6842 72.4248C83.5645 72.4683 83.4622 72.5269 83.3751 72.603L83.251 72.3966C83.3555 72.3075 83.4796 72.2401 83.6254 72.1923C83.7712 72.1445 83.9236 72.1206 84.0868 72.1206C84.3545 72.1206 84.5613 72.188 84.7027 72.3205L84.6984 72.3183ZM84.385 73.8784C84.4981 73.8067 84.5808 73.7046 84.6353 73.5677V73.2331H83.991C83.6406 73.2331 83.4643 73.3548 83.4643 73.6003C83.4643 73.7198 83.51 73.8132 83.6015 73.8828C83.6929 73.9523 83.8191 73.9871 83.9845 73.9871C84.1499 73.9871 84.274 73.9523 84.3871 73.8806L84.385 73.8784Z" fill="black"/>
<path d="M85.7395 74.1326C85.5871 74.0848 85.4674 74.024 85.3826 73.9523L85.5066 73.735C85.5937 73.8024 85.7003 73.8567 85.8309 73.9001C85.9615 73.9436 86.0964 73.9653 86.2379 73.9653C86.4251 73.9653 86.5644 73.9349 86.6536 73.8784C86.7428 73.8197 86.7885 73.7372 86.7885 73.6307C86.7885 73.5547 86.7646 73.496 86.7145 73.4525C86.6645 73.4091 86.6014 73.3765 86.5274 73.3548C86.4534 73.333 86.3511 73.3113 86.227 73.2896C86.0594 73.2592 85.9267 73.2266 85.8244 73.194C85.7221 73.1614 85.6372 73.1071 85.5654 73.0288C85.4936 72.9506 85.4587 72.842 85.4587 72.7051C85.4587 72.5334 85.5306 72.3922 85.6742 72.2836C85.8179 72.1749 86.0159 72.1206 86.2706 72.1206C86.4033 72.1206 86.5361 72.138 86.6688 72.1728C86.8016 72.2075 86.9104 72.2531 86.9975 72.3118L86.8756 72.5334C86.7058 72.4161 86.5056 72.3574 86.2706 72.3574C86.0943 72.3574 85.9593 72.3879 85.8701 72.4509C85.7809 72.5139 85.7351 72.5943 85.7351 72.6964C85.7351 72.7746 85.7613 72.8376 85.8113 72.8833C85.8614 72.9289 85.9245 72.9637 86.0007 72.9876C86.0769 73.0093 86.1813 73.0332 86.3141 73.0549C86.4773 73.0853 86.6101 73.1179 86.708 73.1483C86.806 73.1788 86.8908 73.2331 86.9627 73.3091C87.0323 73.3852 87.0671 73.4895 87.0671 73.622C87.0671 73.8024 86.9931 73.9436 86.843 74.0501C86.6928 74.1565 86.486 74.2087 86.2205 74.2087C86.0529 74.2087 85.894 74.1848 85.7417 74.137L85.7395 74.1326Z" fill="black"/>
<path d="M88.3397 73.1548L87.8565 73.5981V74.1825H87.5801V71.2905H87.8565V73.2526L89.0819 72.1336H89.4258L88.5465 72.9723L89.5063 74.1847H89.1668L88.3397 73.1548Z" fill="black"/>
<path d="M89.9355 74.1326C89.7831 74.0848 89.6634 74.024 89.5786 73.9523L89.7026 73.735C89.7897 73.8024 89.8963 73.8567 90.0269 73.9001C90.1575 73.9436 90.2924 73.9653 90.4339 73.9653C90.6211 73.9653 90.7604 73.9349 90.8496 73.8784C90.9388 73.8197 90.9845 73.7372 90.9845 73.6307C90.9845 73.5547 90.9606 73.496 90.9105 73.4525C90.8605 73.4091 90.7974 73.3765 90.7234 73.3548C90.6494 73.333 90.5471 73.3113 90.423 73.2896C90.2554 73.2592 90.1227 73.2266 90.0204 73.194C89.9181 73.1614 89.8332 73.1071 89.7614 73.0288C89.6895 72.9506 89.6547 72.842 89.6547 72.7051C89.6547 72.5334 89.7265 72.3922 89.8702 72.2836C90.0138 72.1749 90.2119 72.1206 90.4665 72.1206C90.5993 72.1206 90.7321 72.138 90.8648 72.1728C90.9976 72.2075 91.1064 72.2531 91.1935 72.3118L91.0716 72.5334C90.9018 72.4161 90.7016 72.3574 90.4665 72.3574C90.2902 72.3574 90.1553 72.3879 90.0661 72.4509C89.9768 72.5139 89.9311 72.5943 89.9311 72.6964C89.9311 72.7746 89.9573 72.8376 90.0073 72.8833C90.0574 72.9289 90.1205 72.9637 90.1967 72.9876C90.2728 73.0093 90.3773 73.0332 90.5101 73.0549C90.6733 73.0853 90.8061 73.1179 90.904 73.1483C91.0019 73.1788 91.0868 73.2331 91.1586 73.3091C91.2283 73.3852 91.2631 73.4895 91.2631 73.622C91.2631 73.8024 91.1891 73.9436 91.0389 74.0501C90.8888 74.1565 90.682 74.2087 90.4165 74.2087C90.2489 74.2087 90.09 74.1848 89.9377 74.137L89.9355 74.1326Z" fill="black"/>
<path d="M98.3617 74.0592C98.1898 73.9483 98.0548 73.7876 97.9547 73.5746C97.8546 73.3617 97.8067 73.1118 97.8067 72.8207C97.8067 72.5295 97.8568 72.2775 97.9547 72.0667C98.0526 71.8559 98.1898 71.693 98.3617 71.5843C98.5336 71.4735 98.7295 71.4192 98.9472 71.4192C99.1648 71.4192 99.3629 71.4735 99.5348 71.5843C99.7067 71.6951 99.8438 71.8559 99.944 72.0667C100.042 72.2796 100.092 72.5295 100.092 72.8207C100.092 73.1118 100.042 73.3639 99.944 73.5746C99.8438 73.7854 99.7089 73.9483 99.5348 74.0592C99.3607 74.17 99.1648 74.2243 98.9472 74.2243C98.7295 74.2243 98.5336 74.17 98.3617 74.0592ZM99.4107 73.542C99.5239 73.3812 99.5805 73.1401 99.5805 72.8207C99.5805 72.5013 99.5239 72.2601 99.4107 72.0993C99.2976 71.9385 99.143 71.8581 98.9472 71.8581C98.7513 71.8581 98.6011 71.9385 98.4879 72.0993C98.3748 72.2601 98.3182 72.5013 98.3182 72.8207C98.3182 73.1401 98.3748 73.3812 98.4879 73.542C98.6011 73.7028 98.7534 73.7832 98.9472 73.7832C99.1409 73.7832 99.2976 73.7028 99.4107 73.542Z" fill="#007AFF"/>
<path d="M101.359 70.9016H101.797L100.508 74.5737H100.071L101.359 70.9016Z" fill="#007AFF"/>
<path d="M103.81 73.0133C103.887 73.1241 103.926 73.2523 103.926 73.4C103.926 73.5673 103.88 73.7129 103.787 73.8368C103.695 73.9606 103.562 74.0562 103.395 74.1236C103.227 74.1909 103.029 74.2235 102.805 74.2235C102.581 74.2235 102.385 74.1909 102.217 74.1236C102.05 74.0584 101.919 73.9628 101.83 73.8368C101.739 73.7129 101.693 73.5673 101.693 73.4C101.693 73.2523 101.73 73.1219 101.806 73.0133C101.882 72.9025 101.989 72.8156 102.13 72.7504C102.021 72.6917 101.937 72.6113 101.878 72.5135C101.819 72.4158 101.791 72.3028 101.791 72.1767C101.791 72.0225 101.832 71.8899 101.917 71.7748C102.002 71.6596 102.122 71.5727 102.274 71.5097C102.426 71.4467 102.605 71.4163 102.805 71.4163C103.005 71.4163 103.186 71.4467 103.34 71.5097C103.495 71.5727 103.615 71.6596 103.699 71.7748C103.784 71.8899 103.828 72.0225 103.828 72.1767C103.828 72.3049 103.797 72.4158 103.739 72.5114C103.68 72.607 103.593 72.6874 103.482 72.7482C103.625 72.8134 103.734 72.9003 103.813 73.0111L103.81 73.0133ZM103.251 73.7086C103.36 73.6304 103.414 73.5217 103.414 73.3848C103.414 73.2479 103.36 73.1436 103.251 73.0654C103.142 72.9872 102.994 72.9481 102.805 72.9481C102.616 72.9481 102.47 72.9872 102.363 73.0654C102.257 73.1436 102.202 73.2501 102.202 73.3848C102.202 73.5195 102.254 73.6304 102.363 73.7086C102.472 73.7868 102.618 73.8259 102.805 73.8259C102.992 73.8259 103.14 73.7868 103.251 73.7086ZM102.428 71.916C102.337 71.9834 102.289 72.079 102.289 72.2006C102.289 72.3223 102.335 72.4114 102.428 72.4788C102.52 72.5483 102.646 72.5831 102.805 72.5831C102.964 72.5831 103.094 72.5483 103.188 72.4788C103.282 72.4092 103.329 72.318 103.329 72.2006C103.329 72.0833 103.282 71.9834 103.188 71.916C103.092 71.8486 102.966 71.8139 102.807 71.8139C102.648 71.8139 102.522 71.8486 102.431 71.916H102.428Z" fill="#007AFF"/>
<path d="M115.732 74.1115C115.545 74.0463 115.401 73.9615 115.301 73.8551L115.415 73.6334C115.512 73.7312 115.645 73.8116 115.808 73.8724C115.972 73.9333 116.141 73.9637 116.316 73.9637C116.559 73.9637 116.744 73.9181 116.866 73.829C116.988 73.7399 117.049 73.6226 117.049 73.4792C117.049 73.3705 117.016 73.2836 116.949 73.2184C116.881 73.1532 116.801 73.1033 116.705 73.0685C116.609 73.0337 116.474 72.9946 116.302 72.9533C116.098 72.9012 115.932 72.8512 115.811 72.8034C115.689 72.7556 115.584 72.6817 115.497 72.584C115.41 72.484 115.367 72.3515 115.367 72.182C115.367 72.0451 115.404 71.9191 115.475 71.8061C115.547 71.6931 115.66 71.6019 115.811 71.5345C115.961 71.4671 116.15 71.4324 116.372 71.4324C116.529 71.4324 116.681 71.4541 116.831 71.4976C116.982 71.541 117.11 71.5997 117.221 71.6757L117.123 71.9061C117.008 71.83 116.886 71.7735 116.755 71.7366C116.625 71.6996 116.498 71.6801 116.372 71.6801C116.133 71.6801 115.952 71.7257 115.83 71.8191C115.708 71.9126 115.65 72.0299 115.65 72.1755C115.65 72.2841 115.682 72.3732 115.75 72.4384C115.815 72.5057 115.9 72.5557 116 72.5905C116.1 72.6253 116.235 72.6644 116.405 72.7056C116.605 72.7556 116.768 72.8034 116.89 72.8512C117.014 72.899 117.119 72.9729 117.204 73.0685C117.288 73.1663 117.332 73.2988 117.332 73.464C117.332 73.6008 117.295 73.7269 117.221 73.8399C117.147 73.9528 117.032 74.0419 116.879 74.1093C116.725 74.1766 116.538 74.2092 116.313 74.2092C116.111 74.2092 115.915 74.1766 115.73 74.1115H115.732Z" fill="black"/>
<path d="M119.24 72.3191C119.384 72.4538 119.455 72.6515 119.455 72.9144V74.1855H119.19V73.8661C119.127 73.9726 119.035 74.0551 118.916 74.116C118.794 74.1768 118.65 74.2051 118.485 74.2051C118.256 74.2051 118.073 74.1507 117.938 74.0421C117.804 73.9335 117.736 73.7879 117.736 73.6097C117.736 73.4315 117.799 73.2947 117.925 73.1882C118.052 73.0817 118.252 73.0274 118.528 73.0274H119.181V72.9036C119.181 72.7276 119.131 72.5928 119.033 72.4994C118.935 72.4081 118.789 72.3603 118.6 72.3603C118.47 72.3603 118.345 72.3821 118.226 72.4255C118.106 72.469 118.004 72.5277 117.917 72.6037L117.793 72.3973C117.897 72.3082 118.021 72.2408 118.167 72.193C118.313 72.1452 118.465 72.1213 118.628 72.1213C118.896 72.1213 119.103 72.1887 119.244 72.3212L119.24 72.3191ZM118.927 73.8791C119.04 73.8074 119.122 73.7053 119.177 73.5684V73.2338H118.533C118.182 73.2338 118.006 73.3555 118.006 73.601C118.006 73.7205 118.052 73.814 118.143 73.8835C118.234 73.953 118.361 73.9878 118.526 73.9878C118.692 73.9878 118.816 73.953 118.929 73.8813L118.927 73.8791Z" fill="black"/>
<path d="M120.209 71.2932H120.485V74.1852H120.209V71.2932Z" fill="black"/>
<path d="M123.046 73.2447H121.328C121.344 73.4576 121.426 73.6293 121.574 73.7618C121.722 73.8922 121.91 73.9595 122.136 73.9595C122.264 73.9595 122.38 73.9356 122.488 73.8922C122.595 73.8466 122.687 73.7792 122.765 73.6923L122.922 73.8726C122.83 73.9813 122.717 74.066 122.58 74.1225C122.443 74.179 122.293 74.2072 122.129 74.2072C121.918 74.2072 121.731 74.1616 121.568 74.0725C121.405 73.9834 121.278 73.8596 121.187 73.701C121.096 73.5424 121.05 73.3642 121.05 73.1621C121.05 72.96 121.093 72.7819 121.18 72.6233C121.268 72.4646 121.387 72.3408 121.54 72.2539C121.692 72.167 121.864 72.1213 122.053 72.1213C122.243 72.1213 122.414 72.1648 122.565 72.2539C122.715 72.343 122.835 72.4646 122.919 72.6233C123.004 72.7797 123.048 72.96 123.048 73.1621L123.043 73.2469L123.046 73.2447ZM121.557 72.545C121.422 72.6711 121.346 72.8362 121.328 73.0383H122.784C122.767 72.8362 122.691 72.6711 122.556 72.545C122.421 72.419 122.256 72.356 122.053 72.356C121.851 72.356 121.69 72.419 121.555 72.545H121.557Z" fill="black"/>
<path d="M123.69 74.1334C123.537 74.0856 123.418 74.0247 123.333 73.953L123.457 73.7357C123.544 73.8031 123.651 73.8574 123.781 73.9009C123.912 73.9443 124.047 73.9661 124.188 73.9661C124.375 73.9661 124.515 73.9356 124.604 73.8791C124.693 73.8205 124.739 73.7379 124.739 73.6314C124.739 73.5554 124.715 73.4967 124.665 73.4533C124.615 73.4098 124.552 73.3772 124.478 73.3555C124.404 73.3338 124.301 73.312 124.177 73.2903C124.01 73.2599 123.877 73.2273 123.775 73.1947C123.672 73.1621 123.587 73.1078 123.516 73.0296C123.444 72.9514 123.409 72.8427 123.409 72.7058C123.409 72.5342 123.481 72.3929 123.624 72.2843C123.768 72.1757 123.966 72.1213 124.221 72.1213C124.354 72.1213 124.486 72.1387 124.619 72.1735C124.752 72.2082 124.861 72.2539 124.948 72.3125L124.826 72.5342C124.656 72.4168 124.456 72.3582 124.221 72.3582C124.045 72.3582 123.91 72.3886 123.82 72.4516C123.731 72.5146 123.685 72.595 123.685 72.6971C123.685 72.7754 123.712 72.8384 123.762 72.884C123.812 72.9296 123.875 72.9644 123.951 72.9883C124.027 73.01 124.132 73.0339 124.264 73.0556C124.428 73.0861 124.56 73.1187 124.658 73.1491C124.756 73.1795 124.841 73.2338 124.913 73.3099C124.983 73.3859 125.017 73.4902 125.017 73.6228C125.017 73.8031 124.943 73.9443 124.793 74.0508C124.643 74.1573 124.436 74.2094 124.171 74.2094C124.003 74.2094 123.844 74.1855 123.692 74.1377L123.69 74.1334Z" fill="black"/>
<path d="M132.634 64.0592C132.462 63.9483 132.327 63.7876 132.227 63.5746C132.127 63.3617 132.079 63.1118 132.079 62.8207C132.079 62.5295 132.129 62.2775 132.227 62.0667C132.325 61.8559 132.462 61.693 132.634 61.5843C132.806 61.4735 133.002 61.4192 133.22 61.4192C133.437 61.4192 133.635 61.4735 133.807 61.5843C133.979 61.6951 134.116 61.8559 134.216 62.0667C134.314 62.2796 134.364 62.5295 134.364 62.8207C134.364 63.1118 134.314 63.3639 134.216 63.5746C134.116 63.7854 133.981 63.9483 133.807 64.0592C133.633 64.17 133.437 64.2243 133.22 64.2243C133.002 64.2243 132.806 64.17 132.634 64.0592ZM133.683 63.542C133.796 63.3812 133.853 63.1401 133.853 62.8207C133.853 62.5013 133.796 62.2601 133.683 62.0993C133.57 61.9385 133.415 61.8581 133.22 61.8581C133.024 61.8581 132.874 61.9385 132.76 62.0993C132.647 62.2601 132.591 62.5013 132.591 62.8207C132.591 63.1401 132.647 63.3812 132.76 63.542C132.874 63.7028 133.026 63.7832 133.22 63.7832C133.413 63.7832 133.57 63.7028 133.683 63.542Z" fill="#007AFF"/>
<path d="M135.628 60.9016H136.066L134.777 64.5737H134.34L135.628 60.9016Z" fill="#007AFF"/>
<path d="M138.083 63.0133C138.159 63.1241 138.198 63.2523 138.198 63.4C138.198 63.5673 138.153 63.7129 138.059 63.8368C137.968 63.9606 137.835 64.0562 137.667 64.1236C137.5 64.1909 137.302 64.2235 137.077 64.2235C136.853 64.2235 136.657 64.1909 136.49 64.1236C136.322 64.0584 136.192 63.9628 136.102 63.8368C136.011 63.7129 135.965 63.5673 135.965 63.4C135.965 63.2523 136.002 63.1219 136.078 63.0133C136.155 62.9025 136.261 62.8156 136.403 62.7504C136.294 62.6917 136.209 62.6113 136.15 62.5135C136.092 62.4158 136.063 62.3028 136.063 62.1767C136.063 62.0225 136.105 61.8899 136.189 61.7748C136.274 61.6596 136.394 61.5727 136.546 61.5097C136.699 61.4467 136.877 61.4163 137.077 61.4163C137.278 61.4163 137.458 61.4467 137.613 61.5097C137.767 61.5727 137.887 61.6596 137.972 61.7748C138.057 61.8899 138.1 62.0225 138.1 62.1767C138.1 62.3049 138.07 62.4158 138.011 62.5114C137.952 62.607 137.865 62.6874 137.754 62.7482C137.898 62.8134 138.007 62.9003 138.085 63.0111L138.083 63.0133ZM137.524 63.7086C137.632 63.6304 137.687 63.5217 137.687 63.3848C137.687 63.2479 137.632 63.1436 137.524 63.0654C137.415 62.9872 137.267 62.9481 137.077 62.9481C136.888 62.9481 136.742 62.9872 136.636 63.0654C136.529 63.1436 136.475 63.2501 136.475 63.3848C136.475 63.5195 136.527 63.6304 136.636 63.7086C136.744 63.7868 136.89 63.8259 137.077 63.8259C137.265 63.8259 137.413 63.7868 137.524 63.7086ZM136.701 61.916C136.609 61.9834 136.562 62.079 136.562 62.2006C136.562 62.3223 136.607 62.4114 136.701 62.4788C136.792 62.5483 136.919 62.5831 137.077 62.5831C137.236 62.5831 137.367 62.5483 137.46 62.4788C137.554 62.4092 137.602 62.318 137.602 62.2006C137.602 62.0833 137.554 61.9834 137.46 61.916C137.365 61.8486 137.238 61.8139 137.08 61.8139C136.921 61.8139 136.794 61.8486 136.703 61.916H136.701Z" fill="#007AFF"/>
<path d="M97.6824 106.283C104.399 106.283 109.844 100.847 109.844 94.1417C109.844 87.436 104.399 82 97.6824 82C90.9656 82 85.5205 87.436 85.5205 94.1417C85.5205 100.847 90.9656 106.283 97.6824 106.283Z" fill="#007AFF"/>
<path d="M102.218 93.0897L98.0149 89.1678C97.832 88.9961 97.5469 88.9961 97.3663 89.1678L93.1614 93.0897C93.0656 93.1788 93.0112 93.3048 93.0112 93.4374V98.7673C93.0112 99.0302 93.2245 99.2432 93.4879 99.2432H96.3825C96.6459 99.2432 96.8592 99.0302 96.8592 98.7673V95.5581H98.5263V98.7673C98.5263 99.0302 98.7396 99.2432 99.003 99.2432H101.898C102.161 99.2432 102.374 99.0302 102.374 98.7673V93.4374C102.374 93.3048 102.32 93.181 102.224 93.0897H102.218ZM101.417 98.2915H99.4731V95.0822C99.4731 94.8193 99.2598 94.6064 98.9964 94.6064H96.3782C96.1148 94.6064 95.9015 94.8193 95.9015 95.0822V98.2915H93.958V93.6438L97.6884 90.1651L101.414 93.6416V98.2893L101.417 98.2915Z" fill="white"/>
<path d="M27.5057 63.5165C27.1749 63.5165 26.8593 63.3579 26.6591 63.095L24.8374 60.6701C24.4021 60.0921 24.1714 59.4012 24.1714 58.6755C24.1714 57.7868 24.5174 56.9524 25.1464 56.3223C25.7754 55.6944 26.6133 55.3489 27.5035 55.3489C28.3937 55.3489 29.2294 55.6944 29.8606 56.3223C30.4896 56.9502 30.8356 57.7868 30.8356 58.6755C30.8356 59.4012 30.6049 60.09 30.1696 60.6701L28.348 63.095C28.1499 63.3601 27.8322 63.5165 27.5013 63.5165H27.5057ZM25.3162 60.3116L27.1379 62.7365C27.2249 62.8538 27.3599 62.9211 27.5057 62.9211C27.6515 62.9211 27.7864 62.8538 27.8735 62.7365L29.6952 60.3116C30.0521 59.8357 30.2415 59.2708 30.2415 58.6755C30.2415 57.1697 29.014 55.9442 27.5057 55.9442C25.9974 55.9442 24.7699 57.1697 24.7699 58.6755C24.7699 59.2708 24.9593 59.8379 25.3162 60.3116ZM27.5057 59.7293C26.9224 59.7293 26.4479 59.2556 26.4479 58.6733C26.4479 58.091 26.9224 57.6173 27.5057 57.6173C28.089 57.6173 28.5634 58.091 28.5634 58.6733C28.5634 59.2556 28.089 59.7293 27.5057 59.7293ZM27.5057 58.2148C27.2532 58.2148 27.0465 58.4212 27.0465 58.6733C27.0465 58.9253 27.2532 59.1318 27.5057 59.1318C27.7582 59.1318 27.9649 58.9253 27.9649 58.6733C27.9649 58.4212 27.7582 58.2148 27.5057 58.2148Z" fill="#007AFF"/>
<path d="M29.318 64.5811C29.318 64.416 29.1852 64.2834 29.0198 64.2834H25.9859C25.8204 64.2834 25.6877 64.416 25.6877 64.5811C25.6877 64.7463 25.8204 64.8788 25.9859 64.8788H29.0198C29.1852 64.8788 29.318 64.7463 29.318 64.5811Z" fill="#007AFF"/>
<g filter="url(#filter1_d_12_23751)">
<path d="M113.392 93.7808C113.033 93.7808 112.75 94.0741 112.75 94.4304C112.75 94.4326 112.75 94.4348 112.75 94.437C112.75 102.785 105.971 109.553 97.6089 109.553C89.2471 109.553 82.4675 102.785 82.4675 94.437C82.4675 94.4348 82.4675 94.4326 82.4675 94.4304C82.4675 94.0719 82.1845 93.7808 81.8254 93.7808H13V120.398C13 128.717 19.7557 135.46 28.0871 135.46H167.129C175.462 135.46 182.216 128.715 182.216 120.398V93.7808H113.39H113.392Z" fill="#007AFF"/>
</g>
<path d="M23.8571 122.462C23.5894 122.316 23.3805 122.116 23.2282 121.86C23.0758 121.604 22.9996 121.315 22.9996 120.993C22.9996 120.671 23.0758 120.382 23.2303 120.126C23.3827 119.87 23.5938 119.67 23.8615 119.524C24.1292 119.379 24.4296 119.307 24.7604 119.307C25.0302 119.307 25.274 119.355 25.4982 119.448C25.7202 119.542 25.9074 119.678 26.0619 119.857L25.6679 120.226C25.4307 119.97 25.1369 119.841 24.7908 119.841C24.5667 119.841 24.3643 119.891 24.1858 119.989C24.0073 120.087 23.868 120.224 23.7679 120.4C23.6678 120.576 23.6177 120.774 23.6177 120.995C23.6177 121.217 23.6678 121.415 23.7679 121.591C23.868 121.767 24.0073 121.901 24.1858 122.001C24.3643 122.099 24.5667 122.149 24.7908 122.149C25.1369 122.149 25.4307 122.019 25.6679 121.76L26.0619 122.134C25.9095 122.312 25.7202 122.447 25.496 122.542C25.2718 122.636 25.0259 122.683 24.7582 122.683C24.4274 122.683 24.127 122.612 23.8593 122.466L23.8571 122.462Z" fill="white"/>
<path d="M26.9335 122.503C26.7311 122.395 26.5723 122.243 26.4569 122.047C26.3437 121.851 26.285 121.632 26.285 121.384C26.285 121.137 26.3416 120.917 26.4569 120.724C26.5723 120.53 26.729 120.378 26.9335 120.27C27.136 120.161 27.3645 120.107 27.6191 120.107C27.8738 120.107 28.1045 120.161 28.3091 120.27C28.5136 120.378 28.6703 120.53 28.7857 120.724C28.8989 120.917 28.9576 121.137 28.9576 121.384C28.9576 121.632 28.901 121.851 28.7857 122.047C28.6703 122.243 28.5136 122.395 28.3091 122.503C28.1045 122.612 27.8759 122.666 27.6191 122.666C27.3623 122.666 27.1381 122.612 26.9335 122.503ZM28.1524 121.951C28.2938 121.808 28.3635 121.619 28.3635 121.384C28.3635 121.15 28.2938 120.961 28.1524 120.817C28.0109 120.674 27.8346 120.602 27.617 120.602C27.3993 120.602 27.223 120.674 27.0837 120.817C26.9444 120.961 26.8748 121.15 26.8748 121.384C26.8748 121.619 26.9444 121.808 27.0837 121.951C27.223 122.095 27.4015 122.167 27.617 122.167C27.8324 122.167 28.0109 122.095 28.1524 121.951Z" fill="white"/>
<path d="M31.7015 120.382C31.893 120.567 31.9888 120.839 31.9888 121.202V122.636H31.4033V121.278C31.4033 121.058 31.3511 120.895 31.2488 120.784C31.1465 120.674 30.9985 120.617 30.807 120.617C30.5915 120.617 30.4218 120.682 30.2955 120.813C30.1693 120.943 30.1083 121.128 30.1083 121.373V122.638H29.5229V120.137H30.0822V120.461C30.1802 120.345 30.2999 120.259 30.4479 120.198C30.5959 120.139 30.7613 120.109 30.9441 120.109C31.2597 120.109 31.5143 120.2 31.7037 120.385L31.7015 120.382Z" fill="white"/>
<path d="M34.9141 120.382C35.1056 120.567 35.1992 120.839 35.1992 121.202V122.636H34.6137V121.278C34.6137 121.058 34.5615 120.895 34.4592 120.784C34.3569 120.674 34.2089 120.617 34.0196 120.617C33.8041 120.617 33.6343 120.682 33.5081 120.813C33.3819 120.943 33.3209 121.128 33.3209 121.373V122.638H32.7355V120.137H33.2948V120.461C33.3928 120.345 33.5146 120.259 33.6605 120.198C33.8085 120.139 33.9739 120.109 34.1567 120.109C34.4723 120.109 34.7247 120.2 34.9163 120.385L34.9141 120.382Z" fill="white"/>
<path d="M38.3186 121.571H36.3533C36.3881 121.756 36.4773 121.901 36.6232 122.01C36.769 122.119 36.9496 122.171 37.1651 122.171C37.4393 122.171 37.6679 122.08 37.8463 121.899L38.1597 122.26C38.0465 122.395 37.9051 122.495 37.7331 122.564C37.5612 122.634 37.3675 122.666 37.152 122.666C36.8778 122.666 36.634 122.612 36.4251 122.503C36.2162 122.395 36.0529 122.243 35.9398 122.047C35.8266 121.851 35.7678 121.632 35.7678 121.384C35.7678 121.137 35.8222 120.921 35.9354 120.726C36.0464 120.53 36.2009 120.378 36.3968 120.27C36.5927 120.161 36.8169 120.107 37.0628 120.107C37.3087 120.107 37.5242 120.161 37.7179 120.267C37.9094 120.376 38.0596 120.526 38.1684 120.722C38.2773 120.917 38.3295 121.143 38.3295 121.397C38.3295 121.439 38.3251 121.495 38.3208 121.571H38.3186ZM36.5862 120.741C36.4556 120.852 36.3772 121 36.3489 121.184H37.7701C37.744 121.004 37.6678 120.856 37.5416 120.743C37.4132 120.63 37.2543 120.574 37.0628 120.574C36.8713 120.574 36.7167 120.63 36.5862 120.741Z" fill="white"/>
<path d="M39.3405 122.503C39.1337 122.395 38.9726 122.243 38.8573 122.047C38.7419 121.851 38.6832 121.632 38.6832 121.384C38.6832 121.137 38.7419 120.917 38.8573 120.724C38.9726 120.53 39.1337 120.378 39.3383 120.27C39.5429 120.161 39.7779 120.107 40.0391 120.107C40.285 120.107 40.5027 120.157 40.6877 120.257C40.8748 120.357 41.0141 120.5 41.1077 120.687L40.6572 120.95C40.5854 120.835 40.4961 120.748 40.3873 120.689C40.2785 120.63 40.161 120.602 40.0326 120.602C39.8127 120.602 39.6321 120.674 39.4884 120.815C39.3448 120.956 39.273 121.147 39.273 121.384C39.273 121.621 39.3448 121.812 39.4863 121.954C39.6277 122.095 39.8106 122.167 40.0326 122.167C40.161 122.167 40.2785 122.138 40.3873 122.08C40.494 122.023 40.5854 121.936 40.6572 121.819L41.1077 122.082C41.0098 122.269 40.8683 122.414 40.6833 122.514C40.4961 122.616 40.2828 122.666 40.0391 122.666C39.7801 122.666 39.5472 122.612 39.3405 122.503Z" fill="white"/>
<path d="M43.1509 122.499C43.0812 122.555 42.9985 122.597 42.9006 122.625C42.8026 122.653 42.6982 122.666 42.5894 122.666C42.3151 122.666 42.1018 122.594 41.9517 122.451C41.8015 122.308 41.7275 122.099 41.7275 121.823V120.619H41.314V120.15H41.7275V119.579H42.3129V120.15H42.9833V120.619H42.3129V121.808C42.3129 121.93 42.3434 122.023 42.4022 122.086C42.4609 122.149 42.548 122.182 42.6612 122.182C42.7918 122.182 42.9028 122.147 42.9898 122.08L43.1531 122.497L43.1509 122.499Z" fill="white"/>
<path d="M45.897 121.571H43.9316C43.9665 121.756 44.0557 121.901 44.2015 122.01C44.3473 122.119 44.528 122.171 44.7434 122.171C45.0177 122.171 45.2462 122.08 45.4225 121.899L45.7359 122.26C45.6227 122.395 45.4813 122.495 45.3093 122.564C45.1374 122.634 44.9437 122.666 44.7282 122.666C44.454 122.666 44.2102 122.612 44.0013 122.503C43.7923 122.395 43.6291 122.243 43.5159 122.047C43.4006 121.851 43.344 121.632 43.344 121.384C43.344 121.137 43.3984 120.921 43.5094 120.726C43.6204 120.53 43.7749 120.378 43.9708 120.27C44.1689 120.161 44.3909 120.107 44.6368 120.107C44.8827 120.107 45.0982 120.161 45.2919 120.267C45.4856 120.374 45.6336 120.526 45.7424 120.722C45.8491 120.917 45.9035 121.143 45.9035 121.397C45.9035 121.439 45.9013 121.495 45.8948 121.571H45.897ZM44.1645 120.741C44.0339 120.852 43.9556 121 43.9273 121.184H45.3485C45.3224 121.004 45.2462 120.856 45.1178 120.743C44.9894 120.63 44.8305 120.574 44.639 120.574C44.4474 120.574 44.2929 120.63 44.1623 120.741H44.1645Z" fill="white"/>
<path d="M48.9179 119.159V122.634H48.3542V122.31C48.2563 122.429 48.1388 122.516 47.9951 122.577C47.8515 122.636 47.6948 122.666 47.5228 122.666C47.2813 122.666 47.0658 122.614 46.8743 122.507C46.6827 122.401 46.5304 122.251 46.4216 122.056C46.3128 121.86 46.2562 121.636 46.2562 121.384C46.2562 121.132 46.3106 120.908 46.4216 120.715C46.5326 120.522 46.6827 120.372 46.8743 120.265C47.0658 120.159 47.2834 120.107 47.5228 120.107C47.6883 120.107 47.8406 120.135 47.9777 120.191C48.1148 120.248 48.2324 120.332 48.3303 120.443V119.159H48.9158H48.9179ZM47.9755 122.069C48.0887 122.006 48.178 121.912 48.2432 121.795C48.3085 121.677 48.3412 121.538 48.3412 121.382C48.3412 121.226 48.3085 121.089 48.2432 120.969C48.178 120.85 48.0887 120.758 47.9755 120.695C47.8624 120.632 47.7361 120.6 47.5947 120.6C47.4532 120.6 47.327 120.632 47.2138 120.695C47.1006 120.758 47.0114 120.85 46.9461 120.969C46.8808 121.089 46.8482 121.226 46.8482 121.382C46.8482 121.538 46.8808 121.675 46.9461 121.795C47.0114 121.914 47.1006 122.006 47.2138 122.069C47.327 122.132 47.4532 122.164 47.5947 122.164C47.7361 122.164 47.8624 122.132 47.9755 122.069Z" fill="white"/>
<path d="M57.7648 122.573C57.5275 122.501 57.3425 122.405 57.2032 122.288L57.4144 121.814C57.5493 121.921 57.7147 122.008 57.9084 122.075C58.1021 122.142 58.3002 122.175 58.4961 122.175C58.7398 122.175 58.9226 122.136 59.0423 122.058C59.162 121.979 59.223 121.877 59.223 121.749C59.223 121.656 59.1903 121.577 59.1229 121.517C59.0554 121.456 58.9705 121.408 58.8682 121.373C58.7659 121.338 58.6245 121.299 58.446 121.256C58.1957 121.197 57.9933 121.136 57.8388 121.078C57.6842 121.019 57.5515 120.926 57.4405 120.8C57.3295 120.674 57.2751 120.502 57.2751 120.287C57.2751 120.107 57.3251 119.941 57.4231 119.794C57.521 119.646 57.669 119.526 57.8692 119.439C58.0673 119.353 58.3111 119.309 58.5983 119.309C58.7986 119.309 58.9945 119.335 59.1903 119.385C59.384 119.435 59.5516 119.507 59.6931 119.6L59.5016 120.074C59.3579 119.989 59.2077 119.926 59.051 119.883C58.8943 119.839 58.742 119.818 58.5962 119.818C58.3546 119.818 58.1761 119.859 58.0586 119.939C57.9411 120.02 57.8823 120.128 57.8823 120.263C57.8823 120.356 57.9149 120.432 57.9824 120.493C58.0499 120.552 58.1348 120.6 58.2371 120.634C58.3393 120.669 58.4808 120.708 58.6593 120.752C58.903 120.808 59.1033 120.867 59.26 120.928C59.4167 120.989 59.5494 121.082 59.6604 121.206C59.7714 121.33 59.828 121.499 59.828 121.712C59.828 121.893 59.778 122.058 59.68 122.203C59.5821 122.349 59.4319 122.466 59.2317 122.555C59.0315 122.644 58.7877 122.686 58.5004 122.686C58.2479 122.686 58.002 122.649 57.7669 122.577L57.7648 122.573Z" fill="white"/>
<path d="M62.6754 120.133L61.5023 122.836C61.3935 123.107 61.2608 123.298 61.1041 123.409C60.9474 123.52 60.758 123.576 60.536 123.576C60.4119 123.576 60.2879 123.557 60.166 123.516C60.0441 123.474 59.944 123.418 59.8657 123.346L60.1007 122.916C60.1573 122.968 60.2226 123.012 60.3009 123.042C60.3771 123.072 60.4555 123.088 60.5338 123.088C60.6361 123.088 60.7232 123.062 60.7885 123.007C60.8559 122.955 60.9169 122.866 60.9735 122.74L61.0148 122.642L59.9222 120.133H60.5317L61.3195 121.982L62.1117 120.133H62.6754Z" fill="white"/>
<path d="M65.2243 120.382C65.4158 120.567 65.5094 120.839 65.5094 121.202V122.636H64.924V121.278C64.924 121.058 64.8717 120.895 64.7694 120.784C64.6671 120.674 64.5191 120.617 64.3276 120.617C64.1121 120.617 63.9424 120.682 63.8162 120.813C63.6921 120.943 63.629 121.128 63.629 121.373V122.638H63.0435V120.137H63.6029V120.461C63.7008 120.345 63.8205 120.259 63.9685 120.198C64.1165 120.139 64.2819 120.109 64.4647 120.109C64.7803 120.109 65.035 120.2 65.2243 120.385V120.382Z" fill="white"/>
<path d="M66.7268 122.503C66.52 122.395 66.359 122.243 66.2436 122.047C66.1283 121.851 66.0695 121.632 66.0695 121.384C66.0695 121.137 66.1283 120.917 66.2436 120.724C66.359 120.53 66.52 120.378 66.7246 120.27C66.9292 120.161 67.1643 120.107 67.4254 120.107C67.6736 120.107 67.889 120.157 68.0762 120.257C68.2612 120.357 68.4027 120.5 68.4962 120.687L68.0457 120.95C67.9739 120.835 67.8847 120.748 67.7758 120.689C67.667 120.63 67.5495 120.602 67.4211 120.602C67.2013 120.602 67.0206 120.674 66.877 120.815C66.7333 120.956 66.6615 121.147 66.6615 121.384C66.6615 121.621 66.7333 121.812 66.8748 121.954C67.0163 122.095 67.1991 122.167 67.4211 122.167C67.5495 122.167 67.667 122.138 67.7758 122.08C67.8847 122.023 67.9739 121.936 68.0457 121.819L68.4962 122.082C68.3983 122.269 68.2568 122.414 68.0718 122.514C67.8847 122.616 67.6714 122.666 67.4276 122.666C67.1686 122.666 66.9357 122.612 66.729 122.503H66.7268Z" fill="white"/>
<path d="M71.3133 121.571H69.348C69.3828 121.756 69.4721 121.901 69.6179 122.01C69.7637 122.119 69.9444 122.171 70.1598 122.171C70.4341 122.171 70.6626 122.08 70.8389 121.899L71.1523 122.26C71.0391 122.395 70.8976 122.495 70.7257 122.564C70.5538 122.634 70.3601 122.666 70.1446 122.666C69.8704 122.666 69.6266 122.612 69.4177 122.503C69.2087 122.395 69.0455 122.243 68.9323 122.047C68.8191 121.851 68.7604 121.632 68.7604 121.384C68.7604 121.137 68.8148 120.921 68.928 120.726C69.039 120.53 69.1935 120.378 69.3894 120.27C69.5874 120.161 69.8094 120.107 70.0554 120.107C70.3013 120.107 70.5168 120.161 70.7105 120.267C70.902 120.376 71.0522 120.526 71.161 120.722C71.2698 120.917 71.322 121.143 71.322 121.397C71.322 121.439 71.3199 121.495 71.3133 121.571ZM69.5809 120.741C69.4503 120.852 69.372 121 69.3437 121.184H70.7649C70.7388 121.004 70.6626 120.856 70.5342 120.743C70.4058 120.63 70.2469 120.574 70.0554 120.574C69.8638 120.574 69.7093 120.63 69.5787 120.741H69.5809Z" fill="white"/>
<path d="M74.3354 119.159V122.634H73.7717V122.31C73.6738 122.429 73.5562 122.516 73.4126 122.577C73.2711 122.636 73.1122 122.666 72.9403 122.666C72.6987 122.666 72.4832 122.614 72.2917 122.507C72.1002 122.401 71.9478 122.251 71.839 122.056C71.7302 121.86 71.6758 121.636 71.6758 121.384C71.6758 121.132 71.7302 120.908 71.839 120.715C71.9478 120.522 72.1002 120.372 72.2917 120.265C72.4832 120.159 72.7009 120.107 72.9403 120.107C73.1057 120.107 73.258 120.135 73.3952 120.191C73.5323 120.248 73.6498 120.332 73.7478 120.443V119.159H74.3332H74.3354ZM73.393 122.069C73.5062 122.006 73.5954 121.912 73.6607 121.795C73.726 121.677 73.7586 121.538 73.7586 121.382C73.7586 121.226 73.726 121.089 73.6607 120.969C73.5954 120.85 73.5062 120.758 73.393 120.695C73.2798 120.632 73.1536 120.6 73.0121 120.6C72.8706 120.6 72.7444 120.632 72.6312 120.695C72.5181 120.758 72.4288 120.85 72.3635 120.969C72.2982 121.089 72.2656 121.226 72.2656 121.382C72.2656 121.538 72.2982 121.675 72.3635 121.795C72.4288 121.914 72.5181 122.006 72.6312 122.069C72.7444 122.132 72.8706 122.164 73.0121 122.164C73.1536 122.164 73.2798 122.132 73.393 122.069Z" fill="white"/>
<path d="M138.929 119.865V120.862H140.514V121.377H138.929V122.633H138.32V119.354H140.716V119.865H138.929Z" fill="white"/>
<path d="M141.228 119.619C141.156 119.552 141.121 119.469 141.121 119.369C141.121 119.269 141.156 119.187 141.228 119.119C141.3 119.052 141.389 119.02 141.496 119.02C141.602 119.02 141.691 119.052 141.763 119.115C141.835 119.178 141.872 119.259 141.872 119.356C141.872 119.458 141.837 119.545 141.765 119.617C141.696 119.687 141.604 119.721 141.496 119.721C141.387 119.721 141.3 119.689 141.228 119.621V119.619ZM141.2 120.132H141.785V122.633H141.2V120.132Z" fill="white"/>
<path d="M142.563 119.159H143.149V122.633H142.563V119.159Z" fill="white"/>
<path d="M145.545 122.498C145.475 122.555 145.392 122.596 145.294 122.624C145.196 122.653 145.092 122.666 144.983 122.666C144.709 122.666 144.496 122.594 144.345 122.451C144.195 122.307 144.121 122.099 144.121 121.823V120.619H143.708V120.15H144.121V119.578H144.707V120.15H145.377V120.619H144.707V121.807C144.707 121.929 144.737 122.023 144.796 122.086C144.855 122.149 144.942 122.181 145.055 122.181C145.186 122.181 145.297 122.146 145.384 122.079L145.549 122.496L145.545 122.498Z" fill="white"/>
<path d="M148.282 121.57H146.317C146.352 121.755 146.441 121.901 146.587 122.009C146.733 122.118 146.913 122.17 147.129 122.17C147.403 122.17 147.631 122.079 147.81 121.899L148.123 122.259C148.01 122.394 147.869 122.494 147.697 122.563C147.525 122.633 147.331 122.666 147.116 122.666C146.841 122.666 146.598 122.611 146.389 122.503C146.18 122.394 146.017 122.242 145.903 122.046C145.79 121.851 145.731 121.631 145.731 121.384C145.731 121.136 145.786 120.921 145.899 120.725C146.01 120.53 146.165 120.378 146.36 120.269C146.556 120.16 146.78 120.106 147.026 120.106C147.272 120.106 147.488 120.16 147.682 120.267C147.873 120.375 148.023 120.525 148.132 120.721C148.241 120.916 148.293 121.142 148.293 121.397C148.293 121.438 148.289 121.494 148.284 121.57H148.282ZM146.55 120.74C146.419 120.851 146.341 120.999 146.313 121.184H147.734C147.708 121.003 147.631 120.856 147.505 120.743C147.377 120.63 147.218 120.573 147.026 120.573C146.835 120.573 146.68 120.63 146.55 120.74Z" fill="white"/>
<path d="M150.309 120.104V120.66C150.259 120.651 150.213 120.647 150.174 120.647C149.946 120.647 149.767 120.712 149.639 120.847C149.51 120.979 149.447 121.171 149.447 121.42V122.633H148.862V120.132H149.421V120.497C149.591 120.234 149.887 120.104 150.311 120.104H150.309Z" fill="white"/>
<path d="M162.507 119.356H163.116V122.12H164.834V122.635H162.507V119.356Z" fill="white"/>
<path d="M165.291 119.619C165.219 119.552 165.182 119.469 165.182 119.369C165.182 119.269 165.219 119.187 165.291 119.119C165.363 119.052 165.452 119.02 165.558 119.02C165.665 119.02 165.754 119.052 165.826 119.115C165.898 119.178 165.935 119.259 165.935 119.356C165.935 119.458 165.9 119.545 165.828 119.617C165.759 119.687 165.667 119.721 165.558 119.721C165.45 119.721 165.363 119.689 165.291 119.621V119.619ZM165.262 120.132H165.848V122.633H165.262V120.132Z" fill="white"/>
<path d="M166.793 122.585C166.6 122.533 166.445 122.465 166.33 122.383L166.554 121.937C166.667 122.011 166.802 122.072 166.959 122.118C167.115 122.163 167.272 122.185 167.425 122.185C167.775 122.185 167.949 122.094 167.949 121.909C167.949 121.822 167.906 121.761 167.816 121.727C167.727 121.692 167.583 121.659 167.388 121.629C167.181 121.598 167.013 121.561 166.883 121.52C166.752 121.479 166.641 121.409 166.545 121.307C166.449 121.205 166.402 121.064 166.402 120.884C166.402 120.647 166.502 120.455 166.7 120.314C166.898 120.173 167.166 120.101 167.505 120.101C167.677 120.101 167.849 120.121 168.021 120.16C168.193 120.199 168.334 120.251 168.443 120.316L168.219 120.762C168.006 120.638 167.766 120.575 167.501 120.575C167.329 120.575 167.198 120.601 167.109 120.653C167.02 120.705 166.976 120.773 166.976 120.857C166.976 120.951 167.024 121.018 167.12 121.057C167.216 121.096 167.364 121.133 167.564 121.168C167.764 121.199 167.927 121.236 168.056 121.277C168.184 121.318 168.295 121.385 168.387 121.483C168.478 121.581 168.526 121.718 168.526 121.896C168.526 122.131 168.424 122.318 168.221 122.459C168.019 122.6 167.74 122.67 167.392 122.67C167.189 122.67 166.989 122.644 166.796 122.589L166.793 122.585Z" fill="white"/>
<path d="M170.541 122.498C170.472 122.555 170.389 122.596 170.291 122.624C170.193 122.653 170.089 122.666 169.98 122.666C169.706 122.666 169.492 122.594 169.342 122.451C169.192 122.307 169.118 122.099 169.118 121.823V120.619H168.704V120.15H169.118V119.578H169.703V120.15H170.374V120.619H169.703V121.807C169.703 121.929 169.734 122.023 169.793 122.086C169.851 122.149 169.938 122.181 170.052 122.181C170.182 122.181 170.293 122.146 170.38 122.079L170.543 122.496L170.541 122.498Z" fill="white"/>
<path d="M143.338 115.763C143.155 115.763 143.009 115.615 143.009 115.435V112.276L139.958 108.925C139.616 108.547 139.644 107.965 140.021 107.624C140.191 107.469 140.41 107.385 140.641 107.385H147.682C148.191 107.385 148.605 107.797 148.605 108.308C148.605 108.536 148.52 108.758 148.365 108.927L145.314 112.278V114.122C145.314 114.222 145.268 114.316 145.19 114.379L143.544 115.693C143.486 115.741 143.414 115.765 143.338 115.765V115.763ZM140.641 108.041C140.495 108.041 140.376 108.16 140.378 108.306C140.378 108.371 140.402 108.434 140.445 108.482L143.581 111.932C143.636 111.991 143.666 112.067 143.666 112.147V114.75L144.654 113.955V112.147C144.654 112.065 144.685 111.987 144.739 111.926L147.876 108.475C147.969 108.364 147.956 108.197 147.845 108.102C147.799 108.062 147.741 108.041 147.68 108.039H140.639L140.641 108.041Z" fill="white"/>
<path d="M61.1681 112.569C61.2857 112.569 61.4032 112.517 61.4794 112.417L61.6491 112.195C61.9038 113.71 62.9659 115.003 64.4741 115.526C64.9377 115.687 65.4144 115.763 65.8845 115.763C67.2904 115.763 68.6442 115.07 69.456 113.851C69.5757 113.671 69.5256 113.427 69.345 113.308C69.1644 113.188 68.9206 113.238 68.8009 113.419C67.9173 114.748 66.2436 115.311 64.7331 114.785C63.4773 114.351 62.6024 113.26 62.4152 111.993L62.7504 112.252C62.9223 112.382 63.1683 112.352 63.301 112.18C63.4338 112.008 63.4012 111.763 63.2292 111.63C63.2292 111.63 62.2999 110.918 62.2977 110.915C62.1018 110.766 61.8254 110.681 61.6491 110.911L60.8569 111.939C60.7241 112.111 60.7568 112.356 60.9287 112.489C61.0005 112.543 61.0833 112.569 61.1681 112.569Z" fill="white"/>
<path d="M62.4153 109.649C62.596 109.768 62.8397 109.718 62.9594 109.538C63.8431 108.208 65.5168 107.645 67.0272 108.171C68.283 108.606 69.1579 109.696 69.3451 110.963L69.0099 110.705C68.838 110.572 68.5921 110.605 68.4593 110.776C68.3265 110.948 68.3592 111.194 68.5311 111.326C68.5311 111.326 69.4605 112.039 69.4626 112.041C69.6607 112.193 69.9327 112.278 70.1112 112.045L70.9034 111.018C71.0362 110.846 71.0035 110.6 70.8316 110.468C70.6597 110.335 70.4137 110.368 70.281 110.54L70.1112 110.761C69.8566 109.247 68.7945 107.954 67.2862 107.43C65.434 106.789 63.386 107.476 62.3043 109.105C62.1846 109.286 62.2347 109.529 62.4153 109.649Z" fill="white"/>
<path d="M36.0355 115.763C36.4153 115.763 36.7232 115.456 36.7232 115.077C36.7232 114.698 36.4153 114.39 36.0355 114.39C35.6556 114.39 35.3477 114.698 35.3477 115.077C35.3477 115.456 35.6556 115.763 36.0355 115.763Z" fill="white"/>
<path d="M41.2784 109.277C39.9073 107.808 38.053 107 36.0528 107C34.0527 107 32.1984 107.808 30.8272 109.277C30.6705 109.444 30.6792 109.71 30.849 109.866C31.0166 110.022 31.2821 110.014 31.4388 109.844C32.6489 108.547 34.2877 107.832 36.055 107.832C37.8201 107.832 39.4589 108.547 40.6712 109.844C40.7539 109.931 40.8649 109.977 40.9759 109.977C41.0782 109.977 41.1805 109.94 41.261 109.866C41.4286 109.71 41.4395 109.447 41.2828 109.277H41.2784Z" fill="white"/>
<path d="M39.7477 110.996C38.7356 109.977 37.4232 109.417 36.0543 109.417C34.6853 109.417 33.3729 109.977 32.3608 110.996C32.1976 111.159 32.1998 111.422 32.363 111.585C32.5263 111.748 32.7896 111.746 32.9528 111.583C33.8082 110.722 34.9094 110.249 36.0543 110.249C37.1991 110.249 38.3025 110.722 39.1557 111.583C39.2362 111.665 39.345 111.707 39.4517 111.707C39.5583 111.707 39.665 111.665 39.7455 111.585C39.9087 111.422 39.9109 111.159 39.7477 110.996Z" fill="white"/>
<path d="M38.0756 112.721C37.5337 112.184 36.7545 111.852 36.0472 111.852H36.0167C35.3072 111.852 34.5302 112.184 33.9883 112.721C33.825 112.882 33.8229 113.147 33.9861 113.31C34.0666 113.392 34.1754 113.434 34.2821 113.434C34.3887 113.434 34.4932 113.395 34.5759 113.314C34.9611 112.932 35.5292 112.686 36.0189 112.686H36.0493C36.539 112.686 37.1049 112.934 37.4923 113.314C37.6556 113.475 37.9189 113.475 38.0821 113.312C38.2432 113.149 38.2432 112.886 38.08 112.723L38.0756 112.721Z" fill="white"/>
<path d="M167.547 114.227C167.46 114.14 167.414 114.027 167.414 113.905C167.414 113.783 167.462 113.668 167.547 113.583C167.632 113.499 167.754 113.451 167.869 113.451C167.984 113.451 168.104 113.494 168.191 113.583L169.275 114.666L171.767 112.178C171.939 112.006 172.239 112.006 172.413 112.178C172.501 112.265 172.546 112.378 172.546 112.499C172.546 112.621 172.498 112.736 172.413 112.821L169.599 115.63C169.421 115.808 169.131 115.808 168.953 115.63L167.545 114.224L167.547 114.227ZM168.354 112.234C168.607 112.234 168.811 112.03 168.811 111.778C168.811 111.526 168.607 111.322 168.354 111.322H160.615C160.363 111.322 160.158 111.526 160.158 111.778C160.158 112.03 160.363 112.234 160.615 112.234H168.354ZM168.354 108.723C168.607 108.723 168.811 108.519 168.811 108.267C168.811 108.015 168.607 107.81 168.354 107.81H160.615C160.363 107.81 160.158 108.015 160.158 108.267C160.158 108.519 160.363 108.723 160.615 108.723H168.354ZM165.54 114.835H160.615C160.363 114.835 160.158 115.039 160.158 115.291C160.158 115.543 160.363 115.748 160.615 115.748H165.54C165.793 115.748 165.997 115.543 165.997 115.291C165.997 115.039 165.793 114.835 165.54 114.835Z" fill="white"/>
<path d="M170 0C157.851 0 148 9.8486 148 22C148 34.149 157.849 44 170 44C182.149 44 192 34.1514 192 22C192 9.8486 182.149 0 170 0Z" fill="white"/>
<path d="M170.001 3.15234C159.593 3.15234 151.153 11.592 151.153 22.0004C151.153 32.4088 159.593 40.8485 170.001 40.8485C180.409 40.8485 188.849 32.4088 188.849 22.0004C188.849 11.592 180.409 3.15234 170.001 3.15234Z" fill="#505D68"/>
<mask id="mask0_12_23751" style="mask-type:alpha" maskUnits="userSpaceOnUse" x="151" y="3" width="38" height="38">
<path d="M169.998 3.1521C159.589 3.1521 151.15 11.5917 151.15 22.0002C151.15 32.4086 159.589 40.8482 169.998 40.8482C180.406 40.8482 188.846 32.4086 188.846 22.0002C188.846 11.5917 180.406 3.1521 169.998 3.1521Z" fill="#007AFF"/>
</mask>
<g mask="url(#mask0_12_23751)">
<rect x="91.8713" width="163.472" height="91.6161"/>
</g>
<defs>
<filter id="filter0_d_12_23751" x="1.26977" y="1.20562" width="192.46" height="148.46" filterUnits="userSpaceOnUse" color-interpolation-filters="sRGB">
<feFlood flood-opacity="0" result="BackgroundImageFix"/>
<feColorMatrix in="SourceAlpha" type="matrix" values="0 0 0 0 0 0 0 0 0 0 0 0 0 0 0 0 0 0 127 0" result="hardAlpha"/>
<feOffset dy="2.93585"/>
<feGaussianBlur stdDeviation="5.86512"/>
<feColorMatrix type="matrix" values="0 0 0 0 0.513726 0 0 0 0 0.568627 0 0 0 0 0.592157 0 0 0 0.3 0"/>
<feBlend mode="normal" in2="BackgroundImageFix" result="effect1_dropShadow_12_23751"/>
<feBlend mode="normal" in="SourceGraphic" in2="effect1_dropShadow_12_23751" result="shape"/>
</filter>
<filter id="filter1_d_12_23751" x="0.637834" y="84.5058" width="193.94" height="66.4033" filterUnits="userSpaceOnUse" color-interpolation-filters="sRGB">
<feFlood flood-opacity="0" result="BackgroundImageFix"/>
<feColorMatrix in="SourceAlpha" type="matrix" values="0 0 0 0 0 0 0 0 0 0 0 0 0 0 0 0 0 0 127 0" result="hardAlpha"/>
<feOffset dy="3.08725"/>
<feGaussianBlur stdDeviation="6.18108"/>
<feColorMatrix type="matrix" values="0 0 0 0 0.513726 0 0 0 0 0.568627 0 0 0 0 0.592157 0 0 0 0.3 0"/>
<feBlend mode="normal" in2="BackgroundImageFix" result="effect1_dropShadow_12_23751"/>
<feBlend mode="normal" in="SourceGraphic" in2="effect1_dropShadow_12_23751" result="shape"/>
</filter>
</defs>
</svg>
