<svg width="100" height="100" viewBox="0 0 100 100" fill="none" xmlns="http://www.w3.org/2000/svg">
<path d="M50 0C22.3885 0 0 22.3832 0 50C0 77.6115 22.3832 100 50 100C77.6115 100 100 77.6168 100 50C100 22.3832 77.6115 0 50 0Z" fill="white"/>
<path d="M50.0054 7.1638C26.3498 7.1638 7.16882 26.3448 7.16882 50.0003C7.16882 73.6558 26.3498 92.8369 50.0054 92.8369C73.6609 92.8369 92.8419 73.6558 92.8419 50.0003C92.8419 26.3448 73.6609 7.1638 50.0054 7.1638Z" fill="#FF0879"/>
<mask id="mask0_136_863" style="mask-type:alpha" maskUnits="userSpaceOnUse" x="7" y="7" width="86" height="86">
<path d="M49.9991 7.16402C26.3436 7.16402 7.16254 26.345 7.16254 50.0005C7.16254 73.6561 26.3436 92.8371 49.9991 92.8371C73.6546 92.8371 92.8356 73.6561 92.8356 50.0005C92.8356 26.345 73.6546 7.16402 49.9991 7.16402Z" fill="#007AFF"/>
</mask>
<g mask="url(#mask0_136_863)">
<rect x="-44.449" y="0.000259399" width="213.267" height="119.523"/>
</g>
</svg>
