<svg width="223" height="229" viewBox="0 0 223 229" fill="none" xmlns="http://www.w3.org/2000/svg">
<g filter="url(#filter0_ddddd_136_656)">
<rect x="32" y="7" width="157.843" height="105.229" rx="6.49562" fill="white" fill-opacity="0.35"/>
</g>
<g filter="url(#filter1_ddddd_136_656)">
<rect x="37.1945" y="14.1453" width="146.801" height="91.5882" rx="9.74343" fill="white"/>
<path d="M52.1338 92.9474V87.99H50.2163V87.4911H54.6281V87.99H52.7106V92.9474H52.1338ZM56.6823 92.9864C55.4819 92.9864 54.5933 92.1134 54.5933 90.8974C54.5933 89.6814 55.4819 88.8162 56.6823 88.8162C57.8827 88.8162 58.7635 89.6814 58.7635 90.8974C58.7635 92.1134 57.8827 92.9864 56.6823 92.9864ZM56.6823 92.4953C57.5553 92.4953 58.2023 91.8562 58.2023 90.8974C58.2023 89.9387 57.5553 89.2995 56.6823 89.2995C55.8093 89.2995 55.1545 89.9387 55.1545 90.8974C55.1545 91.8562 55.8093 92.4953 56.6823 92.4953ZM61.8576 92.3005L62.0525 92.698C61.8342 92.8929 61.5069 92.9864 61.1873 92.9864C60.4156 92.9864 59.9869 92.5499 59.9869 91.7938V89.3151H59.2542V88.8474H59.9869V87.951H60.5403V88.8474H61.7875V89.3151H60.5403V91.7626C60.5403 92.2459 60.7897 92.5109 61.2496 92.5109C61.4757 92.5109 61.7017 92.4408 61.8576 92.3005ZM64.4942 88.8162C65.5543 88.8162 66.1545 89.3463 66.1545 90.4064V92.9474H65.6244V92.3083C65.375 92.7292 64.8917 92.9864 64.2136 92.9864C63.286 92.9864 62.717 92.5031 62.717 91.7938C62.717 91.1624 63.1223 90.6324 64.2993 90.6324H65.601V90.383C65.601 89.6814 65.2035 89.2995 64.4396 89.2995C63.9096 89.2995 63.4107 89.4866 63.0756 89.7828L62.8261 89.3697C63.2392 89.0189 63.8472 88.8162 64.4942 88.8162ZM64.2993 92.5499C64.9229 92.5499 65.3828 92.2537 65.601 91.7159V91.0455H64.3149C63.5199 91.0455 63.2626 91.3573 63.2626 91.7782C63.2626 92.2537 63.6446 92.5499 64.2993 92.5499ZM67.6576 92.9474V87.1637H68.2111V92.9474H67.6576ZM76.2652 92.9474H75.6338L74.3866 91.1936C74.2463 91.2092 74.106 91.217 73.9501 91.217H72.4847V92.9474H71.9079V87.4911H73.9501C75.3376 87.4911 76.1794 88.1926 76.1794 89.3619C76.1794 90.2193 75.7273 90.8195 74.9323 91.0767L76.2652 92.9474ZM73.9345 90.7259C75.0258 90.7259 75.6026 90.2193 75.6026 89.3619C75.6026 88.4888 75.0258 87.99 73.9345 87.99H72.4847V90.7259H73.9345ZM81.0017 90.8974C81.0017 90.9442 80.9939 91.0066 80.9939 91.0689H77.5642C77.6266 91.9263 78.2813 92.4953 79.1777 92.4953C79.6766 92.4953 80.1209 92.3161 80.4327 91.9575L80.7445 92.3161C80.3781 92.7526 79.8091 92.9864 79.1621 92.9864C77.8838 92.9864 77.0108 92.1134 77.0108 90.8974C77.0108 89.6814 77.8604 88.8162 79.014 88.8162C80.1676 88.8162 81.0017 89.6659 81.0017 90.8974ZM79.014 89.2917C78.219 89.2917 77.6344 89.8529 77.5642 90.6558H80.4716C80.4015 89.8529 79.8169 89.2917 79.014 89.2917ZM84.9517 88.8474H85.4973L83.6733 92.9474H83.1043L81.2881 88.8474H81.865L83.4005 92.3395L84.9517 88.8474ZM89.7403 90.8974C89.7403 90.9442 89.7325 91.0066 89.7325 91.0689H86.3028C86.3652 91.9263 87.02 92.4953 87.9164 92.4953C88.4152 92.4953 88.8595 92.3161 89.1713 91.9575L89.4831 92.3161C89.1167 92.7526 88.5477 92.9864 87.9008 92.9864C86.6224 92.9864 85.7494 92.1134 85.7494 90.8974C85.7494 89.6814 86.599 88.8162 87.7527 88.8162C88.9063 88.8162 89.7403 89.6659 89.7403 90.8974ZM87.7527 89.2917C86.9576 89.2917 86.373 89.8529 86.3028 90.6558H89.2103C89.1401 89.8529 88.5555 89.2917 87.7527 89.2917ZM92.9558 88.8162C93.9535 88.8162 94.6394 89.393 94.6394 90.57V92.9474H94.086V90.6246C94.086 89.7594 93.6339 89.3151 92.8544 89.3151C91.9736 89.3151 91.4202 89.8607 91.4202 90.7961V92.9474H90.8668V88.8474H91.3968V89.6035C91.693 89.1046 92.2465 88.8162 92.9558 88.8162ZM99.2832 88.8474H99.8366V92.9474H99.3066V92.1991C99.0182 92.698 98.4882 92.9864 97.8334 92.9864C96.7889 92.9864 96.103 92.4018 96.103 91.2248V88.8474H96.6564V91.1702C96.6564 92.0433 97.1085 92.4876 97.888 92.4876C98.7454 92.4876 99.2832 91.9341 99.2832 90.9988V88.8474ZM104.964 90.8974C104.964 90.9442 104.957 91.0066 104.957 91.0689H101.527C101.589 91.9263 102.244 92.4953 103.14 92.4953C103.639 92.4953 104.084 92.3161 104.395 91.9575L104.707 92.3161C104.341 92.7526 103.772 92.9864 103.125 92.9864C101.847 92.9864 100.974 92.1134 100.974 90.8974C100.974 89.6814 101.823 88.8162 102.977 88.8162C104.13 88.8162 104.964 89.6659 104.964 90.8974ZM102.977 89.2917C102.182 89.2917 101.597 89.8529 101.527 90.6558H104.434C104.364 89.8529 103.78 89.2917 102.977 89.2917Z" fill="#505D68"/>
<path d="M120.787 73.755V74.2149H119.337V75.6335H118.846V74.2149H117.396V73.755H118.846V72.3286H119.337V73.755H120.787ZM122.373 76.2104H125.374V76.7092H121.547V76.3117L123.815 74.0902C124.431 73.4822 124.548 73.1158 124.548 72.7417C124.548 72.1103 124.104 71.7206 123.27 71.7206C122.63 71.7206 122.139 71.9155 121.781 72.3286L121.383 71.9856C121.804 71.4867 122.482 71.2061 123.316 71.2061C124.423 71.2061 125.125 71.7674 125.125 72.6793C125.125 73.2016 124.961 73.6693 124.228 74.3864L122.373 76.2104ZM126.576 76.7482C126.35 76.7482 126.162 76.5611 126.162 76.3195C126.162 76.0778 126.35 75.8986 126.576 75.8986C126.802 75.8986 126.997 76.0778 126.997 76.3195C126.997 76.5611 126.802 76.7482 126.576 76.7482ZM129.897 76.756C128.635 76.756 127.723 75.7193 127.723 73.9811C127.723 72.2428 128.635 71.2061 129.897 71.2061C131.16 71.2061 132.08 72.2428 132.08 73.9811C132.08 75.7193 131.16 76.756 129.897 76.756ZM129.897 76.2415C130.848 76.2415 131.503 75.4387 131.503 73.9811C131.503 72.5234 130.848 71.7206 129.897 71.7206C128.947 71.7206 128.292 72.5234 128.292 73.9811C128.292 75.4387 128.947 76.2415 129.897 76.2415ZM134.583 71.2061C136.033 71.2061 136.82 72.2117 136.82 73.9343C136.82 75.7894 135.807 76.756 134.326 76.756C133.835 76.756 133.375 76.6702 133.032 76.4598L133.258 76.0077C133.538 76.1948 133.913 76.2649 134.318 76.2649C135.495 76.2649 136.251 75.5088 136.251 74.0278C136.251 73.9031 136.243 73.7472 136.228 73.5835C135.955 74.1837 135.316 74.5189 134.56 74.5189C133.476 74.5189 132.72 73.8797 132.72 72.882C132.72 71.8609 133.523 71.2061 134.583 71.2061ZM134.645 74.0434C135.479 74.0434 136.048 73.529 136.048 72.8508C136.048 72.2506 135.55 71.6816 134.606 71.6816C133.819 71.6816 133.273 72.1415 133.273 72.8664C133.273 73.5835 133.804 74.0434 134.645 74.0434Z" fill="#0FD48F"/>
<path d="M147.998 72.6061L145.094 75.3342L143.988 73.7753L141.775 75.8539" fill="#0FD48F"/>
<path d="M147.998 72.6061L145.094 75.3342L143.988 73.7753L141.775 75.8539" stroke="#0FD48F" stroke-width="0.649562" stroke-linecap="round" stroke-linejoin="round"/>
<path d="M146.615 72.6061H147.998V73.9052" fill="#0FD48F"/>
<path d="M146.615 72.6061H147.998V73.9052" stroke="#0FD48F" stroke-width="0.649562" stroke-linecap="round" stroke-linejoin="round"/>
<path d="M55.6853 75.4609L54.2822 73.4342H54.1991H52.7337V75.4609H51.05V68.1858H54.1991C54.8434 68.1858 55.4012 68.2932 55.8723 68.508C56.3504 68.7227 56.7176 69.0276 56.974 69.4225C57.2304 69.8175 57.3585 70.2852 57.3585 70.8256C57.3585 71.366 57.2269 71.8337 56.9636 72.2286C56.7072 72.6167 56.34 72.9146 55.8619 73.1224L57.4936 75.4609H55.6853ZM55.6541 70.8256C55.6541 70.4168 55.5224 70.105 55.2592 69.8902C54.9959 69.6685 54.6113 69.5577 54.1055 69.5577H52.7337V72.0935H54.1055C54.6113 72.0935 54.9959 71.9827 55.2592 71.761C55.5224 71.5392 55.6541 71.2275 55.6541 70.8256ZM60.7295 70.9191C61.755 70.9191 62.5102 71.1235 62.9952 71.5323C63.4871 71.9411 63.7331 72.4885 63.7331 73.1744C63.7331 73.6178 63.6222 74.0232 63.4005 74.3904C63.1788 74.7507 62.8393 75.0417 62.382 75.2634C61.9316 75.4782 61.3739 75.5856 60.7087 75.5856C60.196 75.5856 59.6902 75.5198 59.1914 75.3881C58.6994 75.2495 58.2802 75.0555 57.9338 74.8061L58.599 73.5174C58.8761 73.7252 59.1948 73.8881 59.5551 74.0059C59.9154 74.1167 60.2861 74.1721 60.6672 74.1721C61.0898 74.1721 61.4224 74.089 61.6649 73.9227C61.9074 73.7564 62.0286 73.5243 62.0286 73.2264C62.0286 72.9146 61.9005 72.679 61.6441 72.5197C61.3947 72.3603 60.9582 72.2806 60.3346 72.2806H58.4742L58.8484 68.1858H63.2862V69.5369H60.2514L60.1371 70.9191H60.7295ZM66.8598 70.9191C67.8852 70.9191 68.6404 71.1235 69.1254 71.5323C69.6174 71.9411 69.8633 72.4885 69.8633 73.1744C69.8633 73.6178 69.7525 74.0232 69.5308 74.3904C69.309 74.7507 68.9695 75.0417 68.5122 75.2634C68.0619 75.4782 67.5041 75.5856 66.839 75.5856C66.3263 75.5856 65.8205 75.5198 65.3216 75.3881C64.8297 75.2495 64.4105 75.0555 64.064 74.8061L64.7292 73.5174C65.0063 73.7252 65.3251 73.8881 65.6854 74.0059C66.0456 74.1167 66.4163 74.1721 66.7974 74.1721C67.22 74.1721 67.5526 74.089 67.7951 73.9227C68.0376 73.7564 68.1589 73.5243 68.1589 73.2264C68.1589 72.9146 68.0307 72.679 67.7743 72.5197C67.5249 72.3603 67.0884 72.2806 66.4648 72.2806H64.6045L64.9786 68.1858H69.4164V69.5369H66.3817L66.2674 70.9191H66.8598ZM71.513 73.5278C71.804 73.5278 72.043 73.6213 72.2301 73.8084C72.4172 73.9885 72.5107 74.2276 72.5107 74.5255C72.5107 74.6641 72.4934 74.8026 72.4587 74.9412C72.4241 75.0798 72.3479 75.2877 72.2301 75.5648L71.6377 77.0614H70.6088L71.0661 75.4089C70.8929 75.3396 70.7543 75.2288 70.6504 75.0763C70.5534 74.917 70.5049 74.7334 70.5049 74.5255C70.5049 74.2276 70.5984 73.9885 70.7855 73.8084C70.9795 73.6213 71.222 73.5278 71.513 73.5278ZM78.8035 74.089V75.4609H73.3056V74.3696L76.1117 71.7194C76.4096 71.4353 76.6106 71.1928 76.7145 70.9919C76.8184 70.784 76.8704 70.5796 76.8704 70.3787C76.8704 70.0877 76.7699 69.866 76.569 69.7135C76.375 69.5542 76.0875 69.4745 75.7064 69.4745C75.3877 69.4745 75.1001 69.5369 74.8438 69.6616C74.5874 69.7794 74.3726 69.9595 74.1994 70.202L72.973 69.4122C73.2571 68.9895 73.6486 68.6604 74.1474 68.4248C74.6463 68.1823 75.2179 68.0611 75.8623 68.0611C76.4027 68.0611 76.8739 68.1511 77.2757 68.3313C77.6845 68.5045 77.9998 68.7539 78.2215 69.0796C78.4501 69.3983 78.5645 69.7759 78.5645 70.2124C78.5645 70.6073 78.4813 70.978 78.315 71.3245C78.1487 71.6709 77.8266 72.0658 77.3485 72.5093L75.6752 74.089H78.8035ZM82.3043 68.1858V75.4609H80.6206V69.5369H79.1656V68.1858H82.3043ZM86.1248 68.0611C87.1433 68.0611 87.9401 68.3729 88.5152 68.9964C89.0903 69.6131 89.3778 70.5034 89.3778 71.6674C89.3778 72.4919 89.2219 73.1987 88.9101 73.7876C88.6052 74.3765 88.1722 74.8234 87.611 75.1283C87.0498 75.4332 86.4019 75.5856 85.6675 75.5856C85.2795 75.5856 84.9088 75.544 84.5554 75.4609C84.2021 75.3708 83.9007 75.2461 83.6513 75.0867L84.2748 73.85C84.6282 74.0925 85.082 74.2137 85.6363 74.2137C86.253 74.2137 86.7414 74.0336 87.1017 73.6733C87.462 73.3061 87.656 72.7795 87.6837 72.0935C87.2472 72.53 86.6444 72.7483 85.8754 72.7483C85.4111 72.7483 84.9885 72.6548 84.6074 72.4677C84.2263 72.2806 83.9249 72.0173 83.7032 71.6778C83.4815 71.3314 83.3706 70.933 83.3706 70.4826C83.3706 69.9976 83.4919 69.5715 83.7344 69.2043C83.9769 68.8371 84.306 68.5565 84.7217 68.3625C85.1444 68.1615 85.6121 68.0611 86.1248 68.0611ZM86.2495 71.4907C86.6167 71.4907 86.9147 71.3903 87.1433 71.1894C87.3789 70.9815 87.4967 70.7182 87.4967 70.3995C87.4967 70.0808 87.3823 69.8209 87.1537 69.62C86.932 69.4191 86.6236 69.3186 86.2287 69.3186C85.8684 69.3186 85.574 69.4156 85.3453 69.6096C85.1236 69.8036 85.0127 70.0669 85.0127 70.3995C85.0127 70.7321 85.1236 70.9988 85.3453 71.1997C85.574 71.3937 85.8754 71.4907 86.2495 71.4907ZM91.0097 75.544C90.7257 75.544 90.4866 75.447 90.2926 75.253C90.0986 75.059 90.0016 74.8165 90.0016 74.5255C90.0016 74.2276 90.0986 73.9885 90.2926 73.8084C90.4866 73.6213 90.7257 73.5278 91.0097 73.5278C91.2938 73.5278 91.5328 73.6213 91.7268 73.8084C91.9209 73.9885 92.0179 74.2276 92.0179 74.5255C92.0179 74.8165 91.9209 75.059 91.7268 75.253C91.5328 75.447 91.2938 75.544 91.0097 75.544ZM95.7596 75.5856C95.1568 75.5856 94.6198 75.4366 94.1487 75.1387C93.6775 74.8408 93.3068 74.4112 93.0366 73.85C92.7733 73.2818 92.6417 72.6063 92.6417 71.8233C92.6417 71.0404 92.7733 70.3683 93.0366 69.8071C93.3068 69.2389 93.6775 68.8059 94.1487 68.508C94.6198 68.21 95.1568 68.0611 95.7596 68.0611C96.3624 68.0611 96.8993 68.21 97.3705 68.508C97.8416 68.8059 98.2089 69.2389 98.4721 69.8071C98.7424 70.3683 98.8775 71.0404 98.8775 71.8233C98.8775 72.6063 98.7424 73.2818 98.4721 73.85C98.2089 74.4112 97.8416 74.8408 97.3705 75.1387C96.8993 75.4366 96.3624 75.5856 95.7596 75.5856ZM95.7596 74.1617C96.203 74.1617 96.5494 73.9712 96.7989 73.5901C97.0552 73.2091 97.1834 72.6201 97.1834 71.8233C97.1834 71.0265 97.0552 70.4376 96.7989 70.0565C96.5494 69.6754 96.203 69.4849 95.7596 69.4849C95.3231 69.4849 94.9766 69.6754 94.7203 70.0565C94.4708 70.4376 94.3461 71.0265 94.3461 71.8233C94.3461 72.6201 94.4708 73.2091 94.7203 73.5901C94.9766 73.9712 95.3231 74.1617 95.7596 74.1617ZM102.813 75.5856C102.211 75.5856 101.674 75.4366 101.202 75.1387C100.731 74.8408 100.361 74.4112 100.09 73.85C99.8272 73.2818 99.6955 72.6063 99.6955 71.8233C99.6955 71.0404 99.8272 70.3683 100.09 69.8071C100.361 69.2389 100.731 68.8059 101.202 68.508C101.674 68.21 102.211 68.0611 102.813 68.0611C103.416 68.0611 103.953 68.21 104.424 68.508C104.895 68.8059 105.263 69.2389 105.526 69.8071C105.796 70.3683 105.931 71.0404 105.931 71.8233C105.931 72.6063 105.796 73.2818 105.526 73.85C105.263 74.4112 104.895 74.8408 104.424 75.1387C103.953 75.4366 103.416 75.5856 102.813 75.5856ZM102.813 74.1617C103.257 74.1617 103.603 73.9712 103.853 73.5901C104.109 73.2091 104.237 72.6201 104.237 71.8233C104.237 71.0265 104.109 70.4376 103.853 70.0565C103.603 69.6754 103.257 69.4849 102.813 69.4849C102.377 69.4849 102.03 69.6754 101.774 70.0565C101.525 70.4376 101.4 71.0265 101.4 71.8233C101.4 72.6201 101.525 73.2091 101.774 73.5901C102.03 73.9712 102.377 74.1617 102.813 74.1617Z" fill="#202020"/>
<g filter="url(#filter2_ddddd_136_656)">
<rect x="49.9999" y="24.9663" width="25" height="25" rx="4" fill="#FFAA2E"/>
<path fill-rule="evenodd" clip-rule="evenodd" d="M62.238 37.5124C62.1193 37.6333 62.1103 37.8659 62.2758 38.0283C62.4011 38.1513 62.4721 38.1693 62.5023 38.1729C62.538 38.1772 62.5942 38.1708 62.7071 38.1169L64.1105 37.4341C64.2756 37.355 64.4833 37.2834 64.723 37.313C64.9681 37.3432 65.1854 37.4709 65.3859 37.6678C65.8222 38.096 65.8711 38.7941 65.4437 39.2295L64.8008 39.8845C64.3338 40.3601 63.5654 40.3273 63.0848 39.8555C62.9376 39.711 62.9331 39.4769 63.0748 39.3326C63.2164 39.1883 63.4506 39.1884 63.5978 39.3329C63.8065 39.5379 64.1054 39.5266 64.2677 39.3612L64.9107 38.7063C65.0304 38.5843 65.0408 38.3551 64.8729 38.1903C64.7501 38.0698 64.6787 38.0509 64.6468 38.0469C64.6097 38.0423 64.5523 38.0489 64.4417 38.1018L63.0382 38.7846C62.8753 38.8625 62.6682 38.936 62.428 38.9071C62.1821 38.8774 61.9644 38.7488 61.7628 38.5509C61.3313 38.1273 61.2765 37.4256 61.705 36.9891L62.348 36.3342C62.8149 35.8586 63.5834 35.8914 64.0639 36.3632C64.2111 36.5077 64.2156 36.7418 64.0739 36.8861C63.9323 37.0304 63.6981 37.0302 63.5509 36.8857C63.3422 36.6808 63.0433 36.692 62.881 36.8574L62.238 37.5124Z" fill="white"/>
<path fill-rule="evenodd" clip-rule="evenodd" d="M61.634 36.2045C61.7843 36.0514 62.0302 36.0491 62.1833 36.1994L65.5096 39.4648C65.6627 39.615 65.665 39.861 65.5147 40.0141C65.3644 40.1671 65.1184 40.1694 64.9654 40.0191L61.6391 36.7538C61.486 36.6035 61.4837 36.3576 61.634 36.2045Z" fill="white"/>
<g clip-path="url(#clip0_136_656)">
<path fill-rule="evenodd" clip-rule="evenodd" d="M65.5147 31.1473C65.5145 31.1471 65.5148 31.1474 65.5147 31.1473L68.8342 34.4522C70.4059 36.0323 70.4074 38.5861 68.8332 40.1603L65.6243 43.3692L65.6233 43.3702C64.0431 44.9419 61.4894 44.9434 59.9152 43.3692L56.604 40.058C55.8007 39.2547 55.37 38.1476 55.4206 37.0073L55.4207 37.0054L55.5962 33.3494C55.6834 31.6136 57.0709 30.2257 58.8154 30.1467C58.8157 30.1467 58.816 30.1467 58.8163 30.1467L62.467 29.9715C62.4674 29.9714 62.4678 29.9714 62.4682 29.9714C63.6043 29.9124 64.7122 30.3451 65.5147 31.1473ZM64.7394 31.9226C64.1534 31.3365 63.3465 31.0234 62.5242 31.0664L62.5219 31.0665L58.8672 31.2419L58.8656 31.242C57.6869 31.295 56.7505 32.2311 56.6913 33.4039C56.6913 33.4041 56.6913 33.4037 56.6913 33.4039L56.516 37.056C56.516 37.0563 56.516 37.0566 56.5159 37.0569C56.4792 37.8898 56.794 38.6974 57.3793 39.2827L60.6905 42.5939C61.8352 43.7386 63.696 43.7403 64.8496 42.5933C64.8494 42.5935 64.8497 42.5932 64.8496 42.5933L68.0579 39.385C69.2025 38.2404 69.2043 36.38 68.0577 35.2263C68.0574 35.226 68.0571 35.2257 68.0568 35.2254L64.7403 31.9234L64.7394 31.9226Z" fill="white"/>
<path fill-rule="evenodd" clip-rule="evenodd" d="M59.5486 33.1821C59.0426 33.1821 58.6324 33.5922 58.6324 34.0982C58.6324 34.6042 59.0426 35.0143 59.5486 35.0143C60.0545 35.0143 60.4647 34.6042 60.4647 34.0982C60.4647 33.5922 60.0545 33.1821 59.5486 33.1821ZM57.8472 34.0982C57.8472 33.1585 58.6089 32.3968 59.5486 32.3968C60.4882 32.3968 61.2499 33.1585 61.2499 34.0982C61.2499 35.0378 60.4882 35.7996 59.5486 35.7996C58.6089 35.7996 57.8472 35.0378 57.8472 34.0982Z" fill="white"/>
</g>
</g>
</g>
<defs>
<filter id="filter0_ddddd_136_656" x="-1.12765" y="0.504383" width="224.099" height="227.996" filterUnits="userSpaceOnUse" color-interpolation-filters="sRGB">
<feFlood flood-opacity="0" result="BackgroundImageFix"/>
<feColorMatrix in="SourceAlpha" type="matrix" values="0 0 0 0 0 0 0 0 0 0 0 0 0 0 0 0 0 0 127 0" result="hardAlpha"/>
<feOffset/>
<feColorMatrix type="matrix" values="0 0 0 0 0.85098 0 0 0 0 0.866667 0 0 0 0 0.956863 0 0 0 0.1 0"/>
<feBlend mode="normal" in2="BackgroundImageFix" result="effect1_dropShadow_136_656"/>
<feColorMatrix in="SourceAlpha" type="matrix" values="0 0 0 0 0 0 0 0 0 0 0 0 0 0 0 0 0 0 127 0" result="hardAlpha"/>
<feOffset dy="5.19649"/>
<feGaussianBlur stdDeviation="5.84606"/>
<feColorMatrix type="matrix" values="0 0 0 0 0.85098 0 0 0 0 0.866667 0 0 0 0 0.956863 0 0 0 0.1 0"/>
<feBlend mode="normal" in2="effect1_dropShadow_136_656" result="effect2_dropShadow_136_656"/>
<feColorMatrix in="SourceAlpha" type="matrix" values="0 0 0 0 0 0 0 0 0 0 0 0 0 0 0 0 0 0 127 0" result="hardAlpha"/>
<feOffset dy="20.786"/>
<feGaussianBlur stdDeviation="10.393"/>
<feColorMatrix type="matrix" values="0 0 0 0 0.85098 0 0 0 0 0.866667 0 0 0 0 0.956863 0 0 0 0.09 0"/>
<feBlend mode="normal" in2="effect2_dropShadow_136_656" result="effect3_dropShadow_136_656"/>
<feColorMatrix in="SourceAlpha" type="matrix" values="0 0 0 0 0 0 0 0 0 0 0 0 0 0 0 0 0 0 127 0" result="hardAlpha"/>
<feOffset dy="46.7684"/>
<feGaussianBlur stdDeviation="13.9656"/>
<feColorMatrix type="matrix" values="0 0 0 0 0.85098 0 0 0 0 0.866667 0 0 0 0 0.956863 0 0 0 0.05 0"/>
<feBlend mode="normal" in2="effect3_dropShadow_136_656" result="effect4_dropShadow_136_656"/>
<feColorMatrix in="SourceAlpha" type="matrix" values="0 0 0 0 0 0 0 0 0 0 0 0 0 0 0 0 0 0 127 0" result="hardAlpha"/>
<feOffset dy="83.1439"/>
<feGaussianBlur stdDeviation="16.5638"/>
<feColorMatrix type="matrix" values="0 0 0 0 0.85098 0 0 0 0 0.866667 0 0 0 0 0.956863 0 0 0 0.01 0"/>
<feBlend mode="normal" in2="effect4_dropShadow_136_656" result="effect5_dropShadow_136_656"/>
<feBlend mode="normal" in="SourceGraphic" in2="effect5_dropShadow_136_656" result="shape"/>
</filter>
<filter id="filter1_ddddd_136_656" x="11.212" y="8.94883" width="198.767" height="187.074" filterUnits="userSpaceOnUse" color-interpolation-filters="sRGB">
<feFlood flood-opacity="0" result="BackgroundImageFix"/>
<feColorMatrix in="SourceAlpha" type="matrix" values="0 0 0 0 0 0 0 0 0 0 0 0 0 0 0 0 0 0 127 0" result="hardAlpha"/>
<feOffset/>
<feColorMatrix type="matrix" values="0 0 0 0 0.533333 0 0 0 0 0.603922 0 0 0 0 0.803922 0 0 0 0.1 0"/>
<feBlend mode="normal" in2="BackgroundImageFix" result="effect1_dropShadow_136_656"/>
<feColorMatrix in="SourceAlpha" type="matrix" values="0 0 0 0 0 0 0 0 0 0 0 0 0 0 0 0 0 0 127 0" result="hardAlpha"/>
<feOffset dy="3.89737"/>
<feGaussianBlur stdDeviation="4.54693"/>
<feColorMatrix type="matrix" values="0 0 0 0 0.533333 0 0 0 0 0.603922 0 0 0 0 0.803922 0 0 0 0.1 0"/>
<feBlend mode="normal" in2="effect1_dropShadow_136_656" result="effect2_dropShadow_136_656"/>
<feColorMatrix in="SourceAlpha" type="matrix" values="0 0 0 0 0 0 0 0 0 0 0 0 0 0 0 0 0 0 127 0" result="hardAlpha"/>
<feOffset dy="16.239"/>
<feGaussianBlur stdDeviation="8.11952"/>
<feColorMatrix type="matrix" values="0 0 0 0 0.533333 0 0 0 0 0.603922 0 0 0 0 0.803922 0 0 0 0.09 0"/>
<feBlend mode="normal" in2="effect2_dropShadow_136_656" result="effect3_dropShadow_136_656"/>
<feColorMatrix in="SourceAlpha" type="matrix" values="0 0 0 0 0 0 0 0 0 0 0 0 0 0 0 0 0 0 127 0" result="hardAlpha"/>
<feOffset dy="36.3755"/>
<feGaussianBlur stdDeviation="11.0425"/>
<feColorMatrix type="matrix" values="0 0 0 0 0.533333 0 0 0 0 0.603922 0 0 0 0 0.803922 0 0 0 0.05 0"/>
<feBlend mode="normal" in2="effect3_dropShadow_136_656" result="effect4_dropShadow_136_656"/>
<feColorMatrix in="SourceAlpha" type="matrix" values="0 0 0 0 0 0 0 0 0 0 0 0 0 0 0 0 0 0 127 0" result="hardAlpha"/>
<feOffset dy="64.3066"/>
<feGaussianBlur stdDeviation="12.9912"/>
<feColorMatrix type="matrix" values="0 0 0 0 0.533333 0 0 0 0 0.603922 0 0 0 0 0.803922 0 0 0 0.01 0"/>
<feBlend mode="normal" in2="effect4_dropShadow_136_656" result="effect5_dropShadow_136_656"/>
<feBlend mode="normal" in="SourceGraphic" in2="effect5_dropShadow_136_656" result="shape"/>
</filter>
<filter id="filter2_ddddd_136_656" x="3.99994" y="15.9663" width="117" height="195" filterUnits="userSpaceOnUse" color-interpolation-filters="sRGB">
<feFlood flood-opacity="0" result="BackgroundImageFix"/>
<feColorMatrix in="SourceAlpha" type="matrix" values="0 0 0 0 0 0 0 0 0 0 0 0 0 0 0 0 0 0 127 0" result="hardAlpha"/>
<feOffset/>
<feColorMatrix type="matrix" values="0 0 0 0 0.533333 0 0 0 0 0.603922 0 0 0 0 0.803922 0 0 0 0.1 0"/>
<feBlend mode="normal" in2="BackgroundImageFix" result="effect1_dropShadow_136_656"/>
<feColorMatrix in="SourceAlpha" type="matrix" values="0 0 0 0 0 0 0 0 0 0 0 0 0 0 0 0 0 0 127 0" result="hardAlpha"/>
<feOffset dy="7"/>
<feGaussianBlur stdDeviation="8"/>
<feColorMatrix type="matrix" values="0 0 0 0 0.533333 0 0 0 0 0.603922 0 0 0 0 0.803922 0 0 0 0.1 0"/>
<feBlend mode="normal" in2="effect1_dropShadow_136_656" result="effect2_dropShadow_136_656"/>
<feColorMatrix in="SourceAlpha" type="matrix" values="0 0 0 0 0 0 0 0 0 0 0 0 0 0 0 0 0 0 127 0" result="hardAlpha"/>
<feOffset dy="29"/>
<feGaussianBlur stdDeviation="14.5"/>
<feColorMatrix type="matrix" values="0 0 0 0 0.533333 0 0 0 0 0.603922 0 0 0 0 0.803922 0 0 0 0.09 0"/>
<feBlend mode="normal" in2="effect2_dropShadow_136_656" result="effect3_dropShadow_136_656"/>
<feColorMatrix in="SourceAlpha" type="matrix" values="0 0 0 0 0 0 0 0 0 0 0 0 0 0 0 0 0 0 127 0" result="hardAlpha"/>
<feOffset dy="65"/>
<feGaussianBlur stdDeviation="19.5"/>
<feColorMatrix type="matrix" values="0 0 0 0 0.533333 0 0 0 0 0.603922 0 0 0 0 0.803922 0 0 0 0.05 0"/>
<feBlend mode="normal" in2="effect3_dropShadow_136_656" result="effect4_dropShadow_136_656"/>
<feColorMatrix in="SourceAlpha" type="matrix" values="0 0 0 0 0 0 0 0 0 0 0 0 0 0 0 0 0 0 127 0" result="hardAlpha"/>
<feOffset dy="115"/>
<feGaussianBlur stdDeviation="23"/>
<feColorMatrix type="matrix" values="0 0 0 0 0.533333 0 0 0 0 0.603922 0 0 0 0 0.803922 0 0 0 0.01 0"/>
<feBlend mode="normal" in2="effect4_dropShadow_136_656" result="effect5_dropShadow_136_656"/>
<feBlend mode="normal" in="SourceGraphic" in2="effect5_dropShadow_136_656" result="shape"/>
</filter>
<clipPath id="clip0_136_656">
<rect width="14.5833" height="14.5833" fill="white" transform="translate(55.4166 29.9663)"/>
</clipPath>
</defs>
</svg>
