<svg width="212" height="193" viewBox="0 0 212 193" fill="none" xmlns="http://www.w3.org/2000/svg">
<g filter="url(#filter0_ddddd_1_7749)">
<rect x="23" y="13" width="190" height="104.777" rx="11.1502" fill="white" fill-opacity="0.35"/>
</g>
<g filter="url(#filter1_ddddd_1_7749)">
<rect x="29.6893" y="18.3521" width="176.718" height="93.7087" rx="6.69014" fill="white"/>
</g>
<rect x="42.179" y="69.6428" width="89.2019" height="8.02817" rx="4.01408" fill="#F1F1F1"/>
<g filter="url(#filter2_ddddd_1_7749)">
<rect x="149.666" y="69.197" width="43.7089" height="35.6808" rx="4.46009" fill="white"/>
<rect x="154.126" y="100.418" width="13.3803" height="4.46009" rx="2.23005" transform="rotate(-90 154.126 100.418)" fill="#007AFF"/>
<rect x="161.709" y="100.418" width="18.2864" height="4.46009" rx="2.23005" transform="rotate(-90 161.709 100.418)" fill="#F1F1F1"/>
<rect x="169.291" y="100.418" width="14.7183" height="4.46009" rx="2.23005" transform="rotate(-90 169.291 100.418)" fill="#007AFF"/>
<rect x="176.873" y="100.418" width="26.7606" height="4.46009" rx="2.23005" transform="rotate(-90 176.873 100.418)" fill="#007AFF"/>
<rect x="184.455" y="100.418" width="8.02817" height="4.46009" rx="2.23005" transform="rotate(-90 184.455 100.418)" fill="#F1F1F1"/>
</g>
<rect x="187.133" y="32.178" width="4.46009" height="11.5962" rx="2.23005" fill="#F1F7FF"/>
<line x1="42.179" y1="60.0539" x2="192.93" y2="60.0539" stroke="#E3E3E3" stroke-width="0.446009"/>
<rect x="42.179" y="81.6853" width="89.2019" height="8.47418" rx="4.23709" fill="#F1F1F1"/>
<rect x="42.179" y="94.1735" width="55.7512" height="8.02817" rx="4.01408" fill="#F1F1F1"/>
<path d="M72.6841 39.7097C72.3463 39.7097 72.0347 39.6478 71.7493 39.5241C71.4686 39.3957 71.2378 39.2149 71.0571 38.9818L71.6993 38.2111C71.9705 38.5774 72.2797 38.7605 72.627 38.7605C73.098 38.7605 73.3335 38.4846 73.3335 37.9328V35.5564H71.578V34.6287H74.4824V37.8685C74.4824 38.4822 74.3302 38.9437 74.0257 39.2529C73.7212 39.5574 73.274 39.7097 72.6841 39.7097ZM79.3066 37.7187C79.3066 37.7329 79.2994 37.8328 79.2851 38.0184H76.3807C76.4331 38.2563 76.5568 38.4442 76.7518 38.5821C76.9469 38.7201 77.1895 38.7891 77.4797 38.7891C77.6795 38.7891 77.8555 38.7605 78.0078 38.7035C78.1648 38.6416 78.3099 38.5465 78.4431 38.418L79.0354 39.0603C78.6738 39.4742 78.1457 39.6811 77.4512 39.6811C77.0182 39.6811 76.6353 39.5979 76.3022 39.4313C75.9692 39.2601 75.7123 39.0246 75.5315 38.7249C75.3508 38.4251 75.2604 38.085 75.2604 37.7044C75.2604 37.3286 75.3484 36.9908 75.5244 36.6911C75.7052 36.3866 75.9502 36.1511 76.2594 35.9846C76.5734 35.8133 76.9231 35.7277 77.3084 35.7277C77.6843 35.7277 78.0244 35.8086 78.3289 35.9703C78.6334 36.1321 78.8713 36.3652 79.0425 36.6697C79.2185 36.9694 79.3066 37.319 79.3066 37.7187ZM77.3156 36.5698C77.0634 36.5698 76.8517 36.6411 76.6805 36.7838C76.5092 36.9266 76.4045 37.1216 76.3665 37.369H78.2575C78.2195 37.1264 78.1148 36.9337 77.9436 36.791C77.7723 36.6435 77.563 36.5698 77.3156 36.5698ZM82.3812 35.7277C82.857 35.7277 83.24 35.8704 83.5302 36.1559C83.8251 36.4413 83.9726 36.8647 83.9726 37.4261V39.624H82.8594V37.5974C82.8594 37.2929 82.7928 37.0669 82.6595 36.9194C82.5263 36.7672 82.3337 36.6911 82.0815 36.6911C81.8008 36.6911 81.5772 36.7791 81.4107 36.9551C81.2442 37.1264 81.161 37.3833 81.161 37.7258V39.624H80.0477V35.7848H81.111V36.2344C81.2585 36.0726 81.4416 35.9489 81.6605 35.8633C81.8793 35.7729 82.1196 35.7277 82.3812 35.7277ZM86.2733 39.6811C85.9546 39.6811 85.643 39.6431 85.3385 39.5669C85.034 39.4861 84.7914 39.3862 84.6106 39.2672L84.9817 38.468C85.153 38.5774 85.3599 38.6678 85.6025 38.7391C85.8452 38.8057 86.083 38.839 86.3162 38.839C86.7871 38.839 87.0226 38.7225 87.0226 38.4894C87.0226 38.38 86.9584 38.3015 86.83 38.2539C86.7015 38.2063 86.5041 38.1659 86.2377 38.1326C85.9237 38.085 85.6644 38.0303 85.4598 37.9684C85.2552 37.9066 85.0768 37.7972 84.9246 37.6402C84.7771 37.4832 84.7034 37.2596 84.7034 36.9694C84.7034 36.7267 84.7724 36.5127 84.9103 36.3271C85.0531 36.1368 85.2576 35.9893 85.524 35.8847C85.7952 35.78 86.114 35.7277 86.4803 35.7277C86.7515 35.7277 87.0203 35.7586 87.2867 35.8205C87.5578 35.8775 87.7814 35.9584 87.9575 36.0631L87.5864 36.8552C87.2486 36.6649 86.8799 36.5698 86.4803 36.5698C86.2424 36.5698 86.064 36.6031 85.9451 36.6697C85.8261 36.7363 85.7667 36.8219 85.7667 36.9266C85.7667 37.0455 85.8309 37.1287 85.9593 37.1763C86.0878 37.2239 86.2924 37.2691 86.5731 37.3119C86.887 37.3642 87.1439 37.4213 87.3438 37.4832C87.5436 37.5403 87.7172 37.6473 87.8647 37.8043C88.0122 37.9613 88.0859 38.1801 88.0859 38.4608C88.0859 38.6987 88.0146 38.9104 87.8718 39.0959C87.7291 39.2815 87.5198 39.4266 87.2439 39.5313C86.9727 39.6312 86.6492 39.6811 86.2733 39.6811ZM90.5996 39.6811C90.1952 39.6811 89.8313 39.5979 89.5078 39.4313C89.1891 39.2601 88.9393 39.0246 88.7585 38.7249C88.5777 38.4251 88.4873 38.085 88.4873 37.7044C88.4873 37.3238 88.5777 36.9836 88.7585 36.6839C88.9393 36.3842 89.1891 36.1511 89.5078 35.9846C89.8313 35.8133 90.1952 35.7277 90.5996 35.7277C91.004 35.7277 91.3656 35.8133 91.6843 35.9846C92.0031 36.1511 92.2528 36.3842 92.4336 36.6839C92.6144 36.9836 92.7048 37.3238 92.7048 37.7044C92.7048 38.085 92.6144 38.4251 92.4336 38.7249C92.2528 39.0246 92.0031 39.2601 91.6843 39.4313C91.3656 39.5979 91.004 39.6811 90.5996 39.6811ZM90.5996 38.7677C90.8851 38.7677 91.1182 38.6725 91.299 38.4822C91.4845 38.2872 91.5773 38.0279 91.5773 37.7044C91.5773 37.3809 91.4845 37.124 91.299 36.9337C91.1182 36.7386 90.8851 36.6411 90.5996 36.6411C90.3142 36.6411 90.0787 36.7386 89.8932 36.9337C89.7076 37.124 89.6148 37.3809 89.6148 37.7044C89.6148 38.0279 89.7076 38.2872 89.8932 38.4822C90.0787 38.6725 90.3142 38.7677 90.5996 38.7677ZM95.7824 35.7277C96.2582 35.7277 96.6411 35.8704 96.9313 36.1559C97.2263 36.4413 97.3738 36.8647 97.3738 37.4261V39.624H96.2605V37.5974C96.2605 37.2929 96.1939 37.0669 96.0607 36.9194C95.9275 36.7672 95.7349 36.6911 95.4827 36.6911C95.202 36.6911 94.9784 36.7791 94.8119 36.9551C94.6454 37.1264 94.5621 37.3833 94.5621 37.7258V39.624H93.4489V35.7848H94.5122V36.2344C94.6597 36.0726 94.8428 35.9489 95.0617 35.8633C95.2805 35.7729 95.5208 35.7277 95.7824 35.7277ZM102.124 39.7097C101.729 39.7097 101.346 39.6573 100.975 39.5527C100.608 39.4432 100.313 39.3029 100.09 39.1316L100.482 38.261C100.696 38.418 100.951 38.5441 101.246 38.6392C101.541 38.7344 101.836 38.782 102.131 38.782C102.459 38.782 102.702 38.7344 102.859 38.6392C103.016 38.5393 103.094 38.4085 103.094 38.2467C103.094 38.1278 103.047 38.0303 102.951 37.9542C102.861 37.8733 102.742 37.8091 102.595 37.7615C102.452 37.7139 102.257 37.6616 102.009 37.6045C101.629 37.5141 101.317 37.4237 101.075 37.3333C100.832 37.2429 100.623 37.0978 100.447 36.898C100.275 36.6982 100.19 36.4318 100.19 36.0988C100.19 35.8086 100.268 35.5469 100.425 35.3138C100.582 35.0759 100.818 34.888 101.132 34.75C101.45 34.6121 101.838 34.5431 102.295 34.5431C102.614 34.5431 102.925 34.5811 103.23 34.6573C103.534 34.7334 103.801 34.8428 104.029 34.9855L103.672 35.8633C103.211 35.6016 102.749 35.4708 102.288 35.4708C101.964 35.4708 101.724 35.5231 101.567 35.6278C101.415 35.7324 101.339 35.8704 101.339 36.0417C101.339 36.2129 101.427 36.3414 101.603 36.427C101.784 36.5079 102.057 36.5888 102.423 36.6697C102.804 36.76 103.116 36.8504 103.358 36.9408C103.601 37.0312 103.808 37.1739 103.979 37.369C104.155 37.5641 104.243 37.8281 104.243 38.1611C104.243 38.4466 104.162 38.7082 104 38.9461C103.843 39.1792 103.606 39.3647 103.287 39.5027C102.968 39.6407 102.58 39.7097 102.124 39.7097ZM111.051 35.7848L109.659 39.624H108.589L107.725 37.2405L106.833 39.624H105.763L104.378 35.7848H105.427L106.334 38.3823L107.275 35.7848H108.217L109.131 38.3823L110.066 35.7848H111.051ZM112.991 35.7277C113.586 35.7277 114.043 35.8704 114.361 36.1559C114.68 36.4365 114.839 36.8623 114.839 37.4332V39.624H113.798V39.1459C113.588 39.5027 113.198 39.6811 112.627 39.6811C112.332 39.6811 112.075 39.6312 111.856 39.5313C111.642 39.4313 111.478 39.2934 111.364 39.1174C111.25 38.9413 111.193 38.7415 111.193 38.5179C111.193 38.1611 111.326 37.8804 111.592 37.6759C111.864 37.4713 112.28 37.369 112.841 37.369H113.726C113.726 37.1264 113.652 36.9408 113.505 36.8124C113.357 36.6792 113.136 36.6126 112.841 36.6126C112.637 36.6126 112.435 36.6459 112.235 36.7125C112.04 36.7743 111.873 36.86 111.735 36.9694L111.336 36.1915C111.545 36.0441 111.795 35.9299 112.085 35.849C112.38 35.7681 112.682 35.7277 112.991 35.7277ZM112.906 38.9318C113.096 38.9318 113.265 38.889 113.412 38.8034C113.56 38.713 113.664 38.5821 113.726 38.4109V38.0184H112.963C112.506 38.0184 112.278 38.1682 112.278 38.468C112.278 38.6107 112.332 38.7249 112.442 38.8105C112.556 38.8914 112.71 38.9318 112.906 38.9318ZM116.91 36.2914C117.043 36.1059 117.222 35.9656 117.445 35.8704C117.674 35.7753 117.935 35.7277 118.23 35.7277V36.7553C118.107 36.7458 118.023 36.741 117.981 36.741C117.662 36.741 117.412 36.8314 117.231 37.0122C117.051 37.1882 116.96 37.4546 116.96 37.8114V39.624H115.847V35.7848H116.91V36.2914ZM121.501 39.4385C121.392 39.5194 121.256 39.5812 121.094 39.624C120.937 39.6621 120.771 39.6811 120.595 39.6811C120.138 39.6811 119.784 39.5646 119.531 39.3314C119.284 39.0983 119.16 38.7558 119.16 38.3038V36.7267H118.568V35.8704H119.16V34.9356H120.274V35.8704H121.23V36.7267H120.274V38.2896C120.274 38.4513 120.314 38.5774 120.395 38.6678C120.481 38.7534 120.599 38.7962 120.752 38.7962C120.928 38.7962 121.078 38.7487 121.201 38.6535L121.501 39.4385Z" fill="#202020"/>
<path d="M73.6546 43.3847L72.5485 45.8823H72.288L71.1819 43.3847H71.4674L72.4236 45.5541L73.387 43.3847H73.6546ZM73.9531 44.0055H74.2065V45.8823H73.9531V44.0055ZM74.0816 43.5952C74.0293 43.5952 73.9852 43.5773 73.9496 43.5417C73.9139 43.506 73.896 43.4632 73.896 43.4132C73.896 43.3656 73.9139 43.324 73.9496 43.2883C73.9852 43.2527 74.0293 43.2348 74.0816 43.2348C74.1339 43.2348 74.1779 43.2527 74.2136 43.2883C74.2493 43.3216 74.2671 43.3621 74.2671 43.4096C74.2671 43.462 74.2493 43.506 74.2136 43.5417C74.1779 43.5773 74.1339 43.5952 74.0816 43.5952ZM76.5455 45.0224H74.9756C74.9899 45.2175 75.0648 45.3757 75.2004 45.497C75.336 45.6159 75.5072 45.6754 75.7142 45.6754C75.8307 45.6754 75.9378 45.6552 76.0353 45.6147C76.1328 45.5719 76.2173 45.5101 76.2886 45.4292L76.4314 45.5933C76.3481 45.6932 76.2434 45.7693 76.1174 45.8217C75.9937 45.874 75.8569 45.9002 75.707 45.9002C75.5144 45.9002 75.3431 45.8597 75.1932 45.7789C75.0458 45.6956 74.9304 45.5814 74.8471 45.4363C74.7639 45.2912 74.7222 45.1271 74.7222 44.9439C74.7222 44.7608 74.7615 44.5966 74.84 44.4515C74.9209 44.3064 75.0303 44.1934 75.1683 44.1126C75.3086 44.0317 75.4656 43.9912 75.6392 43.9912C75.8129 43.9912 75.9687 44.0317 76.1067 44.1126C76.2446 44.1934 76.3529 44.3064 76.4314 44.4515C76.5099 44.5942 76.5491 44.7584 76.5491 44.9439L76.5455 45.0224ZM75.6392 44.2089C75.4585 44.2089 75.3062 44.2672 75.1825 44.3837C75.0612 44.4979 74.9922 44.6478 74.9756 44.8333H76.3065C76.2898 44.6478 76.2197 44.4979 76.096 44.3837C75.9746 44.2672 75.8224 44.2089 75.6392 44.2089ZM79.7845 44.0055L79.0744 45.8823H78.8353L78.243 44.3445L77.6507 45.8823H77.4117L76.7052 44.0055H76.9478L77.5366 45.6004L78.1396 44.0055H78.3572L78.9567 45.6004L79.5525 44.0055H79.7845ZM82.6768 44.0055L81.7384 46.1071C81.6623 46.2831 81.5743 46.408 81.4744 46.4818C81.3745 46.5555 81.2544 46.5924 81.114 46.5924C81.0236 46.5924 80.9392 46.5781 80.8607 46.5496C80.7822 46.521 80.7144 46.4782 80.6573 46.4211L80.775 46.232C80.8702 46.3271 80.9844 46.3747 81.1176 46.3747C81.2032 46.3747 81.2758 46.3509 81.3352 46.3034C81.3971 46.2558 81.4542 46.1749 81.5065 46.0607L81.5886 45.8788L80.7501 44.0055H81.0141L81.7206 45.6004L82.4271 44.0055H82.6768ZM83.7485 45.9002C83.5677 45.9002 83.4048 45.8597 83.2597 45.7789C83.1145 45.6956 83.0004 45.5814 82.9171 45.4363C82.8339 45.2912 82.7922 45.1271 82.7922 44.9439C82.7922 44.7608 82.8339 44.5966 82.9171 44.4515C83.0004 44.3064 83.1145 44.1934 83.2597 44.1126C83.4048 44.0317 83.5677 43.9912 83.7485 43.9912C83.9293 43.9912 84.0922 44.0317 84.2373 44.1126C84.3824 44.1934 84.4954 44.3064 84.5763 44.4515C84.6595 44.5966 84.7012 44.7608 84.7012 44.9439C84.7012 45.1271 84.6595 45.2912 84.5763 45.4363C84.4954 45.5814 84.3824 45.6956 84.2373 45.7789C84.0922 45.8597 83.9293 45.9002 83.7485 45.9002ZM83.7485 45.6754C83.8817 45.6754 84.0006 45.6456 84.1053 45.5862C84.2123 45.5243 84.2956 45.4375 84.3551 45.3257C84.4145 45.2139 84.4443 45.0866 84.4443 44.9439C84.4443 44.8012 84.4145 44.6739 84.3551 44.5621C84.2956 44.4503 84.2123 44.3647 84.1053 44.3052C84.0006 44.2434 83.8817 44.2125 83.7485 44.2125C83.6153 44.2125 83.4951 44.2434 83.3881 44.3052C83.2834 44.3647 83.2002 44.4503 83.1383 44.5621C83.0789 44.6739 83.0491 44.8012 83.0491 44.9439C83.0491 45.0866 83.0789 45.2139 83.1383 45.3257C83.2002 45.4375 83.2834 45.5243 83.3881 45.5862C83.4951 45.6456 83.6153 45.6754 83.7485 45.6754ZM86.9096 44.0055V45.8823H86.667V45.5398C86.6004 45.654 86.5088 45.7432 86.3923 45.8074C86.2757 45.8692 86.1425 45.9002 85.9926 45.9002C85.7476 45.9002 85.5538 45.8324 85.411 45.6968C85.2707 45.5588 85.2005 45.3578 85.2005 45.0938V44.0055H85.4539V45.0688C85.4539 45.2662 85.5026 45.4161 85.6001 45.5184C85.6977 45.6207 85.8368 45.6718 86.0176 45.6718C86.215 45.6718 86.3708 45.6123 86.485 45.4934C86.5992 45.3721 86.6563 45.2044 86.6563 44.9903V44.0055H86.9096ZM87.8618 44.373C87.9212 44.247 88.0093 44.1518 88.1258 44.0876C88.2447 44.0234 88.391 43.9912 88.5647 43.9912V44.2374L88.504 44.2339C88.3066 44.2339 88.152 44.2945 88.0402 44.4158C87.9284 44.5372 87.8725 44.7072 87.8725 44.9261V45.8823H87.6191V44.0055H87.8618V44.373ZM90.7522 45.9002C90.5714 45.9002 90.4085 45.8597 90.2634 45.7789C90.1183 45.6956 90.0041 45.5814 89.9209 45.4363C89.8376 45.2912 89.796 45.1271 89.796 44.9439C89.796 44.7608 89.8376 44.5966 89.9209 44.4515C90.0041 44.3064 90.1183 44.1934 90.2634 44.1126C90.4085 44.0317 90.5714 43.9912 90.7522 43.9912C90.933 43.9912 91.0959 44.0317 91.241 44.1126C91.3861 44.1934 91.4991 44.3064 91.58 44.4515C91.6633 44.5966 91.7049 44.7608 91.7049 44.9439C91.7049 45.1271 91.6633 45.2912 91.58 45.4363C91.4991 45.5814 91.3861 45.6956 91.241 45.7789C91.0959 45.8597 90.933 45.9002 90.7522 45.9002ZM90.7522 45.6754C90.8854 45.6754 91.0044 45.6456 91.109 45.5862C91.2161 45.5243 91.2993 45.4375 91.3588 45.3257C91.4183 45.2139 91.448 45.0866 91.448 44.9439C91.448 44.8012 91.4183 44.6739 91.3588 44.5621C91.2993 44.4503 91.2161 44.3647 91.109 44.3052C91.0044 44.2434 90.8854 44.2125 90.7522 44.2125C90.619 44.2125 90.4989 44.2434 90.3918 44.3052C90.2872 44.3647 90.2039 44.4503 90.1421 44.5621C90.0826 44.6739 90.0529 44.8012 90.0529 44.9439C90.0529 45.0866 90.0826 45.2139 90.1421 45.3257C90.2039 45.4375 90.2872 45.5243 90.3918 45.5862C90.4989 45.6456 90.619 45.6754 90.7522 45.6754ZM93.7469 44.0055L92.912 45.8823H92.6515L91.8202 44.0055H92.0842L92.7871 45.604L93.4972 44.0055H93.7469ZM95.6856 45.0224H94.1157C94.1299 45.2175 94.2049 45.3757 94.3405 45.497C94.476 45.6159 94.6473 45.6754 94.8543 45.6754C94.9708 45.6754 95.0779 45.6552 95.1754 45.6147C95.2729 45.5719 95.3574 45.5101 95.4287 45.4292L95.5714 45.5933C95.4882 45.6932 95.3835 45.7693 95.2574 45.8217C95.1338 45.874 94.997 45.9002 94.8471 45.9002C94.6544 45.9002 94.4832 45.8597 94.3333 45.7789C94.1858 45.6956 94.0705 45.5814 93.9872 45.4363C93.904 45.2912 93.8623 45.1271 93.8623 44.9439C93.8623 44.7608 93.9016 44.5966 93.9801 44.4515C94.061 44.3064 94.1704 44.1934 94.3083 44.1126C94.4487 44.0317 94.6057 43.9912 94.7793 43.9912C94.953 43.9912 95.1088 44.0317 95.2467 44.1126C95.3847 44.1934 95.4929 44.3064 95.5714 44.4515C95.6499 44.5942 95.6892 44.7584 95.6892 44.9439L95.6856 45.0224ZM94.7793 44.2089C94.5985 44.2089 94.4463 44.2672 94.3226 44.3837C94.2013 44.4979 94.1323 44.6478 94.1157 44.8333H95.4466C95.4299 44.6478 95.3597 44.4979 95.236 44.3837C95.1147 44.2672 94.9625 44.2089 94.7793 44.2089ZM96.4475 44.373C96.5069 44.247 96.5949 44.1518 96.7115 44.0876C96.8304 44.0234 96.9767 43.9912 97.1504 43.9912V44.2374L97.0897 44.2339C96.8923 44.2339 96.7377 44.2945 96.6259 44.4158C96.5141 44.5372 96.4582 44.7072 96.4582 44.9261V45.8823H96.2048V44.0055H96.4475V44.373ZM99.2663 44.0055L98.4314 45.8823H98.1709L97.3395 44.0055H97.6036L98.3065 45.604L99.0165 44.0055H99.2663ZM99.6231 44.0055H99.8764V45.8823H99.6231V44.0055ZM99.7515 43.5952C99.6992 43.5952 99.6552 43.5773 99.6195 43.5417C99.5838 43.506 99.566 43.4632 99.566 43.4132C99.566 43.3656 99.5838 43.324 99.6195 43.2883C99.6552 43.2527 99.6992 43.2348 99.7515 43.2348C99.8039 43.2348 99.8479 43.2527 99.8835 43.2883C99.9192 43.3216 99.9371 43.3621 99.9371 43.4096C99.9371 43.462 99.9192 43.506 99.8835 43.5417C99.8479 43.5773 99.8039 43.5952 99.7515 43.5952ZM102.215 45.0224H100.646C100.66 45.2175 100.735 45.3757 100.87 45.497C101.006 45.6159 101.177 45.6754 101.384 45.6754C101.501 45.6754 101.608 45.6552 101.705 45.6147C101.803 45.5719 101.887 45.5101 101.959 45.4292L102.101 45.5933C102.018 45.6932 101.913 45.7693 101.787 45.8217C101.664 45.874 101.527 45.9002 101.377 45.9002C101.184 45.9002 101.013 45.8597 100.863 45.7789C100.716 45.6956 100.6 45.5814 100.517 45.4363C100.434 45.2912 100.392 45.1271 100.392 44.9439C100.392 44.7608 100.431 44.5966 100.51 44.4515C100.591 44.3064 100.7 44.1934 100.838 44.1126C100.979 44.0317 101.136 43.9912 101.309 43.9912C101.483 43.9912 101.639 44.0317 101.777 44.1126C101.915 44.1934 102.023 44.3064 102.101 44.4515C102.18 44.5942 102.219 44.7584 102.219 44.9439L102.215 45.0224ZM101.309 44.2089C101.128 44.2089 100.976 44.2672 100.852 44.3837C100.731 44.4979 100.662 44.6478 100.646 44.8333H101.976C101.96 44.6478 101.89 44.4979 101.766 44.3837C101.645 44.2672 101.492 44.2089 101.309 44.2089ZM105.454 44.0055L104.744 45.8823H104.505L103.913 44.3445L103.321 45.8823H103.082L102.375 44.0055H102.618L103.207 45.6004L103.81 44.0055H104.027L104.627 45.6004L105.222 44.0055H105.454Z" fill="#888888"/>
<path d="M75.0069 29.1125L74.1648 31.6101H73.8865L73.1551 29.48L72.4201 31.6101H72.1453L71.3033 29.1125H71.5744L72.2952 31.2604L73.0409 29.1125H73.2871L74.0221 31.2711L74.7536 29.1125H75.0069ZM76.9288 30.7502H75.3589C75.3731 30.9453 75.4481 31.1034 75.5837 31.2248C75.7192 31.3437 75.8905 31.4032 76.0975 31.4032C76.214 31.4032 76.3211 31.3829 76.4186 31.3425C76.5161 31.2997 76.6006 31.2378 76.6719 31.157L76.8146 31.3211C76.7314 31.421 76.6267 31.4971 76.5007 31.5495C76.377 31.6018 76.2402 31.6279 76.0903 31.6279C75.8977 31.6279 75.7264 31.5875 75.5765 31.5066C75.429 31.4234 75.3137 31.3092 75.2304 31.1641C75.1472 31.019 75.1055 30.8549 75.1055 30.6717C75.1055 30.4885 75.1448 30.3244 75.2233 30.1793C75.3042 30.0342 75.4136 29.9212 75.5515 29.8403C75.6919 29.7595 75.8489 29.719 76.0225 29.719C76.1962 29.719 76.352 29.7595 76.49 29.8403C76.6279 29.9212 76.7362 30.0342 76.8146 30.1793C76.8931 30.322 76.9324 30.4862 76.9324 30.6717L76.9288 30.7502ZM76.0225 29.9367C75.8418 29.9367 75.6895 29.995 75.5658 30.1115C75.4445 30.2257 75.3755 30.3756 75.3589 30.5611H76.6898C76.6731 30.3756 76.6029 30.2257 76.4792 30.1115C76.3579 29.995 76.2057 29.9367 76.0225 29.9367ZM77.448 28.9626H77.7014V31.6101H77.448V28.9626ZM79.1841 31.6279C78.9986 31.6279 78.8321 31.5875 78.6846 31.5066C78.5395 31.4258 78.4253 31.3128 78.342 31.1677C78.2588 31.0202 78.2172 30.8549 78.2172 30.6717C78.2172 30.4885 78.2588 30.3244 78.342 30.1793C78.4253 30.0342 78.5395 29.9212 78.6846 29.8403C78.8321 29.7595 78.9986 29.719 79.1841 29.719C79.3459 29.719 79.4898 29.7511 79.6158 29.8154C79.7443 29.8772 79.8454 29.9688 79.9191 30.0901L79.73 30.2186C79.6682 30.1258 79.5897 30.0568 79.4945 30.0116C79.3994 29.964 79.2959 29.9402 79.1841 29.9402C79.0485 29.9402 78.926 29.9712 78.8166 30.033C78.7095 30.0925 78.6251 30.1781 78.5633 30.2899C78.5038 30.4017 78.4741 30.529 78.4741 30.6717C78.4741 30.8168 78.5038 30.9453 78.5633 31.0571C78.6251 31.1665 78.7095 31.2521 78.8166 31.314C78.926 31.3734 79.0485 31.4032 79.1841 31.4032C79.2959 31.4032 79.3994 31.3806 79.4945 31.3354C79.5897 31.2902 79.6682 31.2212 79.73 31.1284L79.9191 31.2569C79.8454 31.3782 79.7443 31.471 79.6158 31.5352C79.4874 31.597 79.3435 31.6279 79.1841 31.6279ZM81.1526 31.6279C80.9718 31.6279 80.8088 31.5875 80.6637 31.5066C80.5186 31.4234 80.4045 31.3092 80.3212 31.1641C80.2379 31.019 80.1963 30.8549 80.1963 30.6717C80.1963 30.4885 80.2379 30.3244 80.3212 30.1793C80.4045 30.0342 80.5186 29.9212 80.6637 29.8403C80.8088 29.7595 80.9718 29.719 81.1526 29.719C81.3333 29.719 81.4963 29.7595 81.6414 29.8403C81.7865 29.9212 81.8995 30.0342 81.9804 30.1793C82.0636 30.3244 82.1052 30.4885 82.1052 30.6717C82.1052 30.8549 82.0636 31.019 81.9804 31.1641C81.8995 31.3092 81.7865 31.4234 81.6414 31.5066C81.4963 31.5875 81.3333 31.6279 81.1526 31.6279ZM81.1526 31.4032C81.2858 31.4032 81.4047 31.3734 81.5094 31.314C81.6164 31.2521 81.6997 31.1653 81.7591 31.0535C81.8186 30.9417 81.8483 30.8144 81.8483 30.6717C81.8483 30.529 81.8186 30.4017 81.7591 30.2899C81.6997 30.1781 81.6164 30.0925 81.5094 30.033C81.4047 29.9712 81.2858 29.9402 81.1526 29.9402C81.0194 29.9402 80.8992 29.9712 80.7922 30.033C80.6875 30.0925 80.6043 30.1781 80.5424 30.2899C80.483 30.4017 80.4532 30.529 80.4532 30.6717C80.4532 30.8144 80.483 30.9417 80.5424 31.0535C80.6043 31.1653 80.6875 31.2521 80.7922 31.314C80.8992 31.3734 81.0194 31.4032 81.1526 31.4032ZM84.9631 29.719C85.1986 29.719 85.3829 29.7868 85.5162 29.9224C85.6517 30.058 85.7195 30.2578 85.7195 30.5218V31.6101H85.4662V30.5468C85.4662 30.3518 85.4186 30.2031 85.3235 30.1008C85.2307 29.9985 85.0987 29.9474 84.9274 29.9474C84.7324 29.9474 84.5789 30.008 84.4671 30.1294C84.3553 30.2483 84.2994 30.4136 84.2994 30.6253V31.6101H84.0461V30.5468C84.0461 30.3518 83.9985 30.2031 83.9034 30.1008C83.8106 29.9985 83.6774 29.9474 83.5038 29.9474C83.3111 29.9474 83.1577 30.008 83.0435 30.1294C82.9317 30.2483 82.8758 30.4136 82.8758 30.6253V31.6101H82.6224V29.7333H82.8651V30.0758C82.9317 29.9617 83.0244 29.8736 83.1434 29.8118C83.2623 29.75 83.3991 29.719 83.5537 29.719C83.7107 29.719 83.8463 29.7523 83.9605 29.8189C84.077 29.8855 84.1639 29.9843 84.2209 30.1151C84.2899 29.9914 84.3886 29.8951 84.5171 29.8261C84.6479 29.7547 84.7966 29.719 84.9631 29.719ZM88.0477 30.7502H86.4777C86.492 30.9453 86.567 31.1034 86.7025 31.2248C86.8381 31.3437 87.0094 31.4032 87.2163 31.4032C87.3329 31.4032 87.4399 31.3829 87.5375 31.3425C87.635 31.2997 87.7194 31.2378 87.7908 31.157L87.9335 31.3211C87.8503 31.421 87.7456 31.4971 87.6195 31.5495C87.4958 31.6018 87.3591 31.6279 87.2092 31.6279C87.0165 31.6279 86.8453 31.5875 86.6954 31.5066C86.5479 31.4234 86.4326 31.3092 86.3493 31.1641C86.266 31.019 86.2244 30.8549 86.2244 30.6717C86.2244 30.4885 86.2637 30.3244 86.3422 30.1793C86.423 30.0342 86.5325 29.9212 86.6704 29.8403C86.8108 29.7595 86.9678 29.719 87.1414 29.719C87.3151 29.719 87.4709 29.7595 87.6088 29.8403C87.7468 29.9212 87.855 30.0342 87.9335 30.1793C88.012 30.322 88.0513 30.4862 88.0513 30.6717L88.0477 30.7502ZM87.1414 29.9367C86.9606 29.9367 86.8084 29.995 86.6847 30.1115C86.5634 30.2257 86.4944 30.3756 86.4777 30.5611H87.8086C87.792 30.3756 87.7218 30.2257 87.5981 30.1115C87.4768 29.995 87.3246 29.9367 87.1414 29.9367ZM90.4677 29.719C90.6437 29.719 90.8031 29.7595 90.9458 29.8403C91.0885 29.9188 91.2003 30.0306 91.2812 30.1757C91.3621 30.3208 91.4025 30.4862 91.4025 30.6717C91.4025 30.8572 91.3621 31.0226 91.2812 31.1677C91.2003 31.3128 91.0885 31.4258 90.9458 31.5066C90.8031 31.5875 90.6437 31.6279 90.4677 31.6279C90.3107 31.6279 90.1692 31.5946 90.0431 31.528C89.9194 31.4614 89.8195 31.3651 89.7434 31.239V31.6101H89.5007V28.9626H89.7541V30.0901C89.8326 29.9688 89.9325 29.8772 90.0538 29.8154C90.1775 29.7511 90.3155 29.719 90.4677 29.719ZM90.4499 31.4032C90.5807 31.4032 90.6996 31.3734 90.8067 31.314C90.9137 31.2521 90.997 31.1653 91.0564 31.0535C91.1183 30.9417 91.1492 30.8144 91.1492 30.6717C91.1492 30.529 91.1183 30.4017 91.0564 30.2899C90.997 30.1781 90.9137 30.0925 90.8067 30.033C90.6996 29.9712 90.5807 29.9402 90.4499 29.9402C90.3166 29.9402 90.1965 29.9712 90.0895 30.033C89.9848 30.0925 89.9016 30.1781 89.8397 30.2899C89.7802 30.4017 89.7505 30.529 89.7505 30.6717C89.7505 30.8144 89.7802 30.9417 89.8397 31.0535C89.9016 31.1653 89.9848 31.2521 90.0895 31.314C90.1965 31.3734 90.3166 31.4032 90.4499 31.4032ZM92.565 29.719C92.81 29.719 92.998 29.7809 93.1288 29.9046C93.2596 30.0259 93.325 30.2067 93.325 30.4469V31.6101H93.0824V31.3175C93.0253 31.4151 92.9409 31.4912 92.8291 31.5459C92.7196 31.6006 92.5888 31.6279 92.4366 31.6279C92.2272 31.6279 92.0607 31.578 91.937 31.4781C91.8134 31.3782 91.7515 31.2462 91.7515 31.082C91.7515 30.9227 91.8086 30.7942 91.9228 30.6967C92.0393 30.5992 92.2237 30.5504 92.4758 30.5504H93.0717V30.4362C93.0717 30.2745 93.0265 30.152 92.9361 30.0687C92.8457 29.9831 92.7137 29.9402 92.54 29.9402C92.4211 29.9402 92.3069 29.9605 92.1975 30.0009C92.0881 30.039 91.9941 30.0925 91.9156 30.1615L91.8015 29.9724C91.8966 29.8915 92.0108 29.8296 92.144 29.7868C92.2772 29.7416 92.4175 29.719 92.565 29.719ZM92.4758 31.4281C92.6185 31.4281 92.7411 31.396 92.8433 31.3318C92.9456 31.2652 93.0217 31.17 93.0717 31.0464V30.7395H92.483C92.1618 30.7395 92.0013 30.8513 92.0013 31.0749C92.0013 31.1843 92.0429 31.2711 92.1262 31.3354C92.2094 31.3972 92.326 31.4281 92.4758 31.4281ZM94.7979 31.6279C94.6124 31.6279 94.4459 31.5875 94.2984 31.5066C94.1533 31.4258 94.0391 31.3128 93.9558 31.1677C93.8726 31.0202 93.831 30.8549 93.831 30.6717C93.831 30.4885 93.8726 30.3244 93.9558 30.1793C94.0391 30.0342 94.1533 29.9212 94.2984 29.8403C94.4459 29.7595 94.6124 29.719 94.7979 29.719C94.9597 29.719 95.1036 29.7511 95.2297 29.8154C95.3581 29.8772 95.4592 29.9688 95.5329 30.0901L95.3438 30.2186C95.282 30.1258 95.2035 30.0568 95.1083 30.0116C95.0132 29.964 94.9097 29.9402 94.7979 29.9402C94.6623 29.9402 94.5398 29.9712 94.4304 30.033C94.3234 30.0925 94.2389 30.1781 94.1771 30.2899C94.1176 30.4017 94.0879 30.529 94.0879 30.6717C94.0879 30.8168 94.1176 30.9453 94.1771 31.0571C94.2389 31.1665 94.3234 31.2521 94.4304 31.314C94.5398 31.3734 94.6623 31.4032 94.7979 31.4032C94.9097 31.4032 95.0132 31.3806 95.1083 31.3354C95.2035 31.2902 95.282 31.2212 95.3438 31.1284L95.5329 31.2569C95.4592 31.3782 95.3581 31.471 95.2297 31.5352C95.1012 31.597 94.9573 31.6279 94.7979 31.6279ZM96.6985 30.6681L96.2561 31.0749V31.6101H96.0027V28.9626H96.2561V30.7573L97.3764 29.7333H97.6904L96.8876 30.5004L97.7654 31.6101H97.4549L96.6985 30.6681ZM98.2055 31.6279C98.1532 31.6279 98.108 31.6089 98.0699 31.5709C98.0342 31.5328 98.0164 31.4864 98.0164 31.4317C98.0164 31.377 98.0342 31.3318 98.0699 31.2961C98.108 31.2581 98.1532 31.239 98.2055 31.239C98.2578 31.239 98.303 31.2581 98.3411 31.2961C98.3791 31.3318 98.3982 31.377 98.3982 31.4317C98.3982 31.4864 98.3791 31.5328 98.3411 31.5709C98.303 31.6089 98.2578 31.6279 98.2055 31.6279ZM98.9616 31.6279C98.9093 31.6279 98.8641 31.6089 98.826 31.5709C98.7903 31.5328 98.7725 31.4864 98.7725 31.4317C98.7725 31.377 98.7903 31.3318 98.826 31.2961C98.8641 31.2581 98.9093 31.239 98.9616 31.239C99.0139 31.239 99.0591 31.2581 99.0972 31.2961C99.1353 31.3318 99.1543 31.377 99.1543 31.4317C99.1543 31.4864 99.1353 31.5328 99.0972 31.5709C99.0591 31.6089 99.0139 31.6279 98.9616 31.6279ZM99.7177 31.6279C99.6654 31.6279 99.6202 31.6089 99.5821 31.5709C99.5465 31.5328 99.5286 31.4864 99.5286 31.4317C99.5286 31.377 99.5465 31.3318 99.5821 31.2961C99.6202 31.2581 99.6654 31.239 99.7177 31.239C99.7701 31.239 99.8153 31.2581 99.8533 31.2961C99.8914 31.3318 99.9104 31.377 99.9104 31.4317C99.9104 31.4864 99.8914 31.5328 99.8533 31.5709C99.8153 31.6089 99.7701 31.6279 99.7177 31.6279Z" fill="#888888"/>
<circle cx="189.364" cy="34.8542" r="0.892019" fill="#007AFF"/>
<circle cx="189.364" cy="37.9762" r="0.892019" fill="#007AFF"/>
<circle cx="189.364" cy="41.0983" r="0.892019" fill="#007AFF"/>
<g filter="url(#filter3_ddddd_1_7749)">
<circle cx="54.4458" cy="37.7531" r="12.2653" fill="#D9D9D9"/>
<circle cx="54.4458" cy="37.7531" r="11.1502" stroke="white" stroke-width="2.23005"/>
</g>
<circle cx="62.4741" cy="29.7247" r="4.46009" fill="#00CDB4" stroke="white" stroke-width="2.23005"/>
<path d="M37.3925 0C19.5044 0 5 14.501 5 32.3925C5 50.2806 19.501 64.785 37.3925 64.785C55.2806 64.785 69.785 50.2841 69.785 32.3925C69.785 14.501 55.2806 0 37.3925 0Z" fill="white"/>
<path d="M37.3891 4.64087C22.0638 4.64087 9.63742 17.0673 9.63742 32.3925C9.63742 47.7178 22.0638 60.1442 37.3891 60.1442C52.7143 60.1442 65.1407 47.7178 65.1407 32.3925C65.1407 17.0673 52.7143 4.64087 37.3891 4.64087Z" fill="#7C66FF"/>
<mask id="mask0_1_7749" style="mask-type:alpha" maskUnits="userSpaceOnUse" x="9" y="4" width="57" height="57">
<path d="M37.3959 4.64136C22.0707 4.64136 9.64423 17.0678 9.64423 32.393C9.64423 47.7182 22.0707 60.1447 37.3959 60.1447C52.7211 60.1447 65.1475 47.7182 65.1475 32.393C65.1475 17.0678 52.7211 4.64136 37.3959 4.64136Z" fill="#007AFF"/>
</mask>
<g mask="url(#mask0_1_7749)">
<rect x="-75.5098" y="0.000244141" width="240.694" height="134.894"/>
</g>
<defs>
<filter id="filter0_ddddd_1_7749" x="0.253517" y="8.53991" width="235.493" height="189.073" filterUnits="userSpaceOnUse" color-interpolation-filters="sRGB">
<feFlood flood-opacity="0" result="BackgroundImageFix"/>
<feColorMatrix in="SourceAlpha" type="matrix" values="0 0 0 0 0 0 0 0 0 0 0 0 0 0 0 0 0 0 127 0" result="hardAlpha"/>
<feOffset/>
<feColorMatrix type="matrix" values="0 0 0 0 0.85098 0 0 0 0 0.866667 0 0 0 0 0.956863 0 0 0 0.1 0"/>
<feBlend mode="normal" in2="BackgroundImageFix" result="effect1_dropShadow_1_7749"/>
<feColorMatrix in="SourceAlpha" type="matrix" values="0 0 0 0 0 0 0 0 0 0 0 0 0 0 0 0 0 0 127 0" result="hardAlpha"/>
<feOffset dy="3.56808"/>
<feGaussianBlur stdDeviation="4.01409"/>
<feColorMatrix type="matrix" values="0 0 0 0 0.85098 0 0 0 0 0.866667 0 0 0 0 0.956863 0 0 0 0.1 0"/>
<feBlend mode="normal" in2="effect1_dropShadow_1_7749" result="effect2_dropShadow_1_7749"/>
<feColorMatrix in="SourceAlpha" type="matrix" values="0 0 0 0 0 0 0 0 0 0 0 0 0 0 0 0 0 0 127 0" result="hardAlpha"/>
<feOffset dy="14.2723"/>
<feGaussianBlur stdDeviation="7.13615"/>
<feColorMatrix type="matrix" values="0 0 0 0 0.85098 0 0 0 0 0.866667 0 0 0 0 0.956863 0 0 0 0.09 0"/>
<feBlend mode="normal" in2="effect2_dropShadow_1_7749" result="effect3_dropShadow_1_7749"/>
<feColorMatrix in="SourceAlpha" type="matrix" values="0 0 0 0 0 0 0 0 0 0 0 0 0 0 0 0 0 0 127 0" result="hardAlpha"/>
<feOffset dy="32.1127"/>
<feGaussianBlur stdDeviation="9.5892"/>
<feColorMatrix type="matrix" values="0 0 0 0 0.85098 0 0 0 0 0.866667 0 0 0 0 0.956863 0 0 0 0.05 0"/>
<feBlend mode="normal" in2="effect3_dropShadow_1_7749" result="effect4_dropShadow_1_7749"/>
<feColorMatrix in="SourceAlpha" type="matrix" values="0 0 0 0 0 0 0 0 0 0 0 0 0 0 0 0 0 0 127 0" result="hardAlpha"/>
<feOffset dy="57.0892"/>
<feGaussianBlur stdDeviation="11.3732"/>
<feColorMatrix type="matrix" values="0 0 0 0 0.85098 0 0 0 0 0.866667 0 0 0 0 0.956863 0 0 0 0.01 0"/>
<feBlend mode="normal" in2="effect4_dropShadow_1_7749" result="effect5_dropShadow_1_7749"/>
<feBlend mode="normal" in="SourceGraphic" in2="effect5_dropShadow_1_7749" result="shape"/>
</filter>
<filter id="filter1_ddddd_1_7749" x="9.17286" y="14.338" width="217.751" height="169.53" filterUnits="userSpaceOnUse" color-interpolation-filters="sRGB">
<feFlood flood-opacity="0" result="BackgroundImageFix"/>
<feColorMatrix in="SourceAlpha" type="matrix" values="0 0 0 0 0 0 0 0 0 0 0 0 0 0 0 0 0 0 127 0" result="hardAlpha"/>
<feOffset/>
<feColorMatrix type="matrix" values="0 0 0 0 0.533333 0 0 0 0 0.603922 0 0 0 0 0.803922 0 0 0 0.1 0"/>
<feBlend mode="normal" in2="BackgroundImageFix" result="effect1_dropShadow_1_7749"/>
<feColorMatrix in="SourceAlpha" type="matrix" values="0 0 0 0 0 0 0 0 0 0 0 0 0 0 0 0 0 0 127 0" result="hardAlpha"/>
<feOffset dy="3.12207"/>
<feGaussianBlur stdDeviation="3.56808"/>
<feColorMatrix type="matrix" values="0 0 0 0 0.533333 0 0 0 0 0.603922 0 0 0 0 0.803922 0 0 0 0.1 0"/>
<feBlend mode="normal" in2="effect1_dropShadow_1_7749" result="effect2_dropShadow_1_7749"/>
<feColorMatrix in="SourceAlpha" type="matrix" values="0 0 0 0 0 0 0 0 0 0 0 0 0 0 0 0 0 0 127 0" result="hardAlpha"/>
<feOffset dy="12.9343"/>
<feGaussianBlur stdDeviation="6.46714"/>
<feColorMatrix type="matrix" values="0 0 0 0 0.533333 0 0 0 0 0.603922 0 0 0 0 0.803922 0 0 0 0.09 0"/>
<feBlend mode="normal" in2="effect2_dropShadow_1_7749" result="effect3_dropShadow_1_7749"/>
<feColorMatrix in="SourceAlpha" type="matrix" values="0 0 0 0 0 0 0 0 0 0 0 0 0 0 0 0 0 0 127 0" result="hardAlpha"/>
<feOffset dy="28.9906"/>
<feGaussianBlur stdDeviation="8.69718"/>
<feColorMatrix type="matrix" values="0 0 0 0 0.533333 0 0 0 0 0.603922 0 0 0 0 0.803922 0 0 0 0.05 0"/>
<feBlend mode="normal" in2="effect3_dropShadow_1_7749" result="effect4_dropShadow_1_7749"/>
<feColorMatrix in="SourceAlpha" type="matrix" values="0 0 0 0 0 0 0 0 0 0 0 0 0 0 0 0 0 0 127 0" result="hardAlpha"/>
<feOffset dy="51.2911"/>
<feGaussianBlur stdDeviation="10.2582"/>
<feColorMatrix type="matrix" values="0 0 0 0 0.533333 0 0 0 0 0.603922 0 0 0 0 0.803922 0 0 0 0.01 0"/>
<feBlend mode="normal" in2="effect4_dropShadow_1_7749" result="effect5_dropShadow_1_7749"/>
<feBlend mode="normal" in="SourceGraphic" in2="effect5_dropShadow_1_7749" result="shape"/>
</filter>
<filter id="filter2_ddddd_1_7749" x="142.084" y="67.859" width="58.8732" height="63.7794" filterUnits="userSpaceOnUse" color-interpolation-filters="sRGB">
<feFlood flood-opacity="0" result="BackgroundImageFix"/>
<feColorMatrix in="SourceAlpha" type="matrix" values="0 0 0 0 0 0 0 0 0 0 0 0 0 0 0 0 0 0 127 0" result="hardAlpha"/>
<feOffset/>
<feColorMatrix type="matrix" values="0 0 0 0 0.533333 0 0 0 0 0.603922 0 0 0 0 0.803922 0 0 0 0.1 0"/>
<feBlend mode="normal" in2="BackgroundImageFix" result="effect1_dropShadow_1_7749"/>
<feColorMatrix in="SourceAlpha" type="matrix" values="0 0 0 0 0 0 0 0 0 0 0 0 0 0 0 0 0 0 127 0" result="hardAlpha"/>
<feOffset dy="1.33803"/>
<feGaussianBlur stdDeviation="1.33803"/>
<feColorMatrix type="matrix" values="0 0 0 0 0.533333 0 0 0 0 0.603922 0 0 0 0 0.803922 0 0 0 0.1 0"/>
<feBlend mode="normal" in2="effect1_dropShadow_1_7749" result="effect2_dropShadow_1_7749"/>
<feColorMatrix in="SourceAlpha" type="matrix" values="0 0 0 0 0 0 0 0 0 0 0 0 0 0 0 0 0 0 127 0" result="hardAlpha"/>
<feOffset dy="4.9061"/>
<feGaussianBlur stdDeviation="2.45305"/>
<feColorMatrix type="matrix" values="0 0 0 0 0.533333 0 0 0 0 0.603922 0 0 0 0 0.803922 0 0 0 0.09 0"/>
<feBlend mode="normal" in2="effect2_dropShadow_1_7749" result="effect3_dropShadow_1_7749"/>
<feColorMatrix in="SourceAlpha" type="matrix" values="0 0 0 0 0 0 0 0 0 0 0 0 0 0 0 0 0 0 127 0" result="hardAlpha"/>
<feOffset dy="10.7042"/>
<feGaussianBlur stdDeviation="3.34507"/>
<feColorMatrix type="matrix" values="0 0 0 0 0.533333 0 0 0 0 0.603922 0 0 0 0 0.803922 0 0 0 0.05 0"/>
<feBlend mode="normal" in2="effect3_dropShadow_1_7749" result="effect4_dropShadow_1_7749"/>
<feColorMatrix in="SourceAlpha" type="matrix" values="0 0 0 0 0 0 0 0 0 0 0 0 0 0 0 0 0 0 127 0" result="hardAlpha"/>
<feOffset dy="19.1784"/>
<feGaussianBlur stdDeviation="3.79108"/>
<feColorMatrix type="matrix" values="0 0 0 0 0.533333 0 0 0 0 0.603922 0 0 0 0 0.803922 0 0 0 0.01 0"/>
<feBlend mode="normal" in2="effect4_dropShadow_1_7749" result="effect5_dropShadow_1_7749"/>
<feBlend mode="normal" in="SourceGraphic" in2="effect5_dropShadow_1_7749" result="shape"/>
</filter>
<filter id="filter3_ddddd_1_7749" x="38.6124" y="24.5958" width="31.6667" height="37.9108" filterUnits="userSpaceOnUse" color-interpolation-filters="sRGB">
<feFlood flood-opacity="0" result="BackgroundImageFix"/>
<feColorMatrix in="SourceAlpha" type="matrix" values="0 0 0 0 0 0 0 0 0 0 0 0 0 0 0 0 0 0 127 0" result="hardAlpha"/>
<feOffset/>
<feColorMatrix type="matrix" values="0 0 0 0 0.533333 0 0 0 0 0.603922 0 0 0 0 0.803922 0 0 0 0.1 0"/>
<feBlend mode="normal" in2="BackgroundImageFix" result="effect1_dropShadow_1_7749"/>
<feColorMatrix in="SourceAlpha" type="matrix" values="0 0 0 0 0 0 0 0 0 0 0 0 0 0 0 0 0 0 127 0" result="hardAlpha"/>
<feOffset dy="0.446009"/>
<feGaussianBlur stdDeviation="0.669014"/>
<feColorMatrix type="matrix" values="0 0 0 0 0.533333 0 0 0 0 0.603922 0 0 0 0 0.803922 0 0 0 0.1 0"/>
<feBlend mode="normal" in2="effect1_dropShadow_1_7749" result="effect2_dropShadow_1_7749"/>
<feColorMatrix in="SourceAlpha" type="matrix" values="0 0 0 0 0 0 0 0 0 0 0 0 0 0 0 0 0 0 127 0" result="hardAlpha"/>
<feOffset dy="2.23005"/>
<feGaussianBlur stdDeviation="1.11502"/>
<feColorMatrix type="matrix" values="0 0 0 0 0.533333 0 0 0 0 0.603922 0 0 0 0 0.803922 0 0 0 0.09 0"/>
<feBlend mode="normal" in2="effect2_dropShadow_1_7749" result="effect3_dropShadow_1_7749"/>
<feColorMatrix in="SourceAlpha" type="matrix" values="0 0 0 0 0 0 0 0 0 0 0 0 0 0 0 0 0 0 127 0" result="hardAlpha"/>
<feOffset dy="4.9061"/>
<feGaussianBlur stdDeviation="1.56103"/>
<feColorMatrix type="matrix" values="0 0 0 0 0.533333 0 0 0 0 0.603922 0 0 0 0 0.803922 0 0 0 0.05 0"/>
<feBlend mode="normal" in2="effect3_dropShadow_1_7749" result="effect4_dropShadow_1_7749"/>
<feColorMatrix in="SourceAlpha" type="matrix" values="0 0 0 0 0 0 0 0 0 0 0 0 0 0 0 0 0 0 127 0" result="hardAlpha"/>
<feOffset dy="8.92019"/>
<feGaussianBlur stdDeviation="1.78404"/>
<feColorMatrix type="matrix" values="0 0 0 0 0.533333 0 0 0 0 0.603922 0 0 0 0 0.803922 0 0 0 0.01 0"/>
<feBlend mode="normal" in2="effect4_dropShadow_1_7749" result="effect5_dropShadow_1_7749"/>
<feBlend mode="normal" in="SourceGraphic" in2="effect5_dropShadow_1_7749" result="shape"/>
</filter>
</defs>
</svg>
