<svg width="150" height="23" viewBox="0 0 150 23" fill="none" xmlns="http://www.w3.org/2000/svg">
<path d="M11 18.4611L17.798 22.78L15.994 14.64L22 9.16319L14.091 8.45687L11 0.780029L7.909 8.45687L0 9.16319L6.006 14.64L4.202 22.78L11 18.4611Z" fill="#FFDC27"/>
<path d="M43 18.4611L49.798 22.78L47.994 14.64L54 9.16319L46.091 8.45687L43 0.780029L39.909 8.45687L32 9.16319L38.006 14.64L36.202 22.78L43 18.4611Z" fill="#FFDC27"/>
<path d="M75 18.4611L81.798 22.78L79.994 14.64L86 9.16319L78.091 8.45687L75 0.780029L71.909 8.45687L64 9.16319L70.006 14.64L68.202 22.78L75 18.4611Z" fill="#FFDC27"/>
<path d="M107 18.4611L113.798 22.78L111.994 14.64L118 9.16319L110.091 8.45687L107 0.780029L103.909 8.45687L96 9.16319L102.006 14.64L100.202 22.78L107 18.4611Z" fill="#FFDC27"/>
<path d="M139 18.4611L145.798 22.78L143.994 14.64L150 9.16319L142.091 8.45687L139 0.780029L135.909 8.45687L128 9.16319L134.006 14.64L132.202 22.78L139 18.4611Z" fill="#FFDC27"/>
</svg>
